<svg width="395" height="102" viewBox="0 0 395 102" fill="none" xmlns="http://www.w3.org/2000/svg">
<path d="M234.999 7.20084C233.032 7.11348 230.986 7.00539 229.34 5.92191C228.717 5.50843 228.187 4.99327 227.777 4.40336C227.575 4.12097 227.402 3.82221 227.262 3.51098C227.114 3.21342 227.025 2.89518 226.999 2.57037C226.999 2.65667 227.094 2.50102 227.002 2.56932L226.859 2.67196C226.807 2.73442 226.732 2.7776 226.647 2.79324C226.562 2.80888 226.474 2.7959 226.399 2.75679C226.243 2.77438 226.351 2.5393 226.322 2.95784C226.236 3.40655 226.234 3.86507 226.316 4.31436C226.373 4.53233 226.48 4.73721 226.63 4.91591C226.78 5.09462 226.97 5.24324 227.188 5.35226C227.405 5.46128 227.646 5.52831 227.894 5.54909C228.142 5.56987 228.392 5.54393 228.628 5.47293C228.963 5.36007 229.287 5.22278 229.597 5.06245L229.687 5.02153C229.797 4.97443 229.806 4.97077 229.715 5.0105C229.791 4.89475 229.834 5.12217 229.707 4.99185L229.791 4.99061L229.69 4.985C229.634 4.97554 229.582 4.95486 229.536 4.92453C229.491 4.89419 229.454 4.855 229.428 4.80988C229.395 4.72015 229.39 4.70704 229.412 4.77055C229.443 4.81005 229.445 4.98907 229.429 4.8152C229.434 4.87339 229.434 4.93241 229.435 4.9908C229.436 5.14089 229.425 5.29083 229.425 5.44089C229.404 5.81428 229.495 6.18586 229.687 6.51719C229.839 6.74078 230.056 6.923 230.314 7.04441C230.573 7.16583 230.863 7.22185 231.153 7.20647C231.807 7.17945 232.177 6.76925 232.728 6.54609C232.85 6.49038 232.989 6.47276 233.124 6.49599C233.258 6.51922 233.38 6.58198 233.47 6.6744C233.542 6.7564 233.587 6.85448 233.601 6.95798C233.615 7.06149 233.597 7.16648 233.55 7.26155C233.422 7.46889 233.389 7.71236 233.455 7.94151C233.522 8.17066 233.685 8.36791 233.909 8.49235C234.139 8.61053 234.411 8.64292 234.667 8.58257C234.923 8.52221 235.142 8.37394 235.278 8.16962C235.501 7.81095 235.615 7.40562 235.609 6.99461C235.602 6.5836 235.475 6.18145 235.24 5.82874C235.005 5.47604 234.671 5.18528 234.271 4.98583C233.872 4.78637 233.42 4.68528 232.963 4.69277C232.658 4.69665 232.357 4.74965 232.072 4.84927C231.722 4.95145 231.4 5.11975 231.128 5.34294C230.773 5.73885 231.018 5.33323 231.033 5.41492C231.031 5.40566 231.389 5.5933 231.415 5.60912L231.45 5.6908C231.425 5.59038 231.42 5.59292 231.436 5.69841C231.435 5.61264 231.426 5.52695 231.426 5.44089C231.46 5.0433 231.427 4.64342 231.329 4.25455C231.246 4.00607 231.093 3.78114 230.885 3.60183C230.676 3.42251 230.42 3.29496 230.14 3.23169C229.602 3.15398 229.051 3.25237 228.587 3.50895C228.41 3.60243 228.227 3.68723 228.04 3.76301C228.204 3.70695 227.985 3.78134 227.96 3.77252C227.837 3.73014 228.077 3.76947 228.089 3.77431C228.158 3.80196 228.269 3.9338 228.279 3.93568C228.235 3.9276 228.238 3.78834 228.236 3.76286C228.213 3.44768 228.33 3.13351 228.33 2.81821C228.343 2.51953 228.275 2.22259 228.131 1.95298C227.987 1.68338 227.773 1.4492 227.507 1.27061C227.221 1.08182 226.872 0.986818 226.518 1.00147C226.164 1.01613 225.826 1.13956 225.561 1.35114C224.655 2.10054 225.025 3.32593 225.431 4.20821C225.882 5.2124 226.575 6.11415 227.461 6.84858C228.346 7.58301 229.402 8.13184 230.551 8.45562C232.002 8.80848 233.497 8.99146 234.999 9C235.265 9 235.519 8.90523 235.707 8.73652C235.895 8.56782 236 8.339 236 8.10042C236 7.86183 235.895 7.63302 235.707 7.46431C235.519 7.29561 235.265 7.20084 234.999 7.20084Z" fill="#302061"/>
<path d="M235.935 8.15791C236.114 6.58296 236.322 4.90653 237.472 3.61374C237.973 3.05639 238.597 2.59129 239.307 2.24547C239.63 2.08405 239.972 1.95175 240.327 1.85059C240.526 1.79433 240.727 1.75562 240.928 1.70769C241.284 1.62281 240.861 1.69866 241.042 1.68629C241.094 1.68228 241.146 1.68073 241.198 1.68161C241.32 1.68797 241.335 1.68746 241.244 1.6801C241.385 1.60913 241.34 1.75587 241.278 1.68161L241.22 1.64492C241.149 1.58635 241.101 1.50988 241.082 1.42627C241.064 1.34266 241.076 1.25609 241.117 1.17875C241.106 1.07132 241.321 1.15488 241.008 1.11189C240.501 1.0066 239.976 0.980637 239.458 1.03525C239.218 1.07196 238.99 1.15236 238.788 1.27117C238.587 1.38998 238.416 1.54452 238.288 1.72469C238.159 1.90485 238.076 2.10657 238.044 2.31663C238.011 2.52669 238.03 2.74036 238.099 2.94363C238.22 3.24561 238.364 3.54038 238.529 3.82607C238.466 3.69214 238.533 3.84815 238.545 3.88294C238.58 3.9863 238.519 4.02634 238.558 3.90643C238.567 3.85027 238.586 3.79565 238.614 3.74459C238.644 3.70279 238.685 3.66766 238.734 3.64198C238.846 3.60605 238.849 3.60197 238.741 3.62973C238.756 3.60894 238.969 3.63275 238.744 3.62469C238.652 3.62141 238.561 3.62385 238.469 3.61959C238.329 3.61306 238.19 3.59969 238.05 3.5938C237.643 3.56013 237.234 3.62817 236.87 3.78995C236.596 3.93227 236.379 4.14487 236.248 4.39866C236.118 4.65246 236.081 4.93508 236.142 5.20793C236.308 5.6076 236.517 5.99227 236.769 6.3565C236.806 6.4566 236.807 6.56425 236.772 6.66499C236.737 6.76572 236.668 6.85471 236.573 6.92C236.478 6.9853 236.362 7.02376 236.242 7.03024C236.121 7.03672 236.001 7.01089 235.898 6.95623C234.809 6.42657 233.832 7.88072 234.921 8.41043C235.312 8.6149 235.759 8.72295 236.215 8.72297C236.671 8.72298 237.119 8.61495 237.509 8.4105C237.9 8.20606 238.22 7.91288 238.434 7.56243C238.648 7.21197 238.748 6.81747 238.724 6.42119C238.639 5.90716 238.421 5.41654 238.087 4.98601C238.087 4.98586 237.984 4.843 238.025 4.85442C238.276 4.92442 237.898 5.19788 237.847 5.24416L237.756 5.27915C237.863 5.25852 237.857 5.25731 237.738 5.27552C237.827 5.27193 237.915 5.27248 238.004 5.27566C238.447 5.32767 238.897 5.31414 239.334 5.23564C239.599 5.16901 239.839 5.04492 240.033 4.87507C240.226 4.70521 240.367 4.49518 240.442 4.26483C240.538 3.79558 240.438 3.31186 240.161 2.90092C240.131 2.84381 239.975 2.53382 240.022 2.6468C240.017 2.63288 239.942 2.42113 239.945 2.42111C240.041 2.42036 239.843 2.7106 239.959 2.5057C240.095 2.26713 239.827 2.75477 239.808 2.69036C239.8 2.66365 239.989 2.67297 239.997 2.67316C240.336 2.68048 240.667 2.78475 241.008 2.79603C241.338 2.81658 241.669 2.7638 241.969 2.64268C242.269 2.52157 242.529 2.33608 242.724 2.1036C242.925 1.85753 243.021 1.55853 242.996 1.25767C242.971 0.956814 242.827 0.672766 242.589 0.454045C241.799 -0.247761 240.513 -0.000715414 239.577 0.297437C238.519 0.631209 237.552 1.15108 236.735 1.82462C235.838 2.57865 235.157 3.50526 234.747 4.52994C234.329 5.7082 234.078 6.9266 234 8.15793C234.002 8.38079 234.104 8.59409 234.285 8.75168C234.467 8.90926 234.712 8.99846 234.968 9C235.223 8.99528 235.466 8.90504 235.646 8.74814C235.826 8.59123 235.93 8.37976 235.935 8.15791Z" fill="#302061"/>
<path d="M235.879 6.74081C235.13 5.40411 234.233 4.14638 233.203 2.98868C232.962 2.71629 232.713 2.45006 232.457 2.18998C232.22 1.98247 232.001 1.75688 231.803 1.51547C231.765 1.45618 231.774 1.42398 231.753 1.41085C231.737 1.35274 231.736 1.34894 231.75 1.39941C231.764 1.43274 231.765 1.46967 231.752 1.50353C231.763 1.56999 231.682 1.55626 231.76 1.49248C231.62 1.60675 231.511 1.71379 231.291 1.64992C231.208 1.62601 231.153 1.54124 231.09 1.50925C231.028 1.47834 231.107 1.483 231.09 1.52989C231.056 1.62595 230.965 1.8441 230.91 1.97172L232.614 2.41664C232.636 2.31325 232.717 2.21001 232.612 2.32943C232.651 2.28589 232.693 2.24529 232.739 2.208C232.682 2.25294 232.698 2.24749 232.786 2.19164C232.663 2.23464 232.916 2.15482 232.92 2.15418C232.749 2.18851 233.153 2.18811 233.005 2.15879C233.165 2.19896 233.312 2.27515 233.433 2.38087C233.555 2.48658 233.648 2.61866 233.704 2.76577C233.885 3.22058 233.963 3.70628 233.934 4.19156C233.937 4.74621 233.877 5.29956 233.754 5.84185C233.697 6.05567 233.73 6.28201 233.845 6.47375C233.96 6.66549 234.148 6.80786 234.371 6.87122C234.597 6.92793 234.838 6.89847 235.041 6.78919C235.244 6.67991 235.394 6.49951 235.458 6.28674C235.812 4.72601 235.98 2.70518 234.848 1.38531C234.604 1.08939 234.288 0.853817 233.927 0.698726C233.566 0.543634 233.171 0.473643 232.775 0.494743C232.34 0.524032 231.925 0.682501 231.59 0.947631C231.256 1.21276 231.017 1.5711 230.91 1.97172C230.847 2.18573 230.877 2.41439 230.993 2.60743C231.109 2.80048 231.301 2.94208 231.527 3.00108C231.753 3.06007 231.994 3.03164 232.198 2.92203C232.402 2.81243 232.552 2.63065 232.614 2.41664C232.762 2.14597 232.839 1.8456 232.84 1.54076C232.84 1.23592 232.763 0.935437 232.616 0.664494C232.462 0.414028 232.227 0.217656 231.945 0.105029C231.664 -0.00759755 231.351 -0.0303566 231.054 0.040198C230.759 0.133331 230.5 0.308968 230.312 0.544025C230.124 0.779082 230.015 1.06256 230 1.35719C229.998 1.62544 230.053 1.89137 230.161 2.13916C230.27 2.38694 230.43 2.6115 230.632 2.79948C231.302 3.5241 232.015 4.1952 232.622 4.97255C233.268 5.80113 233.846 6.67456 234.353 7.58541C234.412 7.6803 234.49 7.76334 234.582 7.82978C234.674 7.89622 234.78 7.94475 234.892 7.97263C235.004 8.00051 235.121 8.00717 235.236 7.99224C235.351 7.97731 235.462 7.94109 235.562 7.88562C235.662 7.83016 235.75 7.75655 235.82 7.66899C235.89 7.58144 235.942 7.48166 235.971 7.37535C236.001 7.26903 236.008 7.15827 235.992 7.04937C235.976 6.94048 235.938 6.8357 235.879 6.74081Z" fill="#302061"/>
<path d="M249.1 101H231.9L224.077 60.1091C223.958 59.4875 223.977 58.8471 224.132 58.2337C224.287 57.6203 224.575 57.0491 224.974 56.5609C225.374 56.0727 225.875 55.6796 226.443 55.4098C227.011 55.1399 227.63 55 228.258 55H252.742C253.37 55 253.989 55.1399 254.557 55.4098C255.125 55.6796 255.626 56.0727 256.026 56.5609C256.425 57.0491 256.713 57.6203 256.868 58.2337C257.023 58.8471 257.042 59.4875 256.923 60.1091L249.1 101Z" fill="#302061"/>
<path d="M143.874 101.899C143.756 101.95 125.762 101.95 125.879 102C119.413 91.734 116.907 83.0571 116.077 76.7067C115.895 75.2526 116.036 73.778 116.491 72.3799C116.946 70.9818 117.705 69.6918 118.717 68.5947C119.729 67.4976 120.972 66.6183 122.364 66.0144C123.756 65.4106 125.266 65.096 126.794 65.0913L143.082 65.0002C144.506 64.9908 145.918 65.2506 147.238 65.7646C148.558 66.2786 149.759 67.0368 150.773 67.996C151.787 68.9551 152.594 70.0964 153.147 71.3545C153.701 72.6126 153.991 73.963 153.999 75.3284C154.036 83.0459 152.235 93.626 143.874 101.899Z" fill="#302061"/>
<path d="M134.579 65.1838C135.366 58.6542 135.048 52.0349 133.641 45.6152C133.406 44.5379 131.788 44.9938 132.023 46.0713C133.386 52.3435 133.682 58.8087 132.901 65.1838C132.768 66.277 134.447 66.2671 134.579 65.1838Z" fill="#302061"/>
<path d="M136.77 65.1235C137.168 59.3359 138.571 53.6692 140.911 48.3933C141.382 47.3337 139.858 46.4057 139.384 47.4727C136.908 53.0367 135.423 59.0159 135.003 65.1235C134.922 66.2948 136.69 66.2896 136.77 65.1235Z" fill="#302061"/>
<path d="M131.996 65.1181C131.477 58.5872 129.66 52.2357 126.657 46.4574C126.114 45.414 124.571 46.3414 125.114 47.3852C127.973 52.8757 129.707 58.9109 130.21 65.1181C130.304 66.2888 132.091 66.2991 131.996 65.1181Z" fill="#302061"/>
<path d="M126.26 47.1375C125.262 46.7426 125.149 45.0913 124.917 44.1421C124.757 43.4133 124.5 42.7137 124.154 42.0657C123.757 41.42 123.303 40.8171 122.799 40.2652C122.387 39.8557 122.052 39.363 121.814 38.8146C121.741 38.6044 121.72 38.3768 121.755 38.1553C121.788 38.0599 121.813 37.9614 121.828 37.861L121.841 37.8284C121.896 37.7125 121.813 37.7295 121.592 37.8793C121.592 37.8937 122.015 38.1477 122.06 38.184C123.268 39.2097 124.192 40.577 124.731 42.1356C125.269 43.6941 125.4 45.3835 125.111 47.0179C124.884 48.21 126.57 48.7199 126.798 47.5225C127.179 45.4846 127.019 43.3713 126.337 41.4281C125.654 39.485 124.477 37.7917 122.943 36.5451C122.547 36.1895 122.047 35.9965 121.533 36C121.225 36.0362 120.933 36.17 120.695 36.3845C120.456 36.599 120.281 36.885 120.192 37.2066C120.042 37.6417 119.979 38.1059 120.006 38.5692C120.033 39.0325 120.15 39.4845 120.349 39.8956C121.076 41.4672 122.581 42.3692 123.084 44.0989C123.643 46.0189 123.795 48.1768 125.795 48.9677C126.018 49.0324 126.256 48.9991 126.458 48.8751C126.659 48.7511 126.807 48.5464 126.871 48.3049C126.928 48.0624 126.896 47.8054 126.782 47.5878C126.668 47.3702 126.481 47.2089 126.26 47.1375Z" fill="#302061"/>
<path d="M133.261 44.1126C132.225 43.7053 132.125 42.1824 131.845 41.2019C131.33 39.7379 130.561 38.3942 129.58 37.2435C129.185 36.7801 128.903 36.2166 128.761 35.6047C128.745 35.4871 128.742 35.3678 128.753 35.2494C128.763 35.1358 128.851 34.9599 128.836 34.8565L128.849 34.8239C128.904 34.7083 128.821 34.7253 128.6 34.8747C128.651 34.895 128.701 34.9189 128.749 34.9462C128.88 35.0682 129.047 35.1595 129.185 35.2786C130.293 36.2453 131.149 37.5088 131.669 38.9443C132.263 40.5457 132.417 42.2991 132.113 43.9933C131.887 45.1828 133.571 45.6915 133.798 44.4967C134.17 42.5104 134.026 40.4512 133.384 38.5478C132.741 36.6445 131.624 34.9716 130.157 33.7149C129.803 33.3776 129.377 33.1403 128.918 33.0243C128.612 32.9661 128.297 33.0131 128.016 33.1585C127.736 33.3039 127.504 33.5406 127.353 33.8356C127.146 34.2625 127.027 34.7332 127.004 35.215C126.981 35.6968 127.055 36.1782 127.221 36.6259C127.839 38.3454 129.368 39.4377 129.985 41.1475C130.312 42.0529 130.447 43.0222 130.803 43.9172C130.983 44.3889 131.254 44.8134 131.598 45.1621C131.941 45.5108 132.35 45.7757 132.796 45.9388C133.855 46.3551 134.311 44.5256 133.261 44.1126Z" fill="#302061"/>
<path d="M140.917 47.6268C140.254 46.325 141.181 44.7803 141.566 43.5316C141.98 42.1874 141.917 40.7822 142.213 39.4187C142.295 38.8631 142.559 38.3564 142.96 37.9891C143.068 37.9013 143.414 37.8022 143.142 37.7611C142.943 37.731 143.039 37.767 143.093 37.9701C143.172 38.2808 143.226 38.598 143.254 38.9183C143.384 40.3261 143.197 41.7466 142.707 43.0619C142.184 44.4942 141.302 45.7472 140.156 46.6849C139.965 46.8121 139.827 47.0121 139.769 47.244C139.712 47.476 139.74 47.7223 139.848 47.9329C139.964 48.1405 140.153 48.2913 140.372 48.3525C140.592 48.4138 140.826 48.3806 141.023 48.2602C142.412 47.1521 143.504 45.6771 144.19 43.9817C144.877 42.2862 145.133 40.4294 144.935 38.5958C144.825 37.6782 144.665 36.4522 143.718 36.0925C142.79 35.7404 141.848 36.4547 141.298 37.2077C140.272 38.6137 140.462 40.4455 140.15 42.0958C139.731 44.3084 138.286 46.2914 139.434 48.5475C139.96 49.5806 141.443 48.6606 140.917 47.6268Z" fill="#302061"/>
<path d="M132.622 37.6286C131.685 36.2428 132.608 34.6877 133.075 33.2975C133.36 31.9195 133.743 30.5558 134.219 29.2128C134.444 28.708 134.852 28.2695 135.39 27.9544C135.498 27.8993 135.61 27.8503 135.726 27.8077C135.714 27.7461 135.383 27.7692 135.394 27.7485C135.426 27.877 135.471 28.0029 135.531 28.1247C135.622 28.441 135.684 28.7623 135.717 29.0859C135.85 30.4406 135.597 31.8019 134.979 33.0659C134.29 34.4975 133.128 35.7498 131.62 36.6872C131.369 36.8143 131.186 37.0142 131.111 37.246C131.036 37.4778 131.073 37.7241 131.215 37.9346C131.368 38.1422 131.616 38.2928 131.905 38.3541C132.194 38.4153 132.502 38.3821 132.761 38.2617C134.578 37.163 136.009 35.7023 136.914 34.0229C137.819 32.3435 138.168 30.5032 137.925 28.6824C137.793 27.8127 137.634 26.674 136.58 26.1917C135.424 25.6628 134.098 26.3243 133.302 27.0124C131.771 28.3353 131.591 30.1771 131.171 31.866C130.607 34.1351 129.154 36.3068 130.67 38.549C131.367 39.5795 133.319 38.6602 132.622 37.6286Z" fill="#302061"/>
<path d="M139.686 54.7603C140.33 53.7189 141.636 53.6141 142.742 53.4183C143.435 53.3068 144.116 53.1329 144.776 52.8988C145.494 52.6328 146.184 52.2973 146.908 52.0493C147.513 51.7804 148.191 51.7209 148.833 51.8804C148.87 51.8928 149.274 52.1142 149.29 52.106C149.348 52.0754 149.192 51.8716 149.205 51.8713C149.197 51.8714 149.134 51.9634 149.12 51.9727C148.847 52.16 148.619 52.4312 148.346 52.6275C147.227 53.4257 145.932 53.9473 144.569 54.1491C143.06 54.3831 141.514 54.1989 140.103 53.6166C139.896 53.505 139.654 53.4759 139.426 53.5352C139.199 53.5946 139.002 53.738 138.877 53.9362C138.758 54.1407 138.726 54.3832 138.786 54.6113C138.846 54.8395 138.994 55.0349 139.198 55.1553C140.908 55.8876 142.784 56.1508 144.632 55.9174C146.479 55.6839 148.229 54.9625 149.7 53.8282C150.43 53.2567 151.24 52.4942 150.933 51.4759C150.649 50.5324 149.463 50.1154 148.578 50.0217C146.648 49.8172 144.95 51.1167 143.133 51.53C141.237 51.9616 139.266 52.0364 138.138 53.8609C137.532 54.8405 139.082 55.7366 139.686 54.7603Z" fill="#302061"/>
<path d="M134.244 44.5898C133.587 42.8901 133.513 40.9816 134.036 39.2254C134.56 37.4692 135.645 35.9872 137.086 35.06C137.151 35.018 137.217 34.9775 137.284 34.9386C137.408 34.9151 137.427 34.8831 137.34 34.8426C137.478 34.326 137.287 34.7313 137.236 34.8625C137.083 35.2597 136.927 35.6558 136.769 36.0508C136.417 36.9333 136.056 37.811 135.685 38.6841C134.92 40.4839 134.121 42.2671 133.246 44.0042C132.715 45.0596 134.174 46.0073 134.705 44.9517C135.552 43.2696 136.328 41.5442 137.071 39.8027C137.434 38.9508 137.788 38.0942 138.134 37.2331C138.286 36.855 138.436 36.476 138.584 36.0961C138.791 35.6902 138.932 35.2466 139 34.7861C139 34.5351 138.952 34.287 138.86 34.0579C138.768 33.8289 138.633 33.624 138.465 33.4565C138.297 33.289 138.099 33.1627 137.884 33.0859C137.669 33.009 137.441 32.9834 137.217 33.0105C136.385 33.2502 135.625 33.7267 135.01 34.3929C133.766 35.5467 132.847 37.0738 132.363 38.792C131.761 41.0227 131.911 43.4206 132.785 45.5373C132.9 45.7509 133.085 45.9061 133.301 45.9691C133.518 46.0321 133.747 45.998 133.941 45.874C134.131 45.7442 134.268 45.5384 134.324 45.2993C134.381 45.0602 134.352 44.8061 134.244 44.5898Z" fill="#302061"/>
<path d="M127.602 52.7383C126.265 53.4164 124.634 52.1226 123.437 51.5671C122.099 50.9461 120.667 50.8857 119.302 50.3913C118.789 50.2335 118.34 49.8792 118.032 49.3889C117.99 49.2894 117.941 49.1938 117.886 49.1031C117.933 49.1157 117.685 49.2891 117.792 49.2645C117.887 49.2424 117.982 49.2157 118.079 49.1966C118.424 49.134 118.773 49.1019 119.123 49.1006C120.616 49.0771 122.09 49.4786 123.41 50.2683C124.73 51.0579 125.853 52.2103 126.676 53.6194C127.322 54.7551 128.934 53.7008 128.283 52.557C127.256 50.7678 125.832 49.3144 124.153 48.3419C122.474 47.3693 120.599 46.9115 118.715 47.0141C117.782 47.0817 116.641 47.1985 116.161 48.2527C115.672 49.3295 116.385 50.6472 117.096 51.364C118.459 52.7397 120.342 52.6661 122.003 53.2164C123.11 53.5835 124.108 54.2655 125.197 54.6886C126.284 55.1457 127.486 55.098 128.541 54.5558C128.753 54.4135 128.907 54.1827 128.969 53.9132C129.032 53.6438 128.998 53.3573 128.875 53.1158C128.747 52.8798 128.543 52.7089 128.305 52.6386C128.068 52.5683 127.816 52.604 127.602 52.7383Z" fill="#302061"/>
<path d="M352.14 100.897C352.026 100.949 334.505 100.949 334.619 101C328.323 90.4565 325.883 81.5451 325.075 75.0231C324.898 73.5297 325.035 72.0153 325.478 70.5794C325.921 69.1435 326.66 67.8186 327.645 66.6919C328.631 65.5651 329.841 64.662 331.197 64.0419C332.552 63.4217 334.022 63.0986 335.51 63.0937L351.369 63.0003C352.756 62.9906 354.131 63.2573 355.416 63.7853C356.701 64.3132 357.871 65.0919 358.858 66.077C359.845 67.0621 360.631 68.2341 361.17 69.5263C361.709 70.8184 361.991 72.2052 361.999 73.6075C362.035 81.5336 360.281 92.3997 352.14 100.897Z" fill="#302061"/>
<path d="M342.579 65.1061C343.366 57.9546 343.048 50.7048 341.641 43.6738C341.406 42.4938 339.788 42.9932 340.023 44.1734C341.386 51.0429 341.682 58.1238 340.901 65.1061C340.768 66.3034 342.447 66.2926 342.579 65.1061Z" fill="#302061"/>
<path d="M345.36 65.1234C345.891 59.3359 347.761 53.6692 350.881 48.3933C351.509 47.3337 349.478 46.4057 348.846 47.4727C345.544 53.0367 343.565 59.0159 343.004 65.1234C342.896 66.2948 345.253 66.2896 345.36 65.1234Z" fill="#302061"/>
<path d="M339.996 65.1181C339.477 58.5872 337.66 52.2357 334.657 46.4574C334.114 45.414 332.571 46.3414 333.114 47.3852C335.973 52.8757 337.707 58.9109 338.21 65.1181C338.304 66.2888 340.091 66.2991 339.996 65.1181Z" fill="#302061"/>
<path d="M333.26 45.4241C332.262 45.0899 332.149 43.6926 331.917 42.8895C331.757 42.2728 331.5 41.6809 331.154 41.1325C330.757 40.5861 330.303 40.0759 329.799 39.6089C329.387 39.2625 329.052 38.8455 328.814 38.3815C328.741 38.2037 328.72 38.0111 328.755 37.8237C328.788 37.743 328.813 37.6596 328.828 37.5747L328.841 37.5471C328.896 37.449 328.813 37.4634 328.592 37.5902C328.592 37.6023 329.015 37.8173 329.06 37.848C330.268 38.7158 331.192 39.8728 331.731 41.1916C332.269 42.5104 332.4 43.9399 332.111 45.3228C331.884 46.3316 333.57 46.763 333.798 45.7498C334.179 44.0254 334.019 42.2372 333.337 40.593C332.654 38.9488 331.477 37.516 329.943 36.4612C329.547 36.1603 329.047 35.997 328.533 36C328.225 36.0307 327.933 36.1438 327.695 36.3253C327.456 36.5068 327.281 36.7488 327.192 37.021C327.042 37.3891 326.979 37.7819 327.006 38.1739C327.033 38.566 327.15 38.9484 327.349 39.2962C328.076 40.6261 329.581 41.3893 330.084 42.8529C330.643 44.4776 330.795 46.3035 332.795 46.9727C333.018 47.0274 333.256 46.9992 333.458 46.8943C333.659 46.7894 333.807 46.6162 333.871 46.4118C333.928 46.2066 333.896 45.9892 333.782 45.8051C333.668 45.6209 333.481 45.4844 333.26 45.4241Z" fill="#302061"/>
<path d="M341.155 44.1126C339.971 43.7053 339.857 42.1824 339.537 41.2019C338.949 39.7379 338.07 38.3943 336.949 37.2435C336.497 36.7801 336.175 36.2166 336.013 35.6046C335.994 35.487 335.991 35.3677 336.003 35.2494C336.015 35.1357 336.116 34.9599 336.099 34.8565L336.113 34.8239C336.176 34.7084 336.081 34.7253 335.829 34.8748C335.887 34.895 335.944 34.9189 335.998 34.9461C336.149 35.0682 336.339 35.1595 336.497 35.2786C337.764 36.2453 338.742 37.5089 339.336 38.9444C340.015 40.5457 340.191 42.2991 339.844 43.9933C339.585 45.1828 341.51 45.6915 341.769 44.4967C342.194 42.5103 342.03 40.4511 341.295 38.5478C340.561 36.6445 339.284 34.9716 337.608 33.7149C337.203 33.3776 336.717 33.1403 336.192 33.0243C335.842 32.9661 335.482 33.013 335.161 33.1585C334.841 33.3039 334.576 33.5406 334.404 33.8356C334.167 34.2625 334.031 34.7332 334.005 35.215C333.979 35.6968 334.063 36.1782 334.253 36.6259C334.959 38.3454 336.707 39.4378 337.411 41.1475C337.785 42.0529 337.94 43.0223 338.346 43.9172C338.552 44.3889 338.861 44.8134 339.254 45.1621C339.647 45.5108 340.114 45.7757 340.624 45.9388C341.834 46.3551 342.356 44.5256 341.155 44.1126Z" fill="#302061"/>
<path d="M350.236 47.6268C349.463 46.325 350.544 44.7803 350.993 43.5316C351.476 42.1874 351.404 40.7822 351.749 39.4187C351.844 38.8631 352.152 38.3564 352.62 37.9891C352.747 37.9014 353.149 37.8021 352.832 37.761C352.6 37.7309 352.713 37.767 352.775 37.9701C352.867 38.2808 352.93 38.598 352.963 38.9183C353.115 40.3261 352.896 41.7466 352.324 43.0619C351.714 44.4942 350.685 45.7471 349.349 46.6849C349.126 46.8121 348.964 47.0121 348.898 47.244C348.831 47.4759 348.864 47.7223 348.99 47.9328C349.125 48.1405 349.345 48.2913 349.601 48.3525C349.858 48.4137 350.13 48.3806 350.36 48.2601C351.981 47.1521 353.255 45.677 354.055 43.9816C354.856 42.2862 355.155 40.4294 354.924 38.5958C354.795 37.6782 354.609 36.4522 353.504 36.0925C352.422 35.7404 351.323 36.4547 350.681 37.2077C349.483 38.6137 349.706 40.4455 349.341 42.0958C348.853 44.3084 347.167 46.2914 348.507 48.5475C349.12 49.5806 350.85 48.6606 350.236 47.6268Z" fill="#302061"/>
<path d="M341.966 37.6287C341.263 36.2429 341.956 34.6878 342.306 33.2975C342.52 31.9196 342.807 30.5559 343.165 29.2128C343.333 28.708 343.639 28.2695 344.043 27.9545C344.123 27.8993 344.207 27.8503 344.294 27.8078C344.285 27.7462 344.037 27.7692 344.046 27.7486C344.069 27.8771 344.104 28.003 344.148 28.1247C344.216 28.4411 344.263 28.7623 344.288 29.0859C344.387 30.4406 344.198 31.8019 343.734 33.0659C343.217 34.4975 342.346 35.7499 341.215 36.6872C341.026 36.8144 340.89 37.0143 340.833 37.2461C340.777 37.4779 340.805 37.7242 340.911 37.9347C341.026 38.1422 341.212 38.2929 341.429 38.3541C341.646 38.4153 341.877 38.3821 342.071 38.2617C343.433 37.163 344.506 35.7023 345.185 34.0229C345.864 32.3436 346.126 30.5032 345.944 28.6825C345.845 27.8127 345.725 26.6739 344.935 26.1917C344.068 25.6628 343.073 26.3243 342.476 27.0124C341.328 28.3353 341.193 30.1771 340.878 31.866C340.455 34.1352 339.365 36.3068 340.502 38.549C341.025 39.5795 342.489 38.6603 341.966 37.6287Z" fill="#302061"/>
<path d="M347.686 54.7604C348.33 53.7189 349.636 53.6141 350.742 53.4183C351.435 53.3068 352.116 53.1329 352.776 52.8988C353.494 52.6328 354.184 52.2973 354.908 52.0493C355.513 51.7804 356.191 51.7209 356.833 51.8805C356.869 51.8929 357.274 52.1142 357.29 52.106C357.348 52.0754 357.192 51.8716 357.205 51.8713C357.197 51.8714 357.134 51.9634 357.12 51.9726C356.847 52.16 356.619 52.4311 356.346 52.6275C355.227 53.4257 353.932 53.9473 352.569 54.149C351.06 54.383 349.514 54.1988 348.103 53.6166C347.896 53.5049 347.654 53.4759 347.426 53.5352C347.199 53.5946 347.002 53.738 346.877 53.9362C346.758 54.1407 346.726 54.3832 346.786 54.6113C346.846 54.8394 346.994 55.0348 347.198 55.1552C348.908 55.8876 350.784 56.1508 352.631 55.9174C354.479 55.684 356.229 54.9625 357.7 53.8281C358.43 53.2566 359.24 52.4942 358.933 51.4759C358.649 50.5323 357.463 50.1154 356.578 50.0217C354.648 49.8172 352.95 51.1166 351.133 51.53C349.237 51.9616 347.266 52.0364 346.138 53.8609C345.532 54.8405 347.082 55.7367 347.686 54.7604Z" fill="#302061"/>
<path d="M342.565 43.5898C341.813 41.8901 341.729 39.9816 342.327 38.2254C342.926 36.4692 344.166 34.9872 345.812 34.06C345.887 34.018 345.962 33.9775 346.039 33.9386C346.18 33.9151 346.202 33.8831 346.103 33.8425C346.261 33.326 346.042 33.7313 345.984 33.8625C345.809 34.2597 345.631 34.6558 345.451 35.0508C345.048 35.9333 344.635 36.811 344.211 37.6841C343.337 39.4839 342.424 41.2671 341.424 43.0042C340.817 44.0597 342.484 45.0073 343.092 43.9517C344.059 42.2696 344.946 40.5442 345.795 38.8028C346.21 37.9508 346.615 37.0942 347.01 36.2331C347.184 35.855 347.355 35.476 347.524 35.096C347.761 34.6902 347.922 34.2466 348 33.7861C348 33.5351 347.945 33.287 347.84 33.0579C347.734 32.8289 347.581 32.6239 347.388 32.4564C347.196 32.2889 346.97 32.1627 346.724 32.0859C346.478 32.009 346.219 31.9833 345.962 32.0105C345.012 32.2502 344.143 32.7267 343.44 33.3929C342.018 34.5467 340.968 36.0738 340.415 37.792C339.727 40.0227 339.899 42.4207 340.898 44.5373C341.028 44.751 341.24 44.9061 341.487 44.9691C341.734 45.0321 341.997 44.998 342.219 44.874C342.435 44.7442 342.592 44.5385 342.656 44.2993C342.721 44.0602 342.688 43.8061 342.565 43.5898Z" fill="#302061"/>
<path d="M336.602 52.7383C335.265 53.4165 333.634 52.1227 332.437 51.5672C331.099 50.9462 329.667 50.8858 328.302 50.3913C327.789 50.2335 327.34 49.8793 327.032 49.389C326.99 49.2894 326.941 49.1938 326.886 49.1031C326.933 49.1157 326.685 49.2892 326.792 49.2645C326.887 49.2424 326.982 49.2158 327.079 49.1966C327.424 49.134 327.773 49.1019 328.123 49.1007C329.616 49.0771 331.09 49.4787 332.41 50.2683C333.73 51.0579 334.853 52.2103 335.676 53.6194C336.322 54.7551 337.934 53.7009 337.283 52.557C336.256 50.7679 334.832 49.3145 333.153 48.3419C331.474 47.3693 329.599 46.9115 327.715 47.0141C326.782 47.0817 325.641 47.1985 325.161 48.2527C324.672 49.3295 325.385 50.6472 326.096 51.364C327.459 52.7396 329.342 52.6661 331.003 53.2164C332.11 53.5835 333.108 54.2655 334.197 54.6886C335.284 55.1457 336.486 55.098 337.541 54.5558C337.753 54.4135 337.907 54.1827 337.969 53.9132C338.032 53.6437 337.998 53.3573 337.875 53.1158C337.747 52.8798 337.543 52.7089 337.305 52.6386C337.068 52.5683 336.816 52.6041 336.602 52.7383Z" fill="#302061"/>
<path d="M239.867 58.3457C245.156 41.8286 243.711 24.0456 235.817 8.47962C235.269 7.39506 233.56 8.34159 234.106 9.42224C239.969 21.1306 242.163 34.1737 240.429 47.0172C239.926 50.6864 239.099 54.3097 237.957 57.8492C237.897 58.0848 237.937 58.3328 238.068 58.5412C238.199 58.7496 238.41 58.902 238.658 58.9664C238.905 59.0307 239.17 59.002 239.396 58.8862C239.621 58.7705 239.79 58.5767 239.867 58.3457Z" fill="#302061"/>
<path d="M242.623 37.4958L255.836 20.3416L254.119 19.8844C254.356 25.7222 253.463 31.5511 251.486 37.0609C249.778 41.8065 246.827 47.9972 240.889 48.1879C239.706 48.2259 239.701 50.0375 240.889 49.9994C247.208 49.7965 250.687 44.0899 252.739 38.9262C255.129 32.8632 256.226 26.3818 255.961 19.8845C255.955 19.6888 255.885 19.5004 255.761 19.3469C255.638 19.1934 255.467 19.083 255.275 19.0318C255.083 18.9806 254.879 18.9914 254.694 19.0626C254.508 19.1338 254.351 19.2617 254.245 19.4273L241.032 36.5816C240.317 37.5109 241.915 38.4144 242.623 37.4958Z" fill="#302061"/>
<path d="M240.794 29.6476L233.689 18.4272C233.602 18.2793 233.478 18.1612 233.331 18.0869C233.185 18.0125 233.021 17.9851 232.861 18.0077C232.7 18.0304 232.548 18.1023 232.424 18.2148C232.3 18.3273 232.209 18.4758 232.16 18.6427C230.668 22.8616 230.613 27.5153 232.007 31.7736C233.4 36.0319 236.15 39.6178 239.766 41.8917C239.957 42.0029 240.18 42.0297 240.389 41.9664C240.598 41.9032 240.776 41.7549 240.886 41.5528C240.995 41.3508 241.028 41.1107 240.976 40.8833C240.925 40.6559 240.793 40.4589 240.61 40.334C237.312 38.2599 234.81 34.9819 233.556 31.0919C232.302 27.2019 232.379 22.9564 233.773 19.1223L232.245 19.3377L239.35 30.5581C239.953 31.511 241.403 30.6096 240.794 29.6476Z" fill="#302061"/>
<path d="M395 101H0V102H395V101Z" fill="#302061"/>
</svg>
