<svg width="1440" height="257" viewBox="0 0 1440 257" fill="none" xmlns="http://www.w3.org/2000/svg">
<path d="M814.732 240.015L814.725 240.035L814.721 240.056C814.318 242.312 814.004 244.186 813.743 245.739C813.416 247.692 813.173 249.138 812.945 250.201C812.74 251.157 812.553 251.768 812.341 252.148C812.238 252.334 812.134 252.454 812.03 252.531C811.928 252.606 811.813 252.65 811.672 252.666C811.372 252.701 810.975 252.615 810.382 252.448C810.258 252.413 810.125 252.375 809.986 252.334C809.479 252.188 808.873 252.012 808.153 251.851C806.306 251.438 803.703 251.117 799.944 251.559C798.093 251.777 796.563 251.487 795.373 250.759C794.186 250.031 793.311 248.851 792.8 247.236C791.772 243.994 792.22 239.036 794.518 232.693C796.817 226.346 799.679 220.848 802.666 217.2C804.16 215.376 805.675 214.027 807.155 213.261C808.629 212.497 810.057 212.317 811.405 212.805C812.759 213.295 813.938 214.427 814.873 216.078C815.808 217.729 816.489 219.881 816.851 222.376C817.576 227.366 817.024 233.69 814.732 240.015Z" fill="url(#paint0_linear_304_386)" stroke="black" stroke-width="0.5"/>
<line x1="810.856" y1="213.902" x2="803.068" y2="249.924" stroke="#5DB001" stroke-linecap="round"/>
<path d="M777.387 229.264L777.391 229.279L777.397 229.294C779.96 235.648 781.386 240.194 781.939 243.426C782.494 246.672 782.156 248.527 781.287 249.572C780.421 250.613 778.96 250.931 777.032 250.914C775.807 250.903 774.442 250.759 772.98 250.604C772.142 250.516 771.271 250.424 770.377 250.352C769.456 250.277 768.62 250.245 767.857 250.215L767.753 250.211C766.96 250.18 766.253 250.15 765.606 250.078C764.317 249.935 763.288 249.626 762.353 248.823C761.41 248.013 760.538 246.681 759.614 244.437C758.691 242.195 757.726 239.068 756.584 234.693C754.302 225.95 753.015 217.775 753.028 211.604C753.035 208.516 753.367 205.948 754.052 204.065C754.737 202.181 755.757 201.027 757.114 200.673C758.482 200.316 760.14 200.784 761.963 202.024C763.779 203.26 765.72 205.239 767.629 207.823C771.447 212.99 775.109 220.536 777.387 229.264Z" fill="url(#paint1_linear_304_386)" stroke="black" stroke-width="0.5"/>
<line x1="755.123" y1="208.029" x2="759.195" y2="209.658" stroke="#5DB001" stroke-linecap="round"/>
<line x1="755.079" y1="216.944" x2="762.109" y2="218.701" stroke="#5DB001" stroke-linecap="round"/>
<line x1="756.061" y1="225.915" x2="765.081" y2="227.719" stroke="#5DB001" stroke-linecap="round"/>
<line x1="757.061" y1="233.915" x2="766.081" y2="235.719" stroke="#5DB001" stroke-linecap="round"/>
<line x1="762.061" y1="240.915" x2="771.081" y2="242.719" stroke="#5DB001" stroke-linecap="round"/>
<line x1="757.111" y1="202.612" x2="773.778" y2="249.669" stroke="#5DB001" stroke-linecap="round"/>
<line x1="760.334" y1="209.614" x2="763.78" y2="204.446" stroke="#5DB001" stroke-linecap="round"/>
<line x1="764.357" y1="220.61" x2="768.776" y2="214.424" stroke="#5DB001" stroke-linecap="round"/>
<line x1="767.302" y1="229.621" x2="772.787" y2="220.479" stroke="#5DB001" stroke-linecap="round"/>
<line x1="771.334" y1="240.614" x2="776.78" y2="232.446" stroke="#5DB001" stroke-linecap="round"/>
<line x1="773.334" y1="247.614" x2="778.78" y2="239.446" stroke="#5DB001" stroke-linecap="round"/>
<path d="M795.645 235.015L795.645 235.036L795.648 235.057C796.563 240.123 796.62 243.631 796.055 246.047C795.495 248.447 794.325 249.762 792.761 250.475C791.175 251.198 789.156 251.316 786.876 251.243C785.965 251.214 785.02 251.156 784.05 251.095C783.809 251.08 783.566 251.065 783.322 251.05C782.099 250.976 780.843 250.91 779.585 250.91C777.711 250.91 776.478 250.755 775.659 250.344C774.871 249.948 774.438 249.298 774.213 248.198C773.984 247.08 773.977 245.536 774.025 243.398C774.035 242.958 774.047 242.494 774.06 242.004C774.108 240.126 774.167 237.874 774.145 235.186C774.091 228.437 774.86 222.286 776.391 217.826C777.157 215.596 778.107 213.804 779.228 212.571C780.344 211.342 781.62 210.676 783.053 210.664C784.494 210.653 785.993 211.303 787.445 212.526C788.895 213.747 790.283 215.528 791.491 217.741C793.908 222.166 795.591 228.287 795.645 235.015Z" fill="url(#paint2_linear_304_386)" stroke="black" stroke-width="0.5"/>
<line x1="776.059" y1="244.911" x2="785.465" y2="246.722" stroke="#5DB001" stroke-linecap="round"/>
<path d="M778.145 217.088L782.866 219.488M804.973 216.307L808.473 221.807" stroke="#5DB001" stroke-linecap="round"/>
<line x1="775.691" y1="224.797" x2="782.721" y2="226.554" stroke="#5DB001" stroke-linecap="round"/>
<line x1="800.173" y1="223.207" x2="807.373" y2="228.607" stroke="#5DB001" stroke-linecap="round"/>
<line x1="775.673" y1="230.768" x2="784.693" y2="232.572" stroke="#5DB001" stroke-linecap="round"/>
<line x1="798.153" y1="230.113" x2="806.279" y2="234.627" stroke="#5DB001" stroke-linecap="round"/>
<line x1="775.673" y1="237.768" x2="784.693" y2="239.572" stroke="#5DB001" stroke-linecap="round"/>
<line x1="797.133" y1="237.054" x2="805.219" y2="240.647" stroke="#5DB001" stroke-linecap="round"/>
<line x1="797.13" y1="245.045" x2="803.211" y2="247.651" stroke="#5DB001" stroke-linecap="round"/>
<line x1="782.622" y1="211.621" x2="785.545" y2="249.624" stroke="#5DB001" stroke-linecap="round"/>
<line x1="784.085" y1="219.453" x2="788.378" y2="215.16" stroke="#5DB001" stroke-linecap="round"/>
<line x1="809.697" y1="221.637" x2="814.802" y2="219.084" stroke="#5DB001" stroke-linecap="round"/>
<line x1="784.132" y1="226.455" x2="791.379" y2="220.113" stroke="#5DB001" stroke-linecap="round"/>
<line x1="807.727" y1="228.647" x2="815.813" y2="225.054" stroke="#5DB001" stroke-linecap="round"/>
<line x1="785.224" y1="232.467" x2="793.392" y2="227.022" stroke="#5DB001" stroke-linecap="round"/>
<line x1="806.808" y1="234.685" x2="815.851" y2="231.972" stroke="#5DB001" stroke-linecap="round"/>
<line x1="785.364" y1="239.51" x2="794.435" y2="235.882" stroke="#5DB001" stroke-linecap="round"/>
<line x1="805.853" y1="240.711" x2="813.877" y2="238.928" stroke="#5DB001" stroke-linecap="round"/>
<line x1="785.331" y1="246.497" x2="792.81" y2="243.062" stroke="#5DB001" stroke-linecap="round"/>
<line x1="803.853" y1="247.711" x2="811.877" y2="245.928" stroke="#5DB001" stroke-linecap="round"/>
<path d="M182.084 196.011C180.808 194.151 178.249 193.644 176.007 193.887C173.765 194.13 171.61 194.954 169.361 195.118C167.508 195.253 165.651 194.935 163.793 194.924C161.376 194.91 158.958 195.423 156.755 196.416C149.54 199.67 145.435 207.797 145.038 215.702C144.642 223.607 147.359 231.336 150.643 238.537C152.541 242.699 154.901 247.035 158.993 249.079C162.247 250.703 166.059 250.6 169.693 250.459C175.102 250.251 180.511 250.042 185.92 249.834L193.743 249.532C197.464 249.388 201.22 249.24 204.821 248.296C213.181 246.105 220.21 239.403 222.795 231.157C225.449 222.69 223.491 213.268 219.154 205.527C216.499 200.787 212.64 196.308 207.403 194.865C204.586 194.088 201.607 194.256 198.69 194.429C193.375 194.745 188.061 195.061 182.746 195.377" fill="#ED6948"/>
<path d="M180.735 199.603C180.735 199.603 171.342 202.054 177.06 202.054C182.777 202.054 189.611 202.054 189.461 200.829C189.312 199.603 179.51 180 178.285 180C177.06 180 170.117 181.225 172.976 184.084C175.834 186.943 180.735 199.603 180.735 199.603Z" fill="#3F3D56"/>
<path d="M183.013 247.791C173.746 240.995 178.679 206.717 178.894 205.262L179.502 205.351C179.45 205.704 174.407 240.717 183.377 247.295L183.013 247.791Z" fill="#3F3D56"/>
<path d="M166.782 244.767C159.57 231.304 162.405 220.54 166.053 213.881C170 206.677 175.735 202.596 175.793 202.555L176.146 203.058C176.09 203.098 170.457 207.111 166.581 214.198C163.014 220.719 160.248 231.267 167.324 244.476L166.782 244.767Z" fill="#3F3D56"/>
<path d="M197.284 247.641L196.701 247.444C203.453 227.375 188.468 203.518 188.316 203.28L188.835 202.949C188.873 203.009 192.712 209.073 195.654 217.56C198.374 225.408 200.865 236.996 197.284 247.641Z" fill="#3F3D56"/>
<path d="M214.902 243.498L214.289 243.463C215.335 225.03 209.836 214.613 205.039 209.12C199.859 203.19 194.388 201.581 194.333 201.565L194.501 200.974C194.732 201.039 200.204 202.65 205.502 208.716C210.375 214.295 215.961 224.857 214.902 243.498Z" fill="#3F3D56"/>
<path d="M151.994 227.469C150.409 220.194 151.305 214.092 154.657 209.332C160.178 201.491 170.598 200.056 170.703 200.042L170.782 200.652C170.68 200.665 160.519 202.071 155.157 209.69C151.91 214.303 151.048 220.241 152.595 227.338L151.994 227.469Z" fill="#3F3D56"/>
<path d="M175.245 199.712C175.134 199.67 164.061 195.52 158.835 199.665L158.453 199.184C163.953 194.821 174.997 198.959 175.464 199.137L175.245 199.712Z" fill="#3F3D56"/>
<path d="M185.194 198.825C185.192 198.783 185.042 194.621 189.771 193.16L189.953 193.747C185.691 195.064 185.801 198.644 185.808 198.795L185.194 198.825Z" fill="#3F3D56"/>
<path d="M190.109 201.453L189.615 201.086C189.671 201.011 195.322 193.559 203.434 196.367L203.233 196.948C195.551 194.288 190.162 201.381 190.109 201.453Z" fill="#3F3D56"/>
<path d="M760.732 240.015L760.725 240.035L760.721 240.056C760.318 242.312 760.004 244.186 759.743 245.739C759.416 247.692 759.173 249.138 758.945 250.201C758.74 251.157 758.553 251.768 758.341 252.148C758.238 252.334 758.134 252.454 758.03 252.531C757.928 252.606 757.813 252.65 757.672 252.666C757.372 252.701 756.975 252.615 756.382 252.448C756.258 252.413 756.125 252.375 755.986 252.334C755.479 252.188 754.873 252.012 754.153 251.851C752.306 251.438 749.703 251.117 745.944 251.559C744.093 251.777 742.563 251.487 741.373 250.759C740.186 250.031 739.311 248.851 738.8 247.236C737.772 243.994 738.22 239.036 740.518 232.693C742.817 226.346 745.679 220.848 748.666 217.2C750.16 215.376 751.675 214.027 753.155 213.261C754.629 212.497 756.057 212.317 757.405 212.805C758.759 213.295 759.938 214.427 760.873 216.078C761.808 217.729 762.489 219.881 762.851 222.376C763.576 227.366 763.024 233.69 760.732 240.015Z" fill="url(#paint3_linear_304_386)" stroke="black" stroke-width="0.5"/>
<line x1="756.856" y1="213.902" x2="749.068" y2="249.924" stroke="#5DB001" stroke-linecap="round"/>
<path d="M723.387 229.264L723.391 229.279L723.397 229.294C725.96 235.648 727.386 240.194 727.939 243.426C728.494 246.672 728.156 248.527 727.287 249.572C726.421 250.613 724.96 250.931 723.032 250.914C721.807 250.903 720.442 250.759 718.98 250.604C718.142 250.516 717.271 250.424 716.377 250.352C715.456 250.277 714.62 250.245 713.857 250.215L713.753 250.211C712.96 250.18 712.253 250.15 711.606 250.078C710.317 249.935 709.288 249.626 708.353 248.823C707.41 248.013 706.538 246.681 705.614 244.437C704.691 242.195 703.726 239.068 702.584 234.693C700.302 225.95 699.015 217.775 699.028 211.604C699.035 208.516 699.367 205.948 700.052 204.065C700.737 202.181 701.757 201.027 703.114 200.673C704.482 200.316 706.14 200.784 707.963 202.024C709.779 203.26 711.72 205.239 713.629 207.823C717.447 212.99 721.109 220.536 723.387 229.264Z" fill="url(#paint4_linear_304_386)" stroke="black" stroke-width="0.5"/>
<line x1="701.123" y1="208.029" x2="705.195" y2="209.658" stroke="#5DB001" stroke-linecap="round"/>
<line x1="701.079" y1="216.944" x2="708.109" y2="218.701" stroke="#5DB001" stroke-linecap="round"/>
<line x1="702.061" y1="225.915" x2="711.081" y2="227.719" stroke="#5DB001" stroke-linecap="round"/>
<line x1="703.061" y1="233.915" x2="712.081" y2="235.719" stroke="#5DB001" stroke-linecap="round"/>
<line x1="708.061" y1="240.915" x2="717.081" y2="242.719" stroke="#5DB001" stroke-linecap="round"/>
<line x1="703.111" y1="202.612" x2="719.778" y2="249.669" stroke="#5DB001" stroke-linecap="round"/>
<line x1="706.334" y1="209.614" x2="709.78" y2="204.446" stroke="#5DB001" stroke-linecap="round"/>
<line x1="710.357" y1="220.61" x2="714.776" y2="214.424" stroke="#5DB001" stroke-linecap="round"/>
<line x1="713.302" y1="229.621" x2="718.787" y2="220.479" stroke="#5DB001" stroke-linecap="round"/>
<line x1="717.334" y1="240.614" x2="722.78" y2="232.446" stroke="#5DB001" stroke-linecap="round"/>
<line x1="719.334" y1="247.614" x2="724.78" y2="239.446" stroke="#5DB001" stroke-linecap="round"/>
<path d="M741.645 235.015L741.645 235.036L741.648 235.057C742.563 240.123 742.62 243.631 742.055 246.047C741.495 248.447 740.325 249.762 738.761 250.475C737.175 251.198 735.156 251.316 732.876 251.243C731.965 251.214 731.02 251.156 730.05 251.095C729.809 251.08 729.566 251.065 729.322 251.05C728.099 250.976 726.843 250.91 725.585 250.91C723.711 250.91 722.478 250.755 721.659 250.344C720.871 249.948 720.438 249.298 720.213 248.198C719.984 247.08 719.977 245.536 720.025 243.398C720.035 242.958 720.047 242.494 720.06 242.004C720.108 240.126 720.167 237.874 720.145 235.186C720.091 228.437 720.86 222.286 722.391 217.826C723.157 215.596 724.107 213.804 725.228 212.571C726.344 211.342 727.62 210.676 729.053 210.664C730.494 210.653 731.993 211.303 733.445 212.526C734.895 213.747 736.283 215.528 737.491 217.741C739.908 222.166 741.591 228.287 741.645 235.015Z" fill="url(#paint5_linear_304_386)" stroke="black" stroke-width="0.5"/>
<line x1="722.059" y1="244.911" x2="731.465" y2="246.722" stroke="#5DB001" stroke-linecap="round"/>
<path d="M724.145 217.088L728.866 219.488M750.973 216.307L754.473 221.807" stroke="#5DB001" stroke-linecap="round"/>
<line x1="721.691" y1="224.797" x2="728.721" y2="226.554" stroke="#5DB001" stroke-linecap="round"/>
<line x1="746.173" y1="223.207" x2="753.373" y2="228.607" stroke="#5DB001" stroke-linecap="round"/>
<line x1="721.673" y1="230.768" x2="730.693" y2="232.572" stroke="#5DB001" stroke-linecap="round"/>
<line x1="744.153" y1="230.113" x2="752.279" y2="234.627" stroke="#5DB001" stroke-linecap="round"/>
<line x1="721.673" y1="237.768" x2="730.693" y2="239.572" stroke="#5DB001" stroke-linecap="round"/>
<line x1="743.133" y1="237.054" x2="751.219" y2="240.647" stroke="#5DB001" stroke-linecap="round"/>
<line x1="743.13" y1="245.045" x2="749.211" y2="247.651" stroke="#5DB001" stroke-linecap="round"/>
<line x1="728.622" y1="211.621" x2="731.545" y2="249.624" stroke="#5DB001" stroke-linecap="round"/>
<line x1="730.085" y1="219.453" x2="734.378" y2="215.16" stroke="#5DB001" stroke-linecap="round"/>
<line x1="755.697" y1="221.637" x2="760.802" y2="219.084" stroke="#5DB001" stroke-linecap="round"/>
<line x1="730.132" y1="226.455" x2="737.379" y2="220.113" stroke="#5DB001" stroke-linecap="round"/>
<line x1="753.727" y1="228.647" x2="761.813" y2="225.054" stroke="#5DB001" stroke-linecap="round"/>
<line x1="731.224" y1="232.467" x2="739.392" y2="227.022" stroke="#5DB001" stroke-linecap="round"/>
<line x1="752.808" y1="234.685" x2="761.851" y2="231.972" stroke="#5DB001" stroke-linecap="round"/>
<line x1="731.364" y1="239.51" x2="740.435" y2="235.882" stroke="#5DB001" stroke-linecap="round"/>
<line x1="751.853" y1="240.711" x2="759.877" y2="238.928" stroke="#5DB001" stroke-linecap="round"/>
<line x1="731.331" y1="246.497" x2="738.81" y2="243.062" stroke="#5DB001" stroke-linecap="round"/>
<line x1="749.853" y1="247.711" x2="757.877" y2="245.928" stroke="#5DB001" stroke-linecap="round"/>
<path d="M1194.64 243.94C1194.64 243.94 1225.85 241.912 1227.75 180.653C1229.66 119.394 1196.87 109.763 1196.87 109.763C1196.87 109.763 1186.36 104.229 1181.91 104.092C1177.45 103.955 1162.08 105.743 1162.08 105.743L1178.85 102.113C1178.85 102.113 1154.92 93.6174 1147.82 93.0512L1173.58 97.8993C1173.58 97.8993 1173.61 83.6816 1167.37 79.1187C1167.37 79.1187 1172.59 78.6145 1175.62 88.7855C1176.48 91.7205 1178.01 94.4142 1180.09 96.6505C1182.18 98.8868 1184.75 100.603 1187.62 101.662C1197.21 105.155 1210.49 110.716 1213.6 115.662C1213.6 115.662 1219.26 121.321 1218.07 106.285C1216.89 91.2493 1212.56 78.4215 1211.07 78.0991C1211.07 78.0991 1199.49 66.326 1183.59 65.9589C1183.59 65.9589 1192.77 62.0112 1208.68 73.345C1208.68 73.345 1209.87 67.3821 1203.82 60.5589C1197.78 53.7358 1188.33 39.2877 1178.3 37.8824C1178.3 37.8824 1192.25 36.7206 1203.73 54.5359C1203.73 54.5359 1207.88 57.0982 1208.09 50.3413C1208.42 45.1978 1209.23 40.0967 1210.51 35.1048C1210.51 35.1048 1214.23 50.5583 1207.29 57.7053C1207.29 57.7053 1221.28 75.1075 1221.14 94.9818C1221.14 94.9818 1225.56 103.919 1226.87 93.2789C1226.87 93.2789 1227.45 78.678 1228.99 66.2514C1229.61 61.2465 1229.18 56.1681 1227.75 51.3336C1226.32 46.4992 1223.9 42.0127 1220.65 38.1548C1217.6 34.4693 1215.39 30.854 1216.52 28.9437L1232.7 47.3797C1232.7 47.3797 1245.27 16.3756 1254.72 9.58752C1264.16 2.79941 1265.37 1.2731 1265.37 1.2731L1250.26 19.8095L1269.6 12.5004L1250.31 21.975C1250.31 21.975 1241.45 29.5217 1236.73 49.7519C1232.01 69.9821 1231.81 82.5119 1231.81 82.5119C1231.81 82.5119 1259.12 59.8407 1264.43 60.4476L1246.74 74.4716C1241.93 78.2853 1238 83.0869 1235.2 88.5522C1232.41 94.0174 1230.82 100.019 1230.55 106.151C1230.55 106.151 1265.13 96.4638 1273.51 94.5821L1289.03 77.9063L1277.35 93.6642L1302.13 92.7467L1316.1 82.3092C1316.1 82.3092 1305.12 91.9518 1306.21 92.5206C1307.31 93.0894 1323.7 93.4602 1323.7 93.4602C1323.7 93.4602 1282.04 94.1514 1277.55 97.2658C1273.05 100.38 1262.81 101.695 1262.81 101.695L1292.4 105.477L1257.21 103.737C1257.21 103.737 1230.72 109.16 1229.45 117.499C1229.45 117.499 1235.2 131.512 1238.93 137.037C1242 141.642 1248.41 156.589 1249.91 169.808C1251.41 183.026 1253.63 203.336 1249.27 215.827C1244.91 228.317 1243.46 235.414 1245.87 239.099C1248.28 242.784 1250.51 247.556 1243.12 248.689C1235.73 249.821 1202.9 249.11 1202.9 249.11C1202.9 249.11 1192.88 251.311 1194.64 243.94Z" fill="#690C0B"/>
<path d="M1205.61 240.12C1205.57 242.623 1205.15 245.105 1204.36 247.479L1201.02 247.471C1201.52 244.352 1202.73 240.433 1205.61 240.12Z" fill="#FEC35D"/>
<path d="M1197.83 243.227C1197.83 243.227 1198.26 234.261 1202.71 232.661C1202.71 232.661 1203.12 241.251 1198.53 245.332L1197.83 243.227Z" fill="#FEC35D"/>
<path d="M1195.14 235.729C1195.14 235.729 1196.23 226.565 1199.19 225.537C1199.19 225.537 1199.98 234.036 1195.82 236.993L1195.14 235.729Z" fill="#FEC35D"/>
<path d="M1192.76 228.713C1192.76 228.713 1192.35 219.208 1195.14 217.627C1195.14 217.627 1196.78 225.037 1193.25 229.295L1192.76 228.713Z" fill="#FEC35D"/>
<path d="M1189.02 219.699C1189.02 219.699 1189.22 211.971 1191.35 210.21C1191.35 210.21 1193.22 218.721 1190.07 221.28L1189.02 219.699Z" fill="#FEC35D"/>
<path d="M1186.36 213.843L1182.4 201.43C1182.4 201.43 1189.59 209.619 1187.32 215.959L1186.36 213.843Z" fill="#FEC35D"/>
<path d="M1179.35 202.369C1179.35 202.369 1173.51 194.132 1172.58 193.843C1172.58 193.843 1180.67 197.981 1182.19 205.799L1179.35 202.369Z" fill="#FEC35D"/>
<path d="M1196.38 247.455L1191.47 247.445L1190.84 247.443C1190.82 247.427 1190.81 247.411 1190.79 247.395C1190.03 246.68 1189.61 246.19 1189.61 246.19C1191.49 244.844 1194.14 245.942 1196.38 247.455Z" fill="#FEC35D"/>
<path d="M1198.02 242.672C1198.02 242.672 1191.22 236.808 1186.99 238.942C1186.99 238.942 1192.95 245.149 1199.07 244.624L1198.02 242.672Z" fill="#FEC35D"/>
<path d="M1195.6 235.428C1195.6 235.428 1189.63 228.387 1186.6 229.16C1186.6 229.16 1190.62 236.689 1195.73 236.853L1195.6 235.428Z" fill="#FEC35D"/>
<path d="M1192.86 228.495C1192.86 228.495 1186.45 221.464 1183.35 222.314C1183.35 222.314 1187.42 228.721 1192.92 229.252L1192.86 228.495Z" fill="#FEC35D"/>
<path d="M1189.82 220.023C1189.82 220.023 1184.84 214.117 1182.07 214.062C1182.07 214.062 1185.92 221.884 1189.98 221.917L1189.82 220.023Z" fill="#FEC35D"/>
<path d="M1185.93 213.711L1176.1 205.152C1176.1 205.152 1180.77 215.002 1187.49 215.427L1185.93 213.711Z" fill="#FEC35D"/>
<path d="M1178.01 203.655C1178.01 203.655 1168.46 200.373 1167.92 199.561C1167.92 199.561 1174.17 206.153 1182.1 205.405L1178.01 203.655Z" fill="#FEC35D"/>
<path d="M1176.84 201.306C1176.84 201.306 1165.18 195.048 1162.83 195.714C1162.83 195.714 1170.51 193.94 1176.92 200.774L1176.84 201.306Z" fill="#FEC35D"/>
<path d="M1190.09 221.359L1189.77 221.495C1184.26 208.467 1179.5 201.187 1176.38 200.997L1176.4 200.645C1179.71 200.848 1184.44 208.01 1190.09 221.359Z" fill="#444053"/>
<path d="M1189.68 220.392L1189.89 220.886L1190.05 221.252C1190.06 221.289 1190.08 221.324 1190.09 221.359C1190.93 223.368 1191.82 225.567 1192.74 227.919C1192.92 228.364 1193.09 228.815 1193.27 229.272C1193.93 230.99 1194.61 232.782 1195.3 234.631C1195.39 234.89 1195.49 235.154 1195.59 235.414L1195.6 235.458C1195.76 235.898 1195.92 236.335 1196.09 236.789C1196.7 238.486 1197.32 240.224 1197.94 242.005C1198.12 242.493 1198.29 242.994 1198.46 243.494C1198.59 243.874 1198.72 244.258 1198.85 244.643C1198.89 244.739 1198.92 244.835 1198.95 244.932C1199.24 245.77 1199.52 246.614 1199.8 247.465L1199.25 247.468C1199.02 246.751 1198.78 246.038 1198.54 245.33C1198.47 245.107 1198.4 244.882 1198.32 244.664C1198.16 244.2 1198 243.739 1197.84 243.279L1197.83 243.238C1197.72 242.911 1197.61 242.585 1197.5 242.259C1196.87 240.416 1196.24 238.613 1195.62 236.861L1195.39 236.219C1195.31 236 1195.23 235.783 1195.16 235.567C1195.03 235.215 1194.91 234.879 1194.79 234.538C1194.13 232.712 1193.48 230.947 1192.84 229.255C1192.67 228.819 1192.51 228.389 1192.34 227.964C1191.52 225.814 1190.71 223.792 1189.94 221.924C1189.8 221.583 1189.65 221.245 1189.52 220.918C1189.5 220.899 1189.5 220.87 1189.49 220.847L1189.59 220.593L1189.68 220.392Z" fill="#444053"/>
<path d="M1209.3 244.786L1212.72 247.493L1211.03 247.492C1210.4 246.625 1209.82 245.722 1209.3 244.786Z" fill="#FEC35D"/>
<path d="M1211.25 242.264C1211.25 242.264 1205.6 233.893 1205.66 232.92C1205.66 232.92 1206.68 241.945 1213.46 246.123L1211.25 242.264Z" fill="#FEC35D"/>
<path d="M1219.86 247.507L1217.72 247.503L1215 240.208C1215 240.208 1218.15 243.467 1219.86 247.507Z" fill="#FEC35D"/>
<path d="M1212.93 241.464C1212.93 241.464 1213.23 231.373 1212.66 230.582C1212.66 230.582 1216.62 238.756 1213.12 245.906L1212.93 241.464Z" fill="#FEC35D"/>
<path d="M1211.15 239.53C1211.15 239.53 1209.41 226.412 1210.86 224.456C1210.86 224.456 1206.5 231.007 1210.62 239.425L1211.15 239.53Z" fill="#FEC35D"/>
<path d="M1211.02 239C1210.97 239.16 1210.94 239.324 1210.92 239.491C1210.81 240.77 1211.55 242.612 1213.08 244.947C1213.18 245.094 1213.27 245.227 1213.37 245.371C1213.83 246.041 1214.35 246.751 1214.93 247.501L1214.47 247.503C1214.11 247.03 1213.77 246.574 1213.46 246.132C1213.37 246.007 1213.28 245.882 1213.19 245.759L1213.11 245.634C1212.31 244.507 1211.63 243.298 1211.08 242.028C1210.67 240.983 1210.49 240.096 1210.58 239.367C1210.6 239.21 1210.63 239.054 1210.68 238.903L1211.02 239Z" fill="#444053"/>
<path d="M1232.07 247.251L1232.07 247.537L1232.02 247.536C1232.03 247.439 1232.05 247.342 1232.07 247.251Z" fill="#FEC35D"/>
<path d="M1232.1 232.948L1232.08 240.476C1231.61 241.652 1230.94 242.72 1230 243.487C1229.91 243.562 1229.81 243.633 1229.72 243.7L1229.64 243.541L1229.3 242.92L1229.05 242.445L1229.07 242.27C1229.09 242.147 1229.11 241.964 1229.15 241.73L1229.21 241.347C1229.54 239.251 1230.43 234.773 1232.1 232.948Z" fill="#FEC35D"/>
<path d="M1226.67 235.413C1226.67 235.413 1226.26 225.909 1229.05 224.328C1229.05 224.328 1230.69 231.739 1227.16 235.997L1226.67 235.413Z" fill="#FEC35D"/>
<path d="M1222.93 226.406C1222.93 226.406 1223.13 218.678 1225.26 216.916C1225.26 216.916 1227.13 225.427 1223.98 227.987L1222.93 226.406Z" fill="#FEC35D"/>
<path d="M1220.27 220.545L1216.31 208.133C1216.31 208.133 1223.5 216.323 1221.22 222.662L1220.27 220.545Z" fill="#FEC35D"/>
<path d="M1213.26 209.071C1213.26 209.071 1207.42 200.833 1206.5 200.544C1206.5 200.544 1214.58 204.683 1216.1 212.499L1213.26 209.071Z" fill="#FEC35D"/>
<path d="M1229.4 247.529L1223.02 247.51C1222.28 246.933 1221.57 246.308 1220.9 245.639C1223.49 244.339 1227.03 246.023 1229.4 247.529Z" fill="#FEC35D"/>
<path d="M1229.51 242.129C1229.51 242.129 1223.54 235.089 1220.51 235.861C1220.51 235.861 1224.53 243.391 1229.64 243.553L1229.51 242.129Z" fill="#FEC35D"/>
<path d="M1226.77 235.2C1226.77 235.2 1220.36 228.17 1217.26 229.02C1217.26 229.02 1221.33 235.427 1226.84 235.957L1226.77 235.2Z" fill="#FEC35D"/>
<path d="M1223.73 226.723C1223.73 226.723 1218.75 220.816 1215.98 220.763C1215.98 220.763 1219.83 228.584 1223.89 228.617L1223.73 226.723Z" fill="#FEC35D"/>
<path d="M1219.84 220.411L1210.01 211.853C1210.01 211.853 1214.68 221.703 1221.4 222.128L1219.84 220.411Z" fill="#FEC35D"/>
<path d="M1211.92 210.357C1211.92 210.357 1202.37 207.074 1201.83 206.264C1201.83 206.264 1208.08 212.856 1216.01 212.108L1211.92 210.357Z" fill="#FEC35D"/>
<path d="M1210.75 208.007C1210.75 208.007 1199.09 201.75 1196.74 202.416C1196.74 202.416 1204.41 200.64 1210.83 207.476L1210.75 208.007Z" fill="#FEC35D"/>
<path d="M1224 228.059L1223.68 228.197C1218.17 215.168 1213.41 207.888 1210.29 207.697L1210.31 207.347C1213.62 207.549 1218.35 214.712 1224 228.059Z" fill="#444053"/>
<path d="M1223.6 227.098C1223.67 227.266 1223.74 227.428 1223.8 227.594C1223.85 227.712 1223.9 227.831 1223.96 227.953C1223.97 227.988 1223.98 228.024 1224 228.059C1224.84 230.067 1225.73 232.267 1226.65 234.619C1226.82 235.064 1227 235.514 1227.18 235.971C1227.84 237.687 1228.52 239.48 1229.2 241.33C1229.3 241.589 1229.4 241.853 1229.49 242.112L1229.51 242.149C1229.67 242.591 1229.83 243.035 1229.99 243.484C1230.48 244.807 1230.96 246.155 1231.44 247.527L1230.92 247.533C1230.45 246.182 1229.99 244.855 1229.53 243.553L1229.3 242.911C1229.22 242.692 1229.14 242.475 1229.06 242.259C1228.94 241.907 1228.82 241.571 1228.7 241.23C1228.04 239.403 1227.39 237.641 1226.74 235.944C1226.58 235.511 1226.41 235.078 1226.25 234.659C1225.43 232.507 1224.63 230.486 1223.85 228.617C1223.71 228.278 1223.57 227.955 1223.44 227.633C1223.42 227.602 1223.41 227.571 1223.4 227.541L1223.51 227.288L1223.6 227.098Z" fill="#444053"/>
<path d="M1243.49 246.837C1243.49 246.837 1247.68 238.613 1250.81 238.668C1250.81 238.668 1248.62 246.92 1243.69 248.259L1243.49 246.837Z" fill="#FEC35D"/>
<path d="M1243.7 239.421C1243.7 239.421 1246.59 230.357 1249.76 229.837C1249.76 229.837 1248.74 237.358 1243.95 240.137L1243.7 239.421Z" fill="#FEC35D"/>
<path d="M1243.29 229.675C1243.29 229.675 1246.14 222.495 1248.75 221.572C1248.75 221.572 1247.56 230.203 1243.73 231.519L1243.29 229.675Z" fill="#FEC35D"/>
<path d="M1242.82 223.256L1243.39 210.241C1243.39 210.241 1247.3 220.408 1242.98 225.573L1242.82 223.256Z" fill="#FEC35D"/>
<path d="M1240.21 210.068C1240.21 210.068 1237.57 200.322 1236.8 199.728C1236.8 199.728 1242.95 206.405 1241.68 214.265L1240.21 210.068Z" fill="#FEC35D"/>
<path d="M1244.04 246.704C1244.04 246.704 1240.86 238.035 1237.76 237.716C1237.76 237.716 1238.94 246.17 1243.67 248.093L1244.04 246.704Z" fill="#FEC35D"/>
<path d="M1243.86 239.251C1243.86 239.251 1240.27 230.441 1237.07 230.169C1237.07 230.169 1238.67 237.588 1243.66 239.986L1243.86 239.251Z" fill="#FEC35D"/>
<path d="M1243.93 230.249C1243.93 230.249 1241.29 222.983 1238.72 221.979C1238.72 221.979 1239.63 230.652 1243.43 232.081L1243.93 230.249Z" fill="#FEC35D"/>
<path d="M1242.46 222.981L1236.19 211.559C1236.19 211.559 1237.17 222.413 1243.33 225.133L1242.46 222.981Z" fill="#FEC35D"/>
<path d="M1238.5 210.811C1238.5 210.811 1230.67 204.436 1230.45 203.489C1230.45 203.489 1234.04 211.836 1241.74 213.867L1238.5 210.811Z" fill="#FEC35D"/>
<path d="M1238.21 208.202C1238.21 208.202 1229.43 198.305 1227 198.121C1227 198.121 1234.81 199.103 1238.48 207.732L1238.21 208.202Z" fill="#FEC35D"/>
<path d="M1243.73 231.598L1243.38 231.615C1242.7 217.483 1240.76 209.01 1237.89 207.753L1238.03 207.432C1241.06 208.762 1243.03 217.119 1243.73 231.598Z" fill="#444053"/>
<path d="M1243.94 238.678C1243.95 239.154 1243.96 239.636 1243.98 240.123C1244 241.964 1244.02 243.879 1244.03 245.852C1244.03 246.13 1244.03 246.407 1244.03 246.686C1244.03 246.7 1244.03 246.713 1244.03 246.727C1244.03 247.195 1244.03 247.669 1244.03 248.147C1244.02 248.626 1244.02 249.123 1244.02 249.638C1243.86 249.593 1243.7 249.544 1243.55 249.494C1243.56 249.01 1243.56 248.527 1243.57 248.047C1243.56 247.821 1243.57 247.596 1243.58 247.371C1243.58 247.146 1243.58 246.902 1243.58 246.668C1243.59 246.303 1243.59 245.94 1243.59 245.578C1243.6 243.636 1243.6 241.753 1243.58 239.945C1243.57 239.477 1243.57 239.018 1243.57 238.567C1243.54 236.264 1243.48 234.088 1243.4 232.064C1243.38 231.689 1243.37 231.319 1243.35 230.955C1243.35 230.936 1243.35 230.918 1243.35 230.899L1243.54 230.698L1243.68 230.548C1243.68 230.723 1243.69 230.898 1243.71 231.086C1243.71 231.216 1243.71 231.346 1243.71 231.477C1243.72 231.518 1243.72 231.556 1243.72 231.597C1243.82 233.775 1243.89 236.151 1243.94 238.678Z" fill="#444053"/>
<path d="M1174.05 246.733L1174.06 246.815C1174.07 246.92 1174.09 247.124 1174.1 247.41L1173.25 247.408L1173.11 247.408C1173.37 247.111 1173.69 246.88 1174.05 246.733Z" fill="#FEC35D"/>
<path d="M1169.82 238.918C1169.82 238.918 1170.91 243.374 1169.79 247.396L1167.64 247.39C1167.66 244.454 1168.01 239.998 1169.82 238.918Z" fill="#FEC35D"/>
<path d="M1163.74 241.141C1163.74 241.141 1163.76 233.414 1165.85 231.599C1165.85 231.599 1167.91 240.072 1164.83 242.696L1163.74 241.141Z" fill="#FEC35D"/>
<path d="M1160.95 235.343L1156.7 223.031C1156.7 223.031 1164.08 231.044 1161.95 237.439L1160.95 235.343Z" fill="#FEC35D"/>
<path d="M1153.67 224.04C1153.67 224.04 1147.64 215.944 1146.7 215.68C1146.7 215.68 1154.89 219.627 1156.59 227.404L1153.67 224.04Z" fill="#FEC35D"/>
<path d="M1165.18 247.385L1161.26 247.376C1160.09 246.334 1159.04 245.162 1158.14 243.884C1159.96 243.339 1162.99 245.514 1165.18 247.385Z" fill="#FEC35D"/>
<path d="M1164.55 241.439C1164.55 241.439 1159.43 235.65 1156.67 235.662C1156.67 235.662 1160.71 243.391 1164.76 243.326L1164.55 241.439Z" fill="#FEC35D"/>
<path d="M1160.51 235.221L1150.49 226.902C1150.49 226.902 1155.39 236.637 1162.12 236.901L1160.51 235.221Z" fill="#FEC35D"/>
<path d="M1152.36 225.357C1152.36 225.357 1142.74 222.302 1142.18 221.504C1142.18 221.504 1148.58 227.946 1156.49 227.011L1152.36 225.357Z" fill="#FEC35D"/>
<path d="M1151.13 223.038C1151.13 223.038 1139.33 217.058 1137 217.78C1137 217.78 1144.63 215.823 1151.21 222.504L1151.13 223.038Z" fill="#FEC35D"/>
<path d="M1164.86 242.768L1164.54 242.912C1158.72 230.018 1153.79 222.853 1150.67 222.736L1150.68 222.385C1153.99 222.51 1158.89 229.558 1164.86 242.768Z" fill="#444053"/>
<path d="M1164.43 241.812C1164.5 241.977 1164.58 242.143 1164.65 242.301C1164.7 242.419 1164.76 242.538 1164.81 242.66C1164.82 242.696 1164.84 242.731 1164.86 242.765C1165.5 244.211 1166.18 245.755 1166.87 247.386L1166.47 247.385C1165.88 245.964 1165.29 244.61 1164.72 243.325C1164.6 243.049 1164.48 242.78 1164.36 242.514C1164.33 242.453 1164.31 242.391 1164.28 242.33C1164.26 242.311 1164.26 242.282 1164.25 242.26L1164.35 242.003L1164.43 241.812Z" fill="#444053"/>
<path d="M1181.4 245.481C1181.4 245.481 1174.2 242.685 1171.75 243.966C1171.75 243.966 1178.88 248.979 1182.46 247.061L1181.4 245.481Z" fill="#FEC35D"/>
<path d="M1177.02 240.767L1167.1 232.323C1167.1 232.323 1171.88 242.116 1178.61 242.466L1177.02 240.767Z" fill="#FEC35D"/>
<path d="M1169.14 229.874C1169.14 229.874 1163.79 221.305 1163.89 220.337C1163.89 220.337 1164.59 229.394 1171.21 233.811L1169.14 229.874Z" fill="#FEC35D"/>
<path d="M1191.06 246.901C1191.06 246.901 1191.22 247.093 1191.47 247.444L1190.84 247.443L1190.77 247.442C1190.78 247.428 1190.78 247.413 1190.79 247.399C1190.86 247.221 1190.95 247.054 1191.06 246.901Z" fill="#FEC35D"/>
<path d="M1186 241.264C1186 241.264 1187.93 244.029 1188.73 247.438L1186.17 247.427C1185.47 245.054 1185.06 242.468 1186 241.264Z" fill="#FEC35D"/>
<path d="M1181.39 246.342C1181.39 246.342 1177.86 239.467 1178.88 236.896C1178.88 236.896 1184.6 243.472 1183.07 247.225L1181.39 246.342Z" fill="#FEC35D"/>
<path d="M1177.07 240.316L1172.96 227.949C1172.96 227.949 1180.25 236.054 1178.04 242.42L1177.07 240.316Z" fill="#FEC35D"/>
<path d="M1170.85 229.133C1170.85 229.133 1171.51 219.058 1170.97 218.248C1170.97 218.248 1174.64 226.557 1170.89 233.579L1170.85 229.133Z" fill="#FEC35D"/>
<path d="M1169.14 227.141C1169.14 227.141 1167.87 213.97 1169.39 212.067C1169.39 212.067 1164.79 218.457 1168.61 227.018L1169.14 227.141Z" fill="#FEC35D"/>
<path d="M1182.52 247.119L1182.77 246.873C1172.87 236.756 1168 229.552 1169.03 226.601L1168.7 226.482C1167.6 229.614 1172.38 236.746 1182.52 247.119Z" fill="#444053"/>
<path d="M1183.08 247.187C1183.16 247.267 1183.24 247.347 1183.32 247.426L1182.82 247.425C1182.72 247.32 1182.62 247.215 1182.52 247.113C1182.49 247.084 1182.47 247.056 1182.44 247.033C1182.34 246.938 1182.25 246.844 1182.16 246.75C1182.06 246.649 1181.97 246.55 1181.87 246.451C1181.84 246.42 1181.82 246.391 1181.79 246.361L1182 246.359L1182.27 246.358C1182.28 246.368 1182.29 246.378 1182.3 246.387C1182.31 246.396 1182.32 246.406 1182.32 246.417C1182.43 246.522 1182.53 246.629 1182.64 246.736C1182.66 246.76 1182.68 246.783 1182.7 246.807C1182.82 246.929 1182.95 247.056 1183.08 247.187Z" fill="#444053"/>
<path d="M1198.69 245.512C1198.69 245.512 1180.39 245.153 1177.65 209.378C1174.91 173.603 1193.84 167.101 1193.84 167.101C1193.84 167.101 1199.83 163.586 1202.48 163.387C1205.12 163.188 1214.12 163.827 1214.12 163.827L1204.2 162.149C1204.2 162.149 1217.97 156.546 1222.12 156.035L1207.19 159.545C1207.19 159.545 1206.78 151.231 1210.31 148.397C1210.31 148.397 1207.24 148.241 1205.75 154.269C1205.32 156.007 1204.5 157.622 1203.34 158.985C1202.18 160.348 1200.72 161.421 1199.07 162.118C1193.55 164.415 1185.94 168.019 1184.25 170.993C1184.25 170.993 1181.08 174.453 1181.38 165.629C1181.67 156.804 1183.83 149.205 1184.66 148.978C1184.66 148.978 1191.13 141.786 1200.42 141.149C1200.42 141.149 1194.95 139.084 1185.94 146.134C1185.94 146.134 1185.08 142.678 1188.45 138.528C1191.81 134.377 1196.97 125.642 1202.8 124.589C1202.8 124.589 1194.61 124.288 1188.37 135.002C1188.37 135.002 1186.01 136.611 1185.71 132.664C1185.37 129.666 1184.76 126.705 1183.88 123.818C1183.88 123.818 1182.12 132.963 1186.37 136.95C1186.37 136.95 1178.64 147.498 1179.26 159.117C1179.26 159.117 1176.91 164.461 1175.85 158.282C1175.85 158.282 1175.13 149.75 1173.9 142.523C1173.41 139.613 1173.52 136.632 1174.23 133.767C1174.94 130.902 1176.23 128.214 1178.03 125.871C1179.71 123.643 1180.91 121.462 1180.21 120.374L1171.23 131.585C1171.23 131.585 1163.08 113.786 1157.35 110.032C1151.62 106.279 1150.9 105.452 1150.9 105.452L1160.23 115.892L1148.73 112.139L1160.26 117.16C1160.26 117.16 1165.65 121.382 1168.94 133.044C1172.23 144.707 1172.68 152.073 1172.68 152.073C1172.68 152.073 1156.11 139.547 1153.02 140.034L1163.73 147.766C1166.65 149.869 1169.08 152.572 1170.86 155.695C1172.64 158.817 1173.73 162.285 1174.05 165.864C1174.05 165.864 1153.57 161.115 1148.62 160.237L1139.1 150.896L1146.35 159.758L1131.83 159.879L1123.38 154.145C1123.38 154.145 1130.06 159.493 1129.44 159.864C1128.81 160.234 1119.24 160.868 1119.24 160.868C1119.24 160.868 1143.61 160.177 1146.33 161.879C1149.05 163.581 1155.06 164.079 1155.06 164.079L1137.86 167.075L1158.4 165.124C1158.4 165.124 1174.04 167.593 1174.99 172.437C1174.99 172.437 1172.01 180.793 1169.97 184.123C1168.29 186.889 1164.95 195.8 1164.42 203.57C1163.88 211.341 1163.18 223.276 1166.01 230.466C1168.85 237.656 1169.94 241.802 1168.65 244.02C1167.36 246.239 1166.16 249.081 1170.51 249.547C1174.86 250.013 1194.03 248.728 1194.03 248.728C1194.03 248.728 1199.92 249.802 1198.69 245.512Z" fill="#690C0B"/>
<path d="M479.341 188.824L479.049 188.83L480.366 248.678L480.658 248.671L479.341 188.824Z" fill="#ADEC28"/>
<path d="M479.745 215.262C479.73 215.211 478.279 210.089 481.325 205.202L481.573 205.357C478.596 210.133 480.011 215.13 480.025 215.18L479.745 215.262Z" fill="#ADEC28"/>
<path d="M481.398 205.48C481.398 205.48 480.458 199.054 489.12 197.29C490.924 196.923 492.62 196.672 494.175 196.505C496.011 196.307 496.727 198.82 495.069 199.631C492.667 200.807 490.408 202.288 489.231 204.041C485.984 208.878 481.398 205.48 481.398 205.48Z" fill="#3CA023"/>
<path d="M480.255 233.846L479.975 233.764C479.989 233.714 481.401 228.712 478.427 223.941L478.675 223.786C481.721 228.672 480.27 233.795 480.255 233.846Z" fill="#A2DE28"/>
<path d="M478.602 224.064C478.602 224.064 479.542 217.638 470.88 215.874C469.076 215.506 467.38 215.255 465.825 215.088C463.989 214.891 463.273 217.403 464.931 218.215C467.333 219.39 469.592 220.871 470.769 222.625C474.016 227.461 478.602 224.064 478.602 224.064Z" fill="#3CA023"/>
<path d="M490.657 180.51C492.4 180.05 494.031 179.249 493.976 178.457C493.912 177.516 491.492 176.885 489.404 176.789C490.979 175.557 492.426 173.853 491.983 173.083C491.576 172.375 489.684 172.649 487.937 173.273C488.971 171.795 489.697 170.131 489.144 169.561C488.455 168.851 486.009 170.076 484.339 171.43C484.664 169.321 484.5 166.658 483.554 166.417C482.762 166.216 481.64 167.764 480.871 169.452C480.531 167.681 479.843 166 479.049 166C477.918 166 477 169.411 477 171.634C477 171.759 477.004 171.877 477.009 171.99C476.896 171.859 476.766 171.721 476.617 171.577C475.023 170.029 471.937 168.31 471.149 169.122C470.595 169.692 471.322 171.356 472.355 172.834C470.609 172.21 468.716 171.936 468.309 172.644C467.763 173.596 470.1 175.971 471.999 177.123C471.885 177.11 471.765 177.098 471.637 177.089C469.42 176.938 465.954 177.621 465.877 178.75C465.823 179.542 467.454 180.343 469.197 180.803C467.461 181.455 465.84 182.469 465.987 183.272C466.165 184.247 468.89 184.589 471.033 184.389C469.432 185.925 467.697 188.675 468.421 189.482C468.952 190.073 470.662 189.461 472.206 188.531C471.465 190.23 471.063 192.1 471.742 192.554C472.639 193.154 475.099 191.065 476.397 189.268C476.264 191.467 476.791 194.488 477.835 194.607C478.624 194.697 479.498 193.105 480.037 191.384C480.609 193.148 481.548 194.814 482.358 194.704C483.41 194.56 483.869 191.464 483.672 189.263C485.011 190.987 487.263 192.83 488.112 192.261C488.791 191.807 488.389 189.938 487.647 188.238C489.192 189.168 490.902 189.78 491.433 189.189C492.157 188.383 490.422 185.632 488.821 184.096C490.964 184.296 493.688 183.955 493.867 182.98C494.014 182.176 492.393 181.162 490.657 180.51ZM481.269 186.73C480.821 186.791 480.411 186.878 480.1 187.101C479.769 186.772 479.285 186.672 478.748 186.611C478.146 186.542 477.599 186.536 477.181 186.883C477.029 186.459 476.653 186.157 476.216 185.865C475.84 185.613 475.476 185.407 475.095 185.367C475.065 184.902 474.769 184.506 474.408 184.103C474.177 183.847 473.946 183.617 473.69 183.464C474.06 183.014 474.017 182.446 473.903 181.822C473.821 181.377 473.716 180.972 473.479 180.671C473.792 180.325 473.87 179.837 473.907 179.297C473.947 178.708 473.93 178.173 473.59 177.776C474.469 177.887 474.893 177.34 475.288 176.653C475.513 176.261 475.694 175.883 475.708 175.5C476.171 175.439 476.545 175.117 476.922 174.729C477.244 174.397 477.518 174.069 477.621 173.691C477.99 174.001 478.493 174.048 479.049 174.048C479.59 174.048 480.082 174.003 480.448 173.714C480.732 173.971 481.13 174.105 481.568 174.216C481.986 174.323 482.381 174.394 482.74 174.322C482.871 174.622 483.104 174.894 483.371 175.168C483.748 175.556 484.122 175.878 484.585 175.939C484.598 176.322 484.78 176.7 485.005 177.092C485.27 177.554 485.549 177.953 485.97 178.131C485.921 178.399 485.926 178.694 485.947 179.005C485.984 179.545 486.062 180.032 486.375 180.378C486.138 180.679 486.032 181.084 485.951 181.529C485.837 182.153 485.794 182.721 486.163 183.171C485.907 183.325 485.677 183.554 485.446 183.811C485.084 184.213 484.789 184.609 484.759 185.074C484.378 185.114 484.013 185.321 483.638 185.572C483.124 185.916 482.696 186.272 482.614 186.824C482.229 186.637 481.768 186.662 481.269 186.73Z" fill="#FEC054"/>
<path d="M480.073 187.803C484.114 187.803 487.39 184.527 487.39 180.486C487.39 176.446 484.114 173.17 480.073 173.17C476.032 173.17 472.757 176.446 472.757 180.486C472.757 184.527 476.032 187.803 480.073 187.803Z" fill="#3F3D56"/>
<path d="M504.15 217.125L503.995 217.129L504.694 248.923L504.85 248.919L504.15 217.125Z" fill="#ADEC28"/>
<path d="M504.364 231.171C504.356 231.143 503.585 228.422 505.204 225.826L505.336 225.908C503.754 228.446 504.506 231.1 504.513 231.127L504.364 231.171Z" fill="#ADEC28"/>
<path d="M505.243 225.974C505.243 225.974 504.743 222.56 509.345 221.623C510.303 221.428 511.205 221.294 512.031 221.205C513.006 221.101 513.386 222.435 512.505 222.867C511.23 223.491 510.03 224.278 509.404 225.209C507.679 227.779 505.243 225.974 505.243 225.974Z" fill="#3CA023"/>
<path d="M504.636 241.043L504.487 240.999C504.494 240.973 505.245 238.316 503.664 235.781L503.796 235.699C505.414 238.294 504.644 241.016 504.636 241.043Z" fill="#A2DE28"/>
<path d="M503.757 235.847C503.757 235.847 504.257 232.433 499.655 231.496C498.697 231.3 497.795 231.167 496.969 231.078C495.994 230.973 495.614 232.308 496.495 232.739C497.77 233.364 498.971 234.15 499.596 235.082C501.321 237.651 503.757 235.847 503.757 235.847Z" fill="#3CA023"/>
<path d="M510.161 212.708C511.088 212.464 511.954 212.039 511.925 211.618C511.891 211.118 510.605 210.783 509.496 210.732C510.332 210.077 511.101 209.172 510.866 208.763C510.65 208.387 509.644 208.532 508.717 208.864C509.266 208.079 509.652 207.194 509.358 206.892C508.992 206.515 507.692 207.165 506.805 207.885C506.978 206.764 506.891 205.35 506.388 205.222C505.967 205.115 505.371 205.937 504.963 206.834C504.782 205.893 504.417 205 503.995 205C503.394 205 502.906 206.812 502.906 207.993C502.906 208.06 502.908 208.122 502.911 208.182C502.851 208.112 502.782 208.039 502.703 207.963C501.856 207.14 500.216 206.227 499.798 206.658C499.504 206.961 499.89 207.846 500.439 208.631C499.511 208.299 498.506 208.153 498.289 208.53C497.999 209.035 499.24 210.297 500.249 210.909C500.189 210.902 500.125 210.896 500.057 210.891C498.879 210.811 497.038 211.174 496.997 211.773C496.969 212.194 497.835 212.62 498.761 212.864C497.839 213.211 496.977 213.749 497.055 214.176C497.15 214.694 498.598 214.875 499.736 214.769C498.886 215.585 497.964 217.046 498.349 217.475C498.63 217.789 499.539 217.464 500.36 216.969C499.966 217.872 499.752 218.866 500.113 219.107C500.589 219.426 501.896 218.316 502.586 217.361C502.515 218.529 502.795 220.134 503.35 220.197C503.769 220.245 504.233 219.399 504.519 218.485C504.824 219.422 505.322 220.308 505.752 220.249C506.311 220.173 506.555 218.528 506.451 217.359C507.162 218.274 508.358 219.253 508.81 218.951C509.17 218.71 508.956 217.717 508.563 216.814C509.383 217.308 510.292 217.633 510.574 217.319C510.959 216.891 510.037 215.429 509.186 214.614C510.324 214.72 511.772 214.538 511.867 214.02C511.945 213.594 511.084 213.055 510.161 212.708ZM505.174 216.013C504.936 216.045 504.719 216.091 504.553 216.21C504.377 216.035 504.12 215.982 503.835 215.95C503.515 215.913 503.224 215.91 503.003 216.094C502.922 215.869 502.722 215.709 502.49 215.553C502.29 215.42 502.096 215.31 501.894 215.289C501.878 215.041 501.721 214.831 501.529 214.617C501.407 214.481 501.284 214.359 501.148 214.278C501.344 214.039 501.322 213.737 501.261 213.405C501.218 213.169 501.161 212.954 501.035 212.794C501.202 212.61 501.243 212.351 501.263 212.064C501.284 211.751 501.275 211.467 501.095 211.256C501.562 211.315 501.787 211.024 501.997 210.659C502.116 210.451 502.213 210.25 502.22 210.047C502.466 210.014 502.665 209.843 502.865 209.637C503.036 209.461 503.181 209.287 503.236 209.086C503.432 209.251 503.7 209.275 503.995 209.275C504.282 209.275 504.543 209.252 504.738 209.098C504.889 209.235 505.1 209.306 505.333 209.365C505.555 209.421 505.765 209.459 505.956 209.421C506.025 209.58 506.149 209.725 506.291 209.87C506.491 210.077 506.69 210.248 506.936 210.28C506.943 210.484 507.039 210.684 507.159 210.893C507.3 211.138 507.448 211.35 507.671 211.445C507.645 211.587 507.648 211.744 507.659 211.909C507.679 212.196 507.72 212.455 507.887 212.638C507.761 212.798 507.705 213.014 507.661 213.25C507.601 213.581 507.578 213.883 507.774 214.122C507.638 214.204 507.516 214.326 507.393 214.462C507.201 214.676 507.044 214.886 507.028 215.133C506.826 215.154 506.632 215.264 506.432 215.398C506.16 215.58 505.932 215.769 505.889 216.063C505.684 215.964 505.439 215.976 505.174 216.013Z" fill="#FEC054"/>
<path d="M504.539 216.583C506.686 216.583 508.426 214.842 508.426 212.696C508.426 210.549 506.686 208.809 504.539 208.809C502.392 208.809 500.652 210.549 500.652 212.696C500.652 214.842 502.392 216.583 504.539 216.583Z" fill="#3F3D56"/>
<path d="M137.409 213.19C136.57 211.966 134.885 211.632 133.41 211.792C131.934 211.952 130.516 212.494 129.035 212.602C127.815 212.691 126.593 212.482 125.37 212.475C123.779 212.466 122.188 212.803 120.738 213.457C115.988 215.598 113.286 220.948 113.025 226.151C112.765 231.354 114.553 236.442 116.715 241.182C117.964 243.921 119.517 246.775 122.211 248.121C124.352 249.19 126.862 249.122 129.254 249.03C132.814 248.892 136.374 248.755 139.935 248.618C141.651 248.551 143.368 248.485 145.084 248.419C147.533 248.324 150.005 248.227 152.376 247.605C157.878 246.164 162.505 241.752 164.207 236.324C165.954 230.751 164.665 224.549 161.81 219.454C160.063 216.334 157.523 213.385 154.076 212.436C152.221 211.925 150.26 212.035 148.34 212.149C144.842 212.357 141.344 212.565 137.845 212.773" fill="#ED6948"/>
<path d="M136.522 214.037C136.522 214.037 130.339 215.65 134.103 215.65C137.866 215.65 142.364 215.65 142.266 214.843C142.167 214.037 135.716 201.133 134.909 201.133C134.103 201.133 129.533 201.94 131.414 203.822C133.296 205.703 136.522 214.037 136.522 214.037Z" fill="#3F3D56"/>
<path d="M138.021 245.755C131.922 241.282 135.169 218.719 135.31 217.761L135.71 217.82C135.676 218.053 132.357 241.099 138.261 245.429L138.021 245.755Z" fill="#3F3D56"/>
<path d="M127.338 243.765C122.59 234.903 124.456 227.818 126.858 223.435C129.456 218.693 133.231 216.006 133.269 215.98L133.501 216.311C133.464 216.337 129.757 218.978 127.205 223.643C124.857 227.936 123.036 234.878 127.694 243.573C127.694 243.573 127.338 243.765 127.338 243.765Z" fill="#3F3D56"/>
<path d="M147.415 245.656L147.031 245.527C151.476 232.317 141.612 216.613 141.512 216.457L141.853 216.239C141.879 216.278 144.406 220.27 146.342 225.857C148.132 231.022 149.772 238.65 147.415 245.656Z" fill="#3F3D56"/>
<path d="M159.012 242.929L158.608 242.906C159.297 230.773 155.677 223.916 152.519 220.301C149.11 216.398 145.509 215.338 145.473 215.328L145.583 214.939C145.735 214.982 149.337 216.042 152.824 220.035C156.032 223.707 159.709 230.66 159.012 242.929Z" fill="#3F3D56"/>
<path d="M117.604 232.379C116.56 227.59 117.15 223.573 119.356 220.44C122.991 215.279 129.85 214.335 129.919 214.326L129.971 214.727C129.904 214.736 123.215 215.661 119.685 220.676C117.549 223.712 116.981 227.621 118 232.293L117.604 232.379Z" fill="#3F3D56"/>
<path d="M132.908 214.108C132.835 214.08 125.546 211.349 122.106 214.078L121.855 213.761C125.476 210.889 132.745 213.613 133.052 213.73L132.908 214.108Z" fill="#3F3D56"/>
<path d="M139.457 213.524C139.455 213.497 139.357 210.757 142.47 209.795L142.589 210.182C139.784 211.049 139.856 213.405 139.861 213.505C139.861 213.505 139.457 213.524 139.457 213.524Z" fill="#3F3D56"/>
<path d="M142.692 215.254L142.367 215.013C142.404 214.963 146.124 210.058 151.463 211.906L151.331 212.289C146.274 210.538 142.727 215.207 142.692 215.254Z" fill="#3F3D56"/>
<defs>
<linearGradient id="paint0_linear_304_386" x1="808.714" y1="213.405" x2="807.714" y2="252.778" gradientUnits="userSpaceOnUse">
<stop stop-color="#B7F329"/>
<stop offset="0.970519" stop-color="#208D22"/>
</linearGradient>
<linearGradient id="paint1_linear_304_386" x1="755.385" y1="203.258" x2="787.078" y2="242.842" gradientUnits="userSpaceOnUse">
<stop stop-color="#B7F329"/>
<stop offset="0.970519" stop-color="#208D22"/>
</linearGradient>
<linearGradient id="paint2_linear_304_386" x1="780.74" y1="212.163" x2="793.507" y2="249.422" gradientUnits="userSpaceOnUse">
<stop stop-color="#B7F329"/>
<stop offset="0.970519" stop-color="#208D22"/>
</linearGradient>
<linearGradient id="paint3_linear_304_386" x1="754.714" y1="213.405" x2="753.714" y2="252.778" gradientUnits="userSpaceOnUse">
<stop stop-color="#B7F329"/>
<stop offset="0.970519" stop-color="#208D22"/>
</linearGradient>
<linearGradient id="paint4_linear_304_386" x1="701.385" y1="203.258" x2="733.078" y2="242.842" gradientUnits="userSpaceOnUse">
<stop stop-color="#B7F329"/>
<stop offset="0.970519" stop-color="#208D22"/>
</linearGradient>
<linearGradient id="paint5_linear_304_386" x1="726.74" y1="212.163" x2="739.507" y2="249.422" gradientUnits="userSpaceOnUse">
<stop stop-color="#B7F329"/>
<stop offset="0.970519" stop-color="#208D22"/>
</linearGradient>
</defs>
</svg>
