<svg width="1215" height="257" viewBox="0 0 1215 257" fill="none" xmlns="http://www.w3.org/2000/svg">
<path d="M701.732 240.015L701.725 240.035L701.721 240.056C701.318 242.312 701.004 244.186 700.743 245.739C700.416 247.692 700.173 249.138 699.945 250.201C699.74 251.157 699.553 251.768 699.341 252.148C699.238 252.334 699.134 252.454 699.03 252.531C698.928 252.606 698.813 252.65 698.672 252.666C698.372 252.701 697.975 252.615 697.382 252.448C697.258 252.413 697.125 252.375 696.986 252.334C696.479 252.188 695.873 252.012 695.153 251.851C693.306 251.438 690.703 251.117 686.944 251.559C685.093 251.777 683.563 251.487 682.373 250.759C681.186 250.031 680.311 248.851 679.8 247.236C678.772 243.994 679.22 239.036 681.518 232.692C683.817 226.346 686.679 220.848 689.666 217.2C691.16 215.376 692.675 214.027 694.155 213.261C695.629 212.497 697.057 212.317 698.405 212.805C699.759 213.295 700.938 214.427 701.873 216.078C702.808 217.729 703.489 219.881 703.851 222.376C704.576 227.366 704.024 233.69 701.732 240.015Z" fill="url(#paint0_linear_304_193)" stroke="black" stroke-width="0.5"/>
<line x1="697.856" y1="213.902" x2="690.068" y2="249.924" stroke="#5DB001" stroke-linecap="round"/>
<path d="M664.387 229.264L664.391 229.279L664.397 229.294C666.96 235.648 668.386 240.194 668.939 243.426C669.494 246.672 669.156 248.527 668.287 249.572C667.421 250.613 665.96 250.931 664.032 250.914C662.807 250.903 661.442 250.759 659.98 250.604C659.142 250.516 658.271 250.424 657.377 250.352C656.456 250.277 655.62 250.245 654.857 250.215L654.753 250.211C653.96 250.18 653.253 250.15 652.606 250.078C651.317 249.935 650.288 249.626 649.353 248.823C648.41 248.013 647.538 246.681 646.614 244.437C645.691 242.195 644.726 239.068 643.584 234.693C641.302 225.949 640.015 217.775 640.028 211.604C640.035 208.516 640.367 205.948 641.052 204.065C641.737 202.181 642.757 201.027 644.114 200.673C645.482 200.316 647.14 200.784 648.963 202.024C650.779 203.26 652.72 205.239 654.629 207.823C658.447 212.99 662.109 220.536 664.387 229.264Z" fill="url(#paint1_linear_304_193)" stroke="black" stroke-width="0.5"/>
<line x1="642.123" y1="208.029" x2="646.195" y2="209.657" stroke="#5DB001" stroke-linecap="round"/>
<line x1="642.079" y1="216.944" x2="649.109" y2="218.701" stroke="#5DB001" stroke-linecap="round"/>
<line x1="643.061" y1="225.915" x2="652.081" y2="227.719" stroke="#5DB001" stroke-linecap="round"/>
<line x1="644.061" y1="233.915" x2="653.081" y2="235.719" stroke="#5DB001" stroke-linecap="round"/>
<line x1="649.061" y1="240.915" x2="658.081" y2="242.719" stroke="#5DB001" stroke-linecap="round"/>
<line x1="644.111" y1="202.612" x2="660.778" y2="249.669" stroke="#5DB001" stroke-linecap="round"/>
<line x1="647.334" y1="209.614" x2="650.78" y2="204.446" stroke="#5DB001" stroke-linecap="round"/>
<line x1="651.357" y1="220.61" x2="655.776" y2="214.424" stroke="#5DB001" stroke-linecap="round"/>
<line x1="654.302" y1="229.621" x2="659.787" y2="220.479" stroke="#5DB001" stroke-linecap="round"/>
<line x1="658.334" y1="240.614" x2="663.78" y2="232.446" stroke="#5DB001" stroke-linecap="round"/>
<line x1="660.334" y1="247.614" x2="665.78" y2="239.446" stroke="#5DB001" stroke-linecap="round"/>
<path d="M682.645 235.015L682.645 235.036L682.648 235.057C683.563 240.123 683.62 243.631 683.055 246.047C682.495 248.447 681.325 249.762 679.761 250.475C678.175 251.198 676.156 251.316 673.876 251.243C672.965 251.214 672.02 251.155 671.05 251.095C670.809 251.08 670.566 251.065 670.322 251.05C669.099 250.976 667.843 250.91 666.585 250.91C664.711 250.91 663.478 250.755 662.659 250.344C661.871 249.948 661.438 249.298 661.213 248.198C660.984 247.08 660.977 245.536 661.025 243.398C661.035 242.958 661.047 242.494 661.06 242.004C661.108 240.126 661.167 237.874 661.145 235.186C661.091 228.437 661.86 222.286 663.391 217.826C664.157 215.596 665.107 213.804 666.228 212.571C667.344 211.342 668.62 210.675 670.053 210.664C671.494 210.653 672.993 211.303 674.445 212.526C675.895 213.747 677.283 215.528 678.491 217.741C680.908 222.166 682.591 228.287 682.645 235.015Z" fill="url(#paint2_linear_304_193)" stroke="black" stroke-width="0.5"/>
<line x1="663.059" y1="244.911" x2="672.465" y2="246.722" stroke="#5DB001" stroke-linecap="round"/>
<path d="M665.145 217.088L669.866 219.488M691.973 216.307L695.473 221.807" stroke="#5DB001" stroke-linecap="round"/>
<line x1="662.691" y1="224.797" x2="669.721" y2="226.554" stroke="#5DB001" stroke-linecap="round"/>
<line x1="687.173" y1="223.207" x2="694.373" y2="228.607" stroke="#5DB001" stroke-linecap="round"/>
<line x1="662.673" y1="230.768" x2="671.693" y2="232.572" stroke="#5DB001" stroke-linecap="round"/>
<line x1="685.153" y1="230.113" x2="693.279" y2="234.628" stroke="#5DB001" stroke-linecap="round"/>
<line x1="662.673" y1="237.768" x2="671.693" y2="239.572" stroke="#5DB001" stroke-linecap="round"/>
<line x1="684.133" y1="237.054" x2="692.219" y2="240.647" stroke="#5DB001" stroke-linecap="round"/>
<line x1="684.13" y1="245.045" x2="690.211" y2="247.651" stroke="#5DB001" stroke-linecap="round"/>
<line x1="669.622" y1="211.621" x2="672.545" y2="249.624" stroke="#5DB001" stroke-linecap="round"/>
<line x1="671.085" y1="219.453" x2="675.378" y2="215.16" stroke="#5DB001" stroke-linecap="round"/>
<line x1="696.697" y1="221.637" x2="701.802" y2="219.084" stroke="#5DB001" stroke-linecap="round"/>
<line x1="671.132" y1="226.455" x2="678.379" y2="220.113" stroke="#5DB001" stroke-linecap="round"/>
<line x1="694.727" y1="228.647" x2="702.813" y2="225.054" stroke="#5DB001" stroke-linecap="round"/>
<line x1="672.224" y1="232.467" x2="680.392" y2="227.022" stroke="#5DB001" stroke-linecap="round"/>
<line x1="693.808" y1="234.685" x2="702.851" y2="231.972" stroke="#5DB001" stroke-linecap="round"/>
<line x1="672.364" y1="239.51" x2="681.435" y2="235.882" stroke="#5DB001" stroke-linecap="round"/>
<line x1="692.853" y1="240.711" x2="700.877" y2="238.928" stroke="#5DB001" stroke-linecap="round"/>
<line x1="672.331" y1="246.497" x2="679.81" y2="243.062" stroke="#5DB001" stroke-linecap="round"/>
<line x1="690.853" y1="247.711" x2="698.877" y2="245.928" stroke="#5DB001" stroke-linecap="round"/>
<path d="M69.0836 196.011C67.8079 194.151 65.2488 193.644 63.0069 193.887C60.7651 194.13 58.6101 194.954 56.3611 195.118C54.5075 195.253 52.6515 194.935 50.793 194.924C48.3765 194.91 45.9583 195.423 43.7554 196.416C36.5402 199.67 32.4346 207.797 32.0385 215.702C31.6423 223.607 34.3593 231.336 37.6434 238.537C39.5414 242.699 41.9009 247.035 45.9931 249.078C49.2468 250.703 53.0592 250.599 56.6933 250.459C62.1022 250.251 67.511 250.042 72.9198 249.833L80.7434 249.532C84.4641 249.388 88.2196 249.24 91.8214 248.296C100.181 246.105 107.21 239.402 109.795 231.157C112.449 222.689 110.491 213.268 106.154 205.527C103.499 200.787 99.6403 196.308 94.4032 194.865C91.5863 194.088 88.607 194.256 85.6903 194.429C80.3754 194.745 75.0606 195.061 69.7457 195.377" fill="#ED6948"/>
<path d="M67.7357 199.603C67.7357 199.603 58.3424 202.054 64.06 202.054C69.7777 202.054 76.6112 202.054 76.4616 200.829C76.3121 199.603 66.5104 180 65.2852 180C64.06 180 57.1172 181.225 59.976 184.084C62.8348 186.943 67.7357 199.603 67.7357 199.603Z" fill="#3F3D56"/>
<path d="M70.013 247.791C60.7465 240.995 65.6791 206.717 65.8938 205.262L66.5021 205.351C66.4502 205.704 61.4071 240.717 70.377 247.295L70.013 247.791Z" fill="#3F3D56"/>
<path d="M53.782 244.767C46.5698 231.304 49.4049 220.54 53.0533 213.881C57.0005 206.677 62.7354 202.596 62.7928 202.555L63.1465 203.058C63.09 203.098 57.4572 207.111 53.5811 214.198C50.0141 220.719 47.2475 231.267 54.3243 244.476L53.782 244.767Z" fill="#3F3D56"/>
<path d="M84.2836 247.641L83.7005 247.444C90.453 227.375 75.4683 203.518 75.3164 203.28L75.8347 202.949C75.8731 203.009 79.7122 209.073 82.6541 217.56C85.3741 225.408 87.8648 236.996 84.2836 247.641Z" fill="#3F3D56"/>
<path d="M101.903 243.498L101.289 243.463C102.336 225.03 96.8367 214.613 92.0392 209.12C86.8597 203.19 81.3881 201.581 81.3335 201.565L81.5016 200.974C81.7322 201.039 87.2041 202.65 92.5025 208.716C97.3751 214.295 102.961 224.857 101.903 243.498Z" fill="#3F3D56"/>
<path d="M38.9945 227.469C37.4091 220.194 38.3048 214.092 41.6569 209.332C47.178 201.491 57.5987 200.056 57.7032 200.042L57.7825 200.652C57.6804 200.665 47.5188 202.071 42.1568 209.69C38.9104 214.303 38.0487 220.241 39.5956 227.338L38.9945 227.469Z" fill="#3F3D56"/>
<path d="M62.2453 199.712C62.1342 199.67 51.0613 195.52 45.8351 199.665L45.4531 199.184C50.9535 194.821 61.9973 198.959 62.4645 199.137L62.2453 199.712Z" fill="#3F3D56"/>
<path d="M72.1938 198.825C72.1917 198.783 72.0418 194.621 76.7712 193.16L76.9526 193.747C72.6907 195.064 72.8012 198.644 72.8081 198.795L72.1938 198.825Z" fill="#3F3D56"/>
<path d="M77.1089 201.453L76.6152 201.086C76.6714 201.011 82.3225 193.559 90.4346 196.367L90.2334 196.948C82.5513 194.288 77.1623 201.381 77.1089 201.453Z" fill="#3F3D56"/>
<path d="M647.732 240.015L647.725 240.035L647.721 240.056C647.318 242.312 647.004 244.186 646.743 245.739C646.416 247.692 646.173 249.138 645.945 250.201C645.74 251.157 645.553 251.768 645.341 252.148C645.238 252.334 645.134 252.454 645.03 252.531C644.928 252.606 644.813 252.65 644.672 252.666C644.372 252.701 643.975 252.615 643.382 252.448C643.258 252.413 643.125 252.375 642.986 252.334C642.479 252.188 641.873 252.012 641.153 251.851C639.306 251.438 636.703 251.117 632.944 251.559C631.093 251.777 629.563 251.487 628.373 250.759C627.186 250.031 626.311 248.851 625.8 247.236C624.772 243.994 625.22 239.036 627.518 232.692C629.817 226.346 632.679 220.848 635.666 217.2C637.16 215.376 638.675 214.027 640.155 213.261C641.629 212.497 643.057 212.317 644.405 212.805C645.759 213.295 646.938 214.427 647.873 216.078C648.808 217.729 649.489 219.881 649.851 222.376C650.576 227.366 650.024 233.69 647.732 240.015Z" fill="url(#paint3_linear_304_193)" stroke="black" stroke-width="0.5"/>
<line x1="643.856" y1="213.902" x2="636.068" y2="249.924" stroke="#5DB001" stroke-linecap="round"/>
<path d="M610.387 229.264L610.391 229.279L610.397 229.294C612.96 235.648 614.386 240.194 614.939 243.426C615.494 246.672 615.156 248.527 614.287 249.572C613.421 250.613 611.96 250.931 610.032 250.914C608.807 250.903 607.442 250.759 605.98 250.604C605.142 250.516 604.271 250.424 603.377 250.352C602.456 250.277 601.62 250.245 600.857 250.215L600.753 250.211C599.96 250.18 599.253 250.15 598.606 250.078C597.317 249.935 596.288 249.626 595.353 248.823C594.41 248.013 593.538 246.681 592.614 244.437C591.691 242.195 590.726 239.068 589.584 234.693C587.302 225.949 586.015 217.775 586.028 211.604C586.035 208.516 586.367 205.948 587.052 204.065C587.737 202.181 588.757 201.027 590.114 200.673C591.482 200.316 593.14 200.784 594.963 202.024C596.779 203.26 598.72 205.239 600.629 207.823C604.447 212.99 608.109 220.536 610.387 229.264Z" fill="url(#paint4_linear_304_193)" stroke="black" stroke-width="0.5"/>
<line x1="588.123" y1="208.029" x2="592.195" y2="209.657" stroke="#5DB001" stroke-linecap="round"/>
<line x1="588.079" y1="216.944" x2="595.109" y2="218.701" stroke="#5DB001" stroke-linecap="round"/>
<line x1="589.061" y1="225.915" x2="598.081" y2="227.719" stroke="#5DB001" stroke-linecap="round"/>
<line x1="590.061" y1="233.915" x2="599.081" y2="235.719" stroke="#5DB001" stroke-linecap="round"/>
<line x1="595.061" y1="240.915" x2="604.081" y2="242.719" stroke="#5DB001" stroke-linecap="round"/>
<line x1="590.111" y1="202.612" x2="606.778" y2="249.669" stroke="#5DB001" stroke-linecap="round"/>
<line x1="593.334" y1="209.614" x2="596.78" y2="204.446" stroke="#5DB001" stroke-linecap="round"/>
<line x1="597.357" y1="220.61" x2="601.776" y2="214.424" stroke="#5DB001" stroke-linecap="round"/>
<line x1="600.302" y1="229.621" x2="605.787" y2="220.479" stroke="#5DB001" stroke-linecap="round"/>
<line x1="604.334" y1="240.614" x2="609.78" y2="232.446" stroke="#5DB001" stroke-linecap="round"/>
<line x1="606.334" y1="247.614" x2="611.78" y2="239.446" stroke="#5DB001" stroke-linecap="round"/>
<path d="M628.645 235.015L628.645 235.036L628.648 235.057C629.563 240.123 629.62 243.631 629.055 246.047C628.495 248.447 627.325 249.762 625.761 250.475C624.175 251.198 622.156 251.316 619.876 251.243C618.965 251.214 618.02 251.155 617.05 251.095C616.809 251.08 616.566 251.065 616.322 251.05C615.099 250.976 613.843 250.91 612.585 250.91C610.711 250.91 609.478 250.755 608.659 250.344C607.871 249.948 607.438 249.298 607.213 248.198C606.984 247.08 606.977 245.536 607.025 243.398C607.035 242.958 607.047 242.494 607.06 242.004C607.108 240.126 607.167 237.874 607.145 235.186C607.091 228.437 607.86 222.286 609.391 217.826C610.157 215.596 611.107 213.804 612.228 212.571C613.344 211.342 614.62 210.675 616.053 210.664C617.494 210.653 618.993 211.303 620.445 212.526C621.895 213.747 623.283 215.528 624.491 217.741C626.908 222.166 628.591 228.287 628.645 235.015Z" fill="url(#paint5_linear_304_193)" stroke="black" stroke-width="0.5"/>
<line x1="609.059" y1="244.911" x2="618.465" y2="246.722" stroke="#5DB001" stroke-linecap="round"/>
<path d="M611.145 217.088L615.866 219.488M637.973 216.307L641.473 221.807" stroke="#5DB001" stroke-linecap="round"/>
<line x1="608.691" y1="224.797" x2="615.721" y2="226.554" stroke="#5DB001" stroke-linecap="round"/>
<line x1="633.173" y1="223.207" x2="640.373" y2="228.607" stroke="#5DB001" stroke-linecap="round"/>
<line x1="608.673" y1="230.768" x2="617.693" y2="232.572" stroke="#5DB001" stroke-linecap="round"/>
<line x1="631.153" y1="230.113" x2="639.279" y2="234.628" stroke="#5DB001" stroke-linecap="round"/>
<line x1="608.673" y1="237.768" x2="617.693" y2="239.572" stroke="#5DB001" stroke-linecap="round"/>
<line x1="630.133" y1="237.054" x2="638.219" y2="240.647" stroke="#5DB001" stroke-linecap="round"/>
<line x1="630.13" y1="245.045" x2="636.211" y2="247.651" stroke="#5DB001" stroke-linecap="round"/>
<line x1="615.622" y1="211.621" x2="618.545" y2="249.624" stroke="#5DB001" stroke-linecap="round"/>
<line x1="617.085" y1="219.453" x2="621.378" y2="215.16" stroke="#5DB001" stroke-linecap="round"/>
<line x1="642.697" y1="221.637" x2="647.802" y2="219.084" stroke="#5DB001" stroke-linecap="round"/>
<line x1="617.132" y1="226.455" x2="624.379" y2="220.113" stroke="#5DB001" stroke-linecap="round"/>
<line x1="640.727" y1="228.647" x2="648.813" y2="225.054" stroke="#5DB001" stroke-linecap="round"/>
<line x1="618.224" y1="232.467" x2="626.392" y2="227.022" stroke="#5DB001" stroke-linecap="round"/>
<line x1="639.808" y1="234.685" x2="648.851" y2="231.972" stroke="#5DB001" stroke-linecap="round"/>
<line x1="618.364" y1="239.51" x2="627.435" y2="235.882" stroke="#5DB001" stroke-linecap="round"/>
<line x1="638.853" y1="240.711" x2="646.877" y2="238.928" stroke="#5DB001" stroke-linecap="round"/>
<line x1="618.331" y1="246.497" x2="625.81" y2="243.062" stroke="#5DB001" stroke-linecap="round"/>
<line x1="636.853" y1="247.711" x2="644.877" y2="245.928" stroke="#5DB001" stroke-linecap="round"/>
<path d="M1081.64 243.94C1081.64 243.94 1112.85 241.912 1114.75 180.653C1116.66 119.394 1083.87 109.763 1083.87 109.763C1083.87 109.763 1073.36 104.228 1068.91 104.092C1064.45 103.955 1049.08 105.743 1049.08 105.743L1065.85 102.113C1065.85 102.113 1041.92 93.6174 1034.82 93.0511L1060.58 97.8993C1060.58 97.8993 1060.61 83.6816 1054.37 79.1187C1054.37 79.1187 1059.59 78.6145 1062.62 88.7855C1063.48 91.7205 1065.01 94.4142 1067.09 96.6505C1069.18 98.8867 1071.75 100.603 1074.62 101.662C1084.21 105.155 1097.49 110.716 1100.6 115.662C1100.6 115.662 1106.26 121.321 1105.07 106.285C1103.89 91.2493 1099.56 78.4214 1098.07 78.099C1098.07 78.099 1086.49 66.326 1070.59 65.9589C1070.59 65.9589 1079.77 62.0112 1095.68 73.345C1095.68 73.345 1096.87 67.3821 1090.82 60.5589C1084.78 53.7357 1075.33 39.2876 1065.3 37.8824C1065.3 37.8824 1079.25 36.7206 1090.73 54.5358C1090.73 54.5358 1094.88 57.0982 1095.09 50.3413C1095.42 45.1978 1096.23 40.0967 1097.51 35.1048C1097.51 35.1048 1101.23 50.5583 1094.29 57.7053C1094.29 57.7053 1108.28 75.1074 1108.14 94.9817C1108.14 94.9817 1112.56 103.919 1113.87 93.2788C1113.87 93.2788 1114.45 78.6779 1115.99 66.2514C1116.61 61.2465 1116.18 56.168 1114.75 51.3336C1113.32 46.4992 1110.9 42.0127 1107.65 38.1547C1104.6 34.4693 1102.39 30.854 1103.52 28.9437L1119.7 47.3796C1119.7 47.3796 1132.27 16.3756 1141.72 9.58749C1151.16 2.79938 1152.37 1.27307 1152.37 1.27307L1137.26 19.8094L1156.6 12.5004L1137.31 21.975C1137.31 21.975 1128.45 29.5216 1123.73 49.7518C1119.01 69.982 1118.81 82.5118 1118.81 82.5118C1118.81 82.5118 1146.12 59.8406 1151.43 60.4475L1133.74 74.4715C1128.93 78.2852 1125 83.0869 1122.2 88.5522C1119.41 94.0174 1117.82 100.019 1117.55 106.151C1117.55 106.151 1152.13 96.4637 1160.51 94.5821L1176.03 77.9062L1164.35 93.6642L1189.13 92.7467L1203.1 82.3092C1203.1 82.3092 1192.12 91.9517 1193.21 92.5205C1194.31 93.0893 1210.7 93.4602 1210.7 93.4602C1210.7 93.4602 1169.04 94.1513 1164.55 97.2658C1160.05 100.38 1149.81 101.695 1149.81 101.695L1179.4 105.477L1144.21 103.737C1144.21 103.737 1117.72 109.16 1116.45 117.499C1116.45 117.499 1122.2 131.512 1125.93 137.037C1129 141.642 1135.41 156.589 1136.91 169.807C1138.41 183.026 1140.63 203.336 1136.27 215.826C1131.91 228.317 1130.46 235.414 1132.87 239.099C1135.28 242.784 1137.51 247.556 1130.12 248.688C1122.73 249.821 1089.9 249.11 1089.9 249.11C1089.9 249.11 1079.88 251.31 1081.64 243.94Z" fill="#690C0B"/>
<path d="M1092.61 240.12C1092.57 242.623 1092.15 245.105 1091.36 247.478L1088.02 247.471C1088.52 244.352 1089.73 240.433 1092.61 240.12Z" fill="#FEC35D"/>
<path d="M1084.83 243.227C1084.83 243.227 1085.26 234.261 1089.71 232.661C1089.71 232.661 1090.12 241.251 1085.53 245.332L1084.83 243.227Z" fill="#FEC35D"/>
<path d="M1082.14 235.729C1082.14 235.729 1083.23 226.565 1086.19 225.537C1086.19 225.537 1086.98 234.036 1082.82 236.993L1082.14 235.729Z" fill="#FEC35D"/>
<path d="M1079.76 228.713C1079.76 228.713 1079.35 219.208 1082.14 217.627C1082.14 217.627 1083.78 225.037 1080.25 229.295L1079.76 228.713Z" fill="#FEC35D"/>
<path d="M1076.02 219.699C1076.02 219.699 1076.22 211.971 1078.35 210.21C1078.35 210.21 1080.22 218.721 1077.07 221.28L1076.02 219.699Z" fill="#FEC35D"/>
<path d="M1073.36 213.843L1069.4 201.43C1069.4 201.43 1076.59 209.619 1074.32 215.959L1073.36 213.843Z" fill="#FEC35D"/>
<path d="M1066.35 202.369C1066.35 202.369 1060.51 194.132 1059.58 193.843C1059.58 193.843 1067.67 197.981 1069.19 205.799L1066.35 202.369Z" fill="#FEC35D"/>
<path d="M1083.38 247.455L1078.47 247.444L1077.84 247.443C1077.82 247.427 1077.81 247.411 1077.79 247.395C1077.03 246.68 1076.61 246.19 1076.61 246.19C1078.49 244.844 1081.14 245.942 1083.38 247.455Z" fill="#FEC35D"/>
<path d="M1085.02 242.672C1085.02 242.672 1078.22 236.808 1073.99 238.941C1073.99 238.941 1079.95 245.149 1086.07 244.624L1085.02 242.672Z" fill="#FEC35D"/>
<path d="M1082.6 235.428C1082.6 235.428 1076.63 228.387 1073.6 229.16C1073.6 229.16 1077.62 236.689 1082.73 236.853L1082.6 235.428Z" fill="#FEC35D"/>
<path d="M1079.86 228.495C1079.86 228.495 1073.45 221.464 1070.35 222.314C1070.35 222.314 1074.42 228.721 1079.92 229.252L1079.86 228.495Z" fill="#FEC35D"/>
<path d="M1076.82 220.023C1076.82 220.023 1071.84 214.117 1069.07 214.062C1069.07 214.062 1072.92 221.884 1076.98 221.917L1076.82 220.023Z" fill="#FEC35D"/>
<path d="M1072.93 213.711L1063.1 205.152C1063.1 205.152 1067.77 215.002 1074.49 215.427L1072.93 213.711Z" fill="#FEC35D"/>
<path d="M1065.01 203.655C1065.01 203.655 1055.46 200.372 1054.92 199.561C1054.92 199.561 1061.17 206.153 1069.1 205.405L1065.01 203.655Z" fill="#FEC35D"/>
<path d="M1063.84 201.306C1063.84 201.306 1052.18 195.048 1049.83 195.714C1049.83 195.714 1057.5 193.94 1063.92 200.774L1063.84 201.306Z" fill="#FEC35D"/>
<path d="M1077.09 221.359L1076.77 221.495C1071.26 208.467 1066.5 201.187 1063.38 200.997L1063.4 200.645C1066.71 200.848 1071.44 208.01 1077.09 221.359Z" fill="#444053"/>
<path d="M1076.68 220.392L1076.89 220.886L1077.05 221.252C1077.06 221.289 1077.08 221.324 1077.09 221.359C1077.93 223.368 1078.82 225.567 1079.74 227.918C1079.92 228.364 1080.09 228.815 1080.27 229.272C1080.93 230.989 1081.61 232.782 1082.3 234.631C1082.39 234.89 1082.49 235.154 1082.59 235.414L1082.6 235.458C1082.76 235.898 1082.92 236.335 1083.09 236.788C1083.7 238.485 1084.32 240.224 1084.94 242.004C1085.12 242.492 1085.29 242.994 1085.46 243.494C1085.59 243.874 1085.72 244.258 1085.85 244.643C1085.89 244.738 1085.92 244.835 1085.95 244.932C1086.24 245.77 1086.52 246.614 1086.8 247.465L1086.25 247.468C1086.02 246.751 1085.78 246.038 1085.54 245.33C1085.47 245.106 1085.4 244.882 1085.32 244.664C1085.16 244.2 1085 243.739 1084.84 243.279L1084.83 243.238C1084.72 242.911 1084.61 242.584 1084.5 242.259C1083.87 240.416 1083.24 238.613 1082.62 236.861L1082.39 236.219C1082.31 236 1082.23 235.783 1082.16 235.567C1082.03 235.215 1081.91 234.879 1081.79 234.538C1081.13 232.712 1080.48 230.947 1079.84 229.255C1079.67 228.819 1079.51 228.389 1079.34 227.964C1078.52 225.814 1077.71 223.792 1076.94 221.924C1076.8 221.583 1076.65 221.245 1076.52 220.918C1076.5 220.899 1076.5 220.87 1076.49 220.847L1076.59 220.593L1076.68 220.392Z" fill="#444053"/>
<path d="M1096.3 244.786L1099.72 247.493L1098.03 247.492C1097.4 246.625 1096.82 245.722 1096.3 244.786Z" fill="#FEC35D"/>
<path d="M1098.25 242.264C1098.25 242.264 1092.6 233.893 1092.66 232.92C1092.66 232.92 1093.68 241.945 1100.46 246.123L1098.25 242.264Z" fill="#FEC35D"/>
<path d="M1106.86 247.507L1104.72 247.503L1102 240.208C1102 240.208 1105.15 243.466 1106.86 247.507Z" fill="#FEC35D"/>
<path d="M1099.93 241.464C1099.93 241.464 1100.23 231.373 1099.66 230.582C1099.66 230.582 1103.62 238.756 1100.12 245.906L1099.93 241.464Z" fill="#FEC35D"/>
<path d="M1098.15 239.53C1098.15 239.53 1096.41 226.412 1097.86 224.456C1097.86 224.456 1093.5 231.007 1097.63 239.425L1098.15 239.53Z" fill="#FEC35D"/>
<path d="M1098.02 239C1097.97 239.16 1097.94 239.324 1097.92 239.491C1097.81 240.77 1098.55 242.612 1100.08 244.947C1100.18 245.094 1100.27 245.227 1100.37 245.371C1100.83 246.041 1101.35 246.751 1101.93 247.501L1101.47 247.503C1101.11 247.03 1100.77 246.574 1100.46 246.132C1100.37 246.007 1100.28 245.882 1100.19 245.759L1100.11 245.634C1099.31 244.507 1098.63 243.298 1098.08 242.028C1097.67 240.983 1097.49 240.096 1097.58 239.367C1097.6 239.21 1097.63 239.054 1097.68 238.903L1098.02 239Z" fill="#444053"/>
<path d="M1119.07 247.251L1119.07 247.537L1119.02 247.536C1119.03 247.439 1119.05 247.342 1119.07 247.251Z" fill="#FEC35D"/>
<path d="M1119.1 232.947L1119.08 240.476C1118.61 241.651 1117.94 242.72 1117 243.487C1116.91 243.562 1116.82 243.633 1116.72 243.7L1116.64 243.541L1116.3 242.92L1116.05 242.445L1116.07 242.27C1116.09 242.147 1116.11 241.964 1116.15 241.73L1116.21 241.347C1116.54 239.251 1117.43 234.773 1119.1 232.947Z" fill="#FEC35D"/>
<path d="M1113.67 235.413C1113.67 235.413 1113.26 225.909 1116.05 224.328C1116.05 224.328 1117.69 231.739 1114.16 235.997L1113.67 235.413Z" fill="#FEC35D"/>
<path d="M1109.93 226.406C1109.93 226.406 1110.13 218.678 1112.26 216.916C1112.26 216.916 1114.13 225.427 1110.98 227.987L1109.93 226.406Z" fill="#FEC35D"/>
<path d="M1107.27 220.545L1103.31 208.133C1103.31 208.133 1110.5 216.323 1108.22 222.662L1107.27 220.545Z" fill="#FEC35D"/>
<path d="M1100.26 209.071C1100.26 209.071 1094.42 200.832 1093.5 200.544C1093.5 200.544 1101.58 204.683 1103.1 212.499L1100.26 209.071Z" fill="#FEC35D"/>
<path d="M1116.4 247.529L1110.02 247.51C1109.28 246.932 1108.57 246.308 1107.9 245.639C1110.49 244.339 1114.03 246.023 1116.4 247.529Z" fill="#FEC35D"/>
<path d="M1116.51 242.129C1116.51 242.129 1110.54 235.089 1107.51 235.861C1107.51 235.861 1111.53 243.391 1116.64 243.553L1116.51 242.129Z" fill="#FEC35D"/>
<path d="M1113.77 235.2C1113.77 235.2 1107.36 228.17 1104.26 229.02C1104.26 229.02 1108.33 235.427 1113.84 235.957L1113.77 235.2Z" fill="#FEC35D"/>
<path d="M1110.73 226.723C1110.73 226.723 1105.75 220.816 1102.98 220.763C1102.98 220.763 1106.83 228.584 1110.89 228.617L1110.73 226.723Z" fill="#FEC35D"/>
<path d="M1106.84 220.411L1097.01 211.853C1097.01 211.853 1101.68 221.703 1108.4 222.128L1106.84 220.411Z" fill="#FEC35D"/>
<path d="M1098.92 210.357C1098.92 210.357 1089.37 207.074 1088.83 206.264C1088.83 206.264 1095.08 212.856 1103.01 212.108L1098.92 210.357Z" fill="#FEC35D"/>
<path d="M1097.75 208.007C1097.75 208.007 1086.09 201.75 1083.74 202.416C1083.74 202.416 1091.41 200.64 1097.83 207.476L1097.75 208.007Z" fill="#FEC35D"/>
<path d="M1111 228.059L1110.68 228.197C1105.17 215.168 1100.41 207.888 1097.29 207.697L1097.31 207.346C1100.62 207.549 1105.35 214.712 1111 228.059Z" fill="#444053"/>
<path d="M1110.6 227.098C1110.67 227.266 1110.74 227.428 1110.8 227.594C1110.85 227.712 1110.9 227.831 1110.96 227.953C1110.97 227.988 1110.98 228.024 1111 228.059C1111.84 230.067 1112.73 232.267 1113.65 234.619C1113.82 235.064 1114 235.514 1114.18 235.971C1114.84 237.687 1115.52 239.48 1116.2 241.33C1116.3 241.589 1116.4 241.853 1116.49 242.112L1116.51 242.149C1116.67 242.591 1116.83 243.035 1116.99 243.484C1117.48 244.807 1117.96 246.155 1118.44 247.527L1117.92 247.533C1117.45 246.181 1116.99 244.855 1116.53 243.552L1116.3 242.911C1116.22 242.692 1116.14 242.475 1116.06 242.259C1115.94 241.907 1115.82 241.571 1115.7 241.23C1115.04 239.403 1114.39 237.641 1113.74 235.944C1113.58 235.511 1113.41 235.078 1113.25 234.659C1112.43 232.507 1111.63 230.486 1110.85 228.617C1110.71 228.278 1110.57 227.955 1110.44 227.633C1110.42 227.602 1110.41 227.571 1110.4 227.541L1110.51 227.288L1110.6 227.098Z" fill="#444053"/>
<path d="M1130.49 246.837C1130.49 246.837 1134.68 238.613 1137.81 238.668C1137.81 238.668 1135.62 246.92 1130.69 248.258L1130.49 246.837Z" fill="#FEC35D"/>
<path d="M1130.7 239.421C1130.7 239.421 1133.59 230.357 1136.76 229.837C1136.76 229.837 1135.74 237.358 1130.95 240.137L1130.7 239.421Z" fill="#FEC35D"/>
<path d="M1130.29 229.675C1130.29 229.675 1133.14 222.495 1135.75 221.572C1135.75 221.572 1134.56 230.203 1130.73 231.519L1130.29 229.675Z" fill="#FEC35D"/>
<path d="M1129.82 223.256L1130.39 210.241C1130.39 210.241 1134.3 220.408 1129.98 225.573L1129.82 223.256Z" fill="#FEC35D"/>
<path d="M1127.21 210.068C1127.21 210.068 1124.57 200.322 1123.8 199.728C1123.8 199.728 1129.95 206.405 1128.68 214.265L1127.21 210.068Z" fill="#FEC35D"/>
<path d="M1131.04 246.704C1131.04 246.704 1127.86 238.035 1124.76 237.716C1124.76 237.716 1125.94 246.17 1130.67 248.093L1131.04 246.704Z" fill="#FEC35D"/>
<path d="M1130.86 239.251C1130.86 239.251 1127.27 230.441 1124.07 230.169C1124.07 230.169 1125.67 237.588 1130.66 239.986L1130.86 239.251Z" fill="#FEC35D"/>
<path d="M1130.93 230.249C1130.93 230.249 1128.29 222.983 1125.72 221.979C1125.72 221.979 1126.63 230.652 1130.43 232.081L1130.93 230.249Z" fill="#FEC35D"/>
<path d="M1129.46 222.981L1123.19 211.559C1123.19 211.559 1124.17 222.413 1130.33 225.133L1129.46 222.981Z" fill="#FEC35D"/>
<path d="M1125.5 210.811C1125.5 210.811 1117.67 204.436 1117.45 203.489C1117.45 203.489 1121.04 211.836 1128.74 213.867L1125.5 210.811Z" fill="#FEC35D"/>
<path d="M1125.21 208.202C1125.21 208.202 1116.43 198.304 1114 198.121C1114 198.121 1121.81 199.103 1125.48 207.732L1125.21 208.202Z" fill="#FEC35D"/>
<path d="M1130.73 231.598L1130.38 231.615C1129.7 217.483 1127.76 209.01 1124.89 207.753L1125.03 207.432C1128.06 208.762 1130.03 217.119 1130.73 231.598Z" fill="#444053"/>
<path d="M1130.94 238.678C1130.95 239.154 1130.96 239.636 1130.98 240.122C1131 241.964 1131.02 243.879 1131.03 245.852C1131.03 246.13 1131.03 246.407 1131.03 246.686C1131.03 246.7 1131.03 246.713 1131.03 246.727C1131.03 247.195 1131.03 247.668 1131.03 248.147C1131.02 248.626 1131.02 249.123 1131.02 249.638C1130.86 249.593 1130.7 249.543 1130.55 249.494C1130.56 249.01 1130.56 248.527 1130.57 248.047C1130.56 247.821 1130.57 247.596 1130.58 247.371C1130.58 247.146 1130.58 246.902 1130.58 246.668C1130.59 246.303 1130.59 245.94 1130.59 245.578C1130.6 243.636 1130.6 241.753 1130.58 239.945C1130.57 239.477 1130.57 239.018 1130.57 238.567C1130.54 236.264 1130.48 234.088 1130.4 232.064C1130.38 231.688 1130.37 231.319 1130.35 230.955C1130.35 230.936 1130.35 230.918 1130.35 230.899L1130.54 230.698L1130.68 230.547C1130.68 230.723 1130.69 230.898 1130.71 231.086C1130.71 231.216 1130.71 231.346 1130.71 231.477C1130.72 231.518 1130.72 231.556 1130.72 231.597C1130.82 233.775 1130.89 236.151 1130.94 238.678Z" fill="#444053"/>
<path d="M1061.05 246.733L1061.06 246.815C1061.07 246.92 1061.09 247.124 1061.1 247.41L1060.25 247.408L1060.11 247.408C1060.37 247.111 1060.69 246.88 1061.05 246.733Z" fill="#FEC35D"/>
<path d="M1056.82 238.918C1056.82 238.918 1057.91 243.374 1056.79 247.396L1054.64 247.39C1054.66 244.454 1055.01 239.998 1056.82 238.918Z" fill="#FEC35D"/>
<path d="M1050.74 241.141C1050.74 241.141 1050.76 233.414 1052.85 231.599C1052.85 231.599 1054.91 240.072 1051.83 242.696L1050.74 241.141Z" fill="#FEC35D"/>
<path d="M1047.95 235.343L1043.7 223.031C1043.7 223.031 1051.08 231.044 1048.95 237.439L1047.95 235.343Z" fill="#FEC35D"/>
<path d="M1040.67 224.04C1040.67 224.04 1034.64 215.944 1033.7 215.68C1033.7 215.68 1041.89 219.627 1043.59 227.404L1040.67 224.04Z" fill="#FEC35D"/>
<path d="M1052.18 247.385L1048.26 247.376C1047.09 246.334 1046.04 245.162 1045.14 243.884C1046.96 243.339 1049.99 245.514 1052.18 247.385Z" fill="#FEC35D"/>
<path d="M1051.55 241.439C1051.55 241.439 1046.43 235.65 1043.67 235.662C1043.67 235.662 1047.71 243.391 1051.76 243.326L1051.55 241.439Z" fill="#FEC35D"/>
<path d="M1047.51 235.221L1037.49 226.902C1037.49 226.902 1042.39 236.637 1049.12 236.901L1047.51 235.221Z" fill="#FEC35D"/>
<path d="M1039.36 225.357C1039.36 225.357 1029.74 222.302 1029.18 221.504C1029.18 221.504 1035.58 227.946 1043.49 227.011L1039.36 225.357Z" fill="#FEC35D"/>
<path d="M1038.13 223.038C1038.13 223.038 1026.33 217.058 1024 217.78C1024 217.78 1031.63 215.823 1038.21 222.504L1038.13 223.038Z" fill="#FEC35D"/>
<path d="M1051.86 242.768L1051.54 242.912C1045.72 230.018 1040.79 222.853 1037.67 222.736L1037.68 222.385C1040.99 222.51 1045.89 229.558 1051.86 242.768Z" fill="#444053"/>
<path d="M1051.42 241.812C1051.5 241.977 1051.58 242.143 1051.64 242.301C1051.7 242.419 1051.75 242.538 1051.81 242.66C1051.82 242.696 1051.84 242.731 1051.86 242.765C1052.5 244.211 1053.18 245.755 1053.87 247.386L1053.47 247.385C1052.88 245.964 1052.29 244.61 1051.72 243.325C1051.6 243.049 1051.48 242.78 1051.36 242.514C1051.33 242.453 1051.31 242.391 1051.28 242.329C1051.26 242.311 1051.26 242.282 1051.25 242.259L1051.35 242.003L1051.42 241.812Z" fill="#444053"/>
<path d="M1068.4 245.481C1068.4 245.481 1061.2 242.685 1058.75 243.966C1058.75 243.966 1065.88 248.979 1069.46 247.061L1068.4 245.481Z" fill="#FEC35D"/>
<path d="M1064.02 240.767L1054.1 232.323C1054.1 232.323 1058.88 242.116 1065.61 242.466L1064.02 240.767Z" fill="#FEC35D"/>
<path d="M1056.14 229.874C1056.14 229.874 1050.79 221.305 1050.89 220.337C1050.89 220.337 1051.59 229.394 1058.21 233.81L1056.14 229.874Z" fill="#FEC35D"/>
<path d="M1078.06 246.901C1078.06 246.901 1078.22 247.093 1078.47 247.444L1077.84 247.443L1077.77 247.442C1077.78 247.427 1077.78 247.413 1077.79 247.399C1077.86 247.221 1077.95 247.054 1078.06 246.901Z" fill="#FEC35D"/>
<path d="M1073 241.264C1073 241.264 1074.93 244.029 1075.73 247.438L1073.17 247.427C1072.47 245.054 1072.06 242.468 1073 241.264Z" fill="#FEC35D"/>
<path d="M1068.39 246.342C1068.39 246.342 1064.86 239.466 1065.88 236.896C1065.88 236.896 1071.6 243.472 1070.07 247.225L1068.39 246.342Z" fill="#FEC35D"/>
<path d="M1064.07 240.316L1059.96 227.949C1059.96 227.949 1067.25 236.054 1065.04 242.42L1064.07 240.316Z" fill="#FEC35D"/>
<path d="M1057.85 229.133C1057.85 229.133 1058.51 219.058 1057.97 218.248C1057.97 218.248 1061.64 226.557 1057.89 233.579L1057.85 229.133Z" fill="#FEC35D"/>
<path d="M1056.14 227.141C1056.14 227.141 1054.87 213.97 1056.39 212.067C1056.39 212.067 1051.79 218.457 1055.61 227.018L1056.14 227.141Z" fill="#FEC35D"/>
<path d="M1069.52 247.119L1069.77 246.873C1059.87 236.755 1055 229.552 1056.03 226.601L1055.7 226.482C1054.6 229.614 1059.38 236.746 1069.52 247.119Z" fill="#444053"/>
<path d="M1070.08 247.187C1070.16 247.267 1070.24 247.347 1070.32 247.426L1069.82 247.425C1069.72 247.32 1069.62 247.215 1069.52 247.112C1069.49 247.084 1069.47 247.056 1069.44 247.033C1069.34 246.938 1069.25 246.844 1069.16 246.75C1069.06 246.649 1068.97 246.55 1068.87 246.451C1068.84 246.42 1068.82 246.391 1068.79 246.361L1069 246.359L1069.27 246.357C1069.28 246.368 1069.29 246.378 1069.3 246.387C1069.31 246.396 1069.32 246.406 1069.32 246.417C1069.43 246.522 1069.53 246.629 1069.64 246.736C1069.66 246.76 1069.68 246.783 1069.7 246.807C1069.82 246.929 1069.95 247.056 1070.08 247.187Z" fill="#444053"/>
<path d="M1085.69 245.512C1085.69 245.512 1067.39 245.153 1064.65 209.378C1061.91 173.603 1080.84 167.101 1080.84 167.101C1080.84 167.101 1086.83 163.586 1089.48 163.387C1092.12 163.188 1101.12 163.827 1101.12 163.827L1091.2 162.149C1091.2 162.149 1104.97 156.546 1109.12 156.035L1094.19 159.545C1094.19 159.545 1093.78 151.231 1097.31 148.397C1097.31 148.397 1094.24 148.241 1092.75 154.269C1092.32 156.007 1091.5 157.622 1090.34 158.985C1089.18 160.348 1087.72 161.421 1086.07 162.118C1080.55 164.415 1072.94 168.019 1071.25 170.993C1071.25 170.993 1068.08 174.453 1068.38 165.629C1068.67 156.804 1070.83 149.205 1071.66 148.978C1071.66 148.978 1078.13 141.786 1087.42 141.149C1087.42 141.149 1081.95 139.084 1072.94 146.134C1072.94 146.134 1072.08 142.678 1075.45 138.528C1078.81 134.377 1083.97 125.642 1089.8 124.589C1089.8 124.589 1081.61 124.288 1075.37 135.002C1075.37 135.002 1073.01 136.611 1072.71 132.664C1072.37 129.666 1071.76 126.705 1070.88 123.818C1070.88 123.818 1069.12 132.963 1073.37 136.95C1073.37 136.95 1065.64 147.498 1066.26 159.117C1066.26 159.117 1063.91 164.461 1062.85 158.282C1062.85 158.282 1062.13 149.75 1060.9 142.523C1060.41 139.613 1060.52 136.632 1061.23 133.767C1061.94 130.902 1063.23 128.214 1065.03 125.871C1066.71 123.643 1067.91 121.462 1067.21 120.374L1058.23 131.585C1058.23 131.585 1050.08 113.786 1044.35 110.032C1038.62 106.279 1037.9 105.452 1037.9 105.452L1047.23 115.892L1035.73 112.139L1047.26 117.16C1047.26 117.16 1052.65 121.382 1055.94 133.044C1059.23 144.707 1059.68 152.073 1059.68 152.073C1059.68 152.073 1043.11 139.547 1040.02 140.034L1050.73 147.766C1053.65 149.869 1056.08 152.572 1057.86 155.695C1059.64 158.817 1060.73 162.285 1061.05 165.864C1061.05 165.864 1040.57 161.115 1035.62 160.237L1026.1 150.896L1033.35 159.758L1018.83 159.879L1010.38 154.145C1010.38 154.145 1017.06 159.493 1016.44 159.864C1015.81 160.234 1006.24 160.868 1006.24 160.868C1006.24 160.868 1030.61 160.177 1033.33 161.879C1036.05 163.581 1042.06 164.079 1042.06 164.079L1024.86 167.075L1045.4 165.124C1045.4 165.124 1061.04 167.593 1061.99 172.437C1061.99 172.437 1059.01 180.793 1056.97 184.123C1055.29 186.889 1051.95 195.8 1051.42 203.57C1050.88 211.341 1050.18 223.276 1053.01 230.466C1055.85 237.656 1056.94 241.802 1055.65 244.02C1054.36 246.239 1053.16 249.081 1057.51 249.547C1061.86 250.013 1081.03 248.728 1081.03 248.728C1081.03 248.728 1086.92 249.802 1085.69 245.512Z" fill="#690C0B"/>
<path d="M366.341 188.824L366.049 188.83L367.366 248.678L367.658 248.671L366.341 188.824Z" fill="#ADEC28"/>
<path d="M366.745 215.262C366.73 215.211 365.279 210.089 368.325 205.202L368.573 205.357C365.596 210.133 367.011 215.13 367.025 215.18L366.745 215.262Z" fill="#ADEC28"/>
<path d="M368.399 205.48C368.399 205.48 367.458 199.054 376.12 197.29C377.924 196.923 379.621 196.672 381.176 196.504C383.011 196.307 383.727 198.82 382.069 199.631C379.668 200.807 377.409 202.287 376.231 204.041C372.984 208.878 368.399 205.48 368.399 205.48Z" fill="#3CA023"/>
<path d="M367.255 233.846L366.975 233.764C366.989 233.714 368.401 228.712 365.427 223.941L365.675 223.786C368.721 228.672 367.27 233.795 367.255 233.846Z" fill="#A2DE28"/>
<path d="M365.602 224.064C365.602 224.064 366.542 217.638 357.88 215.874C356.076 215.506 354.38 215.255 352.825 215.088C350.989 214.891 350.273 217.403 351.931 218.215C354.333 219.39 356.592 220.871 357.769 222.625C361.016 227.461 365.602 224.064 365.602 224.064Z" fill="#3CA023"/>
<path d="M377.657 180.51C379.4 180.05 381.031 179.249 380.976 178.457C380.912 177.516 378.492 176.885 376.404 176.789C377.979 175.557 379.426 173.853 378.983 173.083C378.576 172.375 376.684 172.649 374.937 173.273C375.971 171.795 376.697 170.131 376.144 169.561C375.455 168.851 373.009 170.076 371.339 171.43C371.664 169.321 371.5 166.658 370.554 166.417C369.762 166.216 368.64 167.764 367.871 169.452C367.531 167.681 366.843 166 366.049 166C364.918 166 364 169.411 364 171.634C364 171.759 364.004 171.877 364.009 171.99C363.896 171.859 363.766 171.721 363.617 171.577C362.023 170.029 358.937 168.31 358.149 169.122C357.595 169.692 358.322 171.356 359.355 172.834C357.609 172.21 355.716 171.936 355.309 172.644C354.763 173.596 357.1 175.971 358.999 177.123C358.885 177.109 358.765 177.098 358.637 177.089C356.42 176.938 352.954 177.621 352.877 178.75C352.823 179.542 354.454 180.343 356.197 180.803C354.461 181.455 352.84 182.469 352.987 183.272C353.165 184.247 355.89 184.589 358.033 184.389C356.432 185.924 354.697 188.675 355.421 189.482C355.952 190.073 357.662 189.461 359.206 188.531C358.465 190.23 358.063 192.1 358.742 192.554C359.639 193.154 362.099 191.065 363.397 189.268C363.264 191.467 363.791 194.488 364.835 194.607C365.624 194.697 366.498 193.105 367.037 191.384C367.609 193.148 368.548 194.814 369.358 194.704C370.41 194.56 370.869 191.464 370.672 189.263C372.011 190.987 374.263 192.83 375.112 192.261C375.791 191.807 375.389 189.938 374.647 188.238C376.192 189.168 377.902 189.78 378.433 189.189C379.157 188.383 377.422 185.632 375.821 184.096C377.964 184.296 380.688 183.955 380.867 182.98C381.014 182.176 379.393 181.162 377.657 180.51ZM368.269 186.73C367.821 186.791 367.411 186.878 367.1 187.101C366.769 186.772 366.285 186.672 365.748 186.611C365.146 186.542 364.599 186.536 364.181 186.883C364.029 186.459 363.653 186.157 363.216 185.865C362.84 185.613 362.476 185.407 362.095 185.367C362.065 184.902 361.769 184.506 361.408 184.103C361.177 183.847 360.946 183.617 360.69 183.464C361.06 183.014 361.017 182.446 360.903 181.822C360.821 181.377 360.716 180.972 360.479 180.671C360.792 180.325 360.87 179.837 360.907 179.297C360.947 178.708 360.93 178.173 360.59 177.775C361.469 177.887 361.893 177.34 362.288 176.653C362.513 176.261 362.694 175.883 362.708 175.5C363.171 175.439 363.545 175.117 363.922 174.729C364.244 174.397 364.518 174.069 364.621 173.691C364.99 174.001 365.493 174.048 366.049 174.048C366.59 174.048 367.082 174.003 367.448 173.714C367.732 173.971 368.13 174.105 368.568 174.216C368.986 174.323 369.381 174.394 369.74 174.322C369.871 174.622 370.104 174.894 370.371 175.168C370.748 175.556 371.122 175.878 371.585 175.939C371.598 176.322 371.78 176.7 372.005 177.092C372.27 177.554 372.549 177.953 372.97 178.131C372.921 178.399 372.926 178.694 372.947 179.005C372.984 179.545 373.062 180.032 373.375 180.378C373.138 180.679 373.032 181.084 372.951 181.529C372.837 182.153 372.794 182.721 373.163 183.171C372.907 183.325 372.677 183.554 372.446 183.811C372.084 184.213 371.789 184.609 371.759 185.074C371.378 185.114 371.013 185.321 370.638 185.572C370.124 185.916 369.696 186.272 369.614 186.824C369.229 186.637 368.768 186.662 368.269 186.73Z" fill="#FEC054"/>
<path d="M367.073 187.803C371.114 187.803 374.39 184.527 374.39 180.486C374.39 176.446 371.114 173.17 367.073 173.17C363.032 173.17 359.757 176.446 359.757 180.486C359.757 184.527 363.032 187.803 367.073 187.803Z" fill="#3F3D56"/>
<path d="M391.15 217.125L390.995 217.129L391.694 248.923L391.85 248.919L391.15 217.125Z" fill="#ADEC28"/>
<path d="M391.364 231.171C391.356 231.143 390.585 228.422 392.204 225.826L392.336 225.908C390.754 228.446 391.506 231.1 391.513 231.127L391.364 231.171Z" fill="#ADEC28"/>
<path d="M392.243 225.974C392.243 225.974 391.743 222.56 396.345 221.623C397.303 221.428 398.205 221.294 399.031 221.205C400.006 221.101 400.386 222.435 399.505 222.867C398.23 223.491 397.03 224.278 396.404 225.209C394.679 227.779 392.243 225.974 392.243 225.974Z" fill="#3CA023"/>
<path d="M391.636 241.043L391.486 240.999C391.494 240.973 392.244 238.316 390.664 235.781L390.796 235.699C392.414 238.294 391.643 241.016 391.636 241.043Z" fill="#A2DE28"/>
<path d="M390.757 235.846C390.757 235.846 391.257 232.433 386.655 231.496C385.697 231.3 384.795 231.167 383.969 231.078C382.994 230.973 382.614 232.308 383.495 232.739C384.77 233.364 385.971 234.15 386.596 235.082C388.321 237.651 390.757 235.846 390.757 235.846Z" fill="#3CA023"/>
<path d="M397.161 212.708C398.088 212.464 398.954 212.039 398.925 211.618C398.891 211.118 397.605 210.783 396.496 210.732C397.332 210.077 398.101 209.172 397.866 208.763C397.65 208.387 396.644 208.532 395.717 208.864C396.266 208.079 396.652 207.194 396.358 206.892C395.992 206.515 394.692 207.165 393.805 207.885C393.978 206.764 393.891 205.35 393.388 205.222C392.967 205.114 392.371 205.937 391.963 206.834C391.782 205.893 391.417 205 390.995 205C390.394 205 389.906 206.812 389.906 207.993C389.906 208.06 389.908 208.122 389.911 208.182C389.851 208.112 389.782 208.039 389.703 207.963C388.856 207.14 387.216 206.227 386.798 206.658C386.504 206.961 386.89 207.846 387.439 208.63C386.511 208.299 385.506 208.153 385.289 208.53C384.999 209.035 386.24 210.297 387.249 210.909C387.189 210.902 387.125 210.896 387.057 210.891C385.879 210.811 384.038 211.174 383.997 211.773C383.969 212.194 384.835 212.62 385.761 212.864C384.839 213.21 383.977 213.749 384.055 214.176C384.15 214.694 385.598 214.875 386.736 214.769C385.886 215.585 384.964 217.046 385.349 217.475C385.63 217.789 386.539 217.464 387.36 216.969C386.966 217.872 386.752 218.866 387.113 219.107C387.589 219.426 388.896 218.316 389.586 217.361C389.515 218.529 389.795 220.134 390.35 220.197C390.769 220.245 391.233 219.399 391.519 218.485C391.824 219.422 392.322 220.307 392.752 220.249C393.311 220.173 393.555 218.528 393.451 217.359C394.162 218.274 395.358 219.253 395.81 218.951C396.17 218.71 395.956 217.717 395.563 216.814C396.383 217.308 397.292 217.633 397.574 217.319C397.959 216.891 397.037 215.429 396.186 214.614C397.324 214.72 398.772 214.538 398.867 214.02C398.945 213.594 398.084 213.055 397.161 212.708ZM392.174 216.013C391.936 216.045 391.719 216.091 391.553 216.21C391.377 216.035 391.12 215.982 390.835 215.95C390.515 215.913 390.224 215.909 390.003 216.094C389.922 215.869 389.722 215.709 389.49 215.553C389.29 215.42 389.096 215.31 388.894 215.289C388.878 215.041 388.721 214.831 388.529 214.617C388.407 214.481 388.284 214.359 388.148 214.278C388.344 214.039 388.322 213.737 388.261 213.405C388.218 213.169 388.161 212.954 388.035 212.794C388.202 212.61 388.243 212.351 388.263 212.064C388.284 211.751 388.275 211.467 388.095 211.256C388.562 211.315 388.787 211.024 388.997 210.659C389.116 210.451 389.213 210.25 389.22 210.047C389.466 210.014 389.665 209.843 389.865 209.637C390.036 209.461 390.181 209.287 390.236 209.086C390.432 209.251 390.7 209.275 390.995 209.275C391.282 209.275 391.543 209.252 391.738 209.098C391.889 209.235 392.1 209.306 392.333 209.365C392.555 209.421 392.765 209.459 392.956 209.421C393.025 209.58 393.149 209.725 393.291 209.87C393.491 210.077 393.69 210.247 393.936 210.28C393.943 210.484 394.039 210.684 394.159 210.893C394.3 211.138 394.448 211.35 394.671 211.445C394.645 211.587 394.648 211.744 394.659 211.909C394.679 212.196 394.72 212.455 394.887 212.638C394.761 212.798 394.705 213.014 394.661 213.25C394.601 213.581 394.578 213.883 394.774 214.122C394.638 214.204 394.516 214.326 394.393 214.462C394.201 214.676 394.044 214.886 394.028 215.133C393.826 215.154 393.632 215.264 393.432 215.398C393.16 215.58 392.932 215.769 392.889 216.063C392.684 215.964 392.439 215.976 392.174 216.013Z" fill="#FEC054"/>
<path d="M391.539 216.583C393.685 216.583 395.425 214.842 395.425 212.696C395.425 210.549 393.685 208.809 391.539 208.809C389.392 208.809 387.652 210.549 387.652 212.696C387.652 214.842 389.392 216.583 391.539 216.583Z" fill="#3F3D56"/>
<path d="M24.4095 213.19C23.5697 211.966 21.8853 211.632 20.4096 211.792C18.934 211.952 17.5155 212.494 16.0352 212.602C14.8151 212.691 13.5934 212.482 12.3701 212.475C10.7795 212.466 9.18775 212.803 7.73775 213.457C2.98849 215.599 0.286093 220.948 0.025336 226.151C-0.235421 231.355 1.55295 236.442 3.71465 241.182C4.96398 243.922 6.51702 246.775 9.21068 248.121C11.3523 249.19 13.8617 249.122 16.2538 249.03C19.8141 248.892 23.3743 248.755 26.9346 248.618C28.6511 248.552 30.3677 248.485 32.0843 248.419C34.5333 248.325 37.0053 248.227 39.3761 247.606C44.8784 246.164 49.505 241.752 51.2065 236.324C52.9537 230.751 51.6651 224.549 48.8105 219.454C47.0628 216.334 44.5228 213.386 41.0755 212.436C39.2213 211.925 37.2603 212.035 35.3405 212.149C31.8421 212.357 28.3437 212.565 24.8453 212.773" fill="#ED6948"/>
<path d="M23.5216 214.037C23.5216 214.037 17.3387 215.65 21.1022 215.65C24.8657 215.65 29.3637 215.65 29.2652 214.844C29.1668 214.037 22.7151 201.134 21.9086 201.134C21.1022 201.134 16.5322 201.94 18.4139 203.822C20.2957 205.704 23.5216 214.037 23.5216 214.037Z" fill="#3F3D56"/>
<path d="M25.021 245.755C18.9215 241.282 22.1683 218.72 22.3096 217.761L22.71 217.82C22.6758 218.053 19.3563 241.099 25.2605 245.429L25.021 245.755Z" fill="#3F3D56"/>
<path d="M14.3373 243.765C9.59 234.903 11.4561 227.818 13.8576 223.435C16.4557 218.693 20.2306 216.007 20.2684 215.98L20.5012 216.311C20.464 216.337 16.7564 218.979 14.205 223.643C11.8571 227.936 10.0361 234.879 14.6942 243.574C14.6942 243.574 14.3373 243.765 14.3373 243.765Z" fill="#3F3D56"/>
<path d="M34.4142 245.657L34.0304 245.527C38.475 232.317 28.6117 216.614 28.5117 216.457L28.8528 216.239C28.8781 216.279 31.4051 220.27 33.3416 225.857C35.132 231.022 36.7714 238.65 34.4142 245.657Z" fill="#3F3D56"/>
<path d="M46.0114 242.93L45.6074 242.907C46.2963 230.773 42.6768 223.917 39.5189 220.301C36.1097 216.398 32.5081 215.339 32.4722 215.328L32.5828 214.939C32.7346 214.982 36.3364 216.042 39.8239 220.035C43.0312 223.707 46.7082 230.66 46.0114 242.93Z" fill="#3F3D56"/>
<path d="M4.60366 232.379C3.56013 227.591 4.14969 223.574 6.35612 220.44C9.99029 215.28 16.8495 214.335 16.9183 214.326L16.9705 214.727C16.9033 214.736 10.2146 215.661 6.68519 220.676C4.54833 223.713 3.98111 227.621 4.99933 232.293L4.60366 232.379Z" fill="#3F3D56"/>
<path d="M19.9081 214.108C19.835 214.081 12.5465 211.349 9.10637 214.078L8.85498 213.761C12.4755 210.889 19.7448 213.613 20.0524 213.73L19.9081 214.108Z" fill="#3F3D56"/>
<path d="M26.4566 213.524C26.4553 213.497 26.3566 210.757 29.4696 209.796L29.589 210.182C26.7837 211.049 26.8565 213.405 26.861 213.505C26.861 213.505 26.4566 213.524 26.4566 213.524Z" fill="#3F3D56"/>
<path d="M29.6916 215.254L29.3667 215.013C29.4037 214.963 33.1234 210.059 38.463 211.907L38.3306 212.289C33.274 210.539 29.7268 215.207 29.6916 215.254Z" fill="#3F3D56"/>
<defs>
<linearGradient id="paint0_linear_304_193" x1="695.714" y1="213.405" x2="694.714" y2="252.778" gradientUnits="userSpaceOnUse">
<stop stop-color="#B7F329"/>
<stop offset="0.970519" stop-color="#208D22"/>
</linearGradient>
<linearGradient id="paint1_linear_304_193" x1="642.385" y1="203.258" x2="674.078" y2="242.842" gradientUnits="userSpaceOnUse">
<stop stop-color="#B7F329"/>
<stop offset="0.970519" stop-color="#208D22"/>
</linearGradient>
<linearGradient id="paint2_linear_304_193" x1="667.74" y1="212.163" x2="680.507" y2="249.422" gradientUnits="userSpaceOnUse">
<stop stop-color="#B7F329"/>
<stop offset="0.970519" stop-color="#208D22"/>
</linearGradient>
<linearGradient id="paint3_linear_304_193" x1="641.714" y1="213.405" x2="640.714" y2="252.778" gradientUnits="userSpaceOnUse">
<stop stop-color="#B7F329"/>
<stop offset="0.970519" stop-color="#208D22"/>
</linearGradient>
<linearGradient id="paint4_linear_304_193" x1="588.385" y1="203.258" x2="620.078" y2="242.842" gradientUnits="userSpaceOnUse">
<stop stop-color="#B7F329"/>
<stop offset="0.970519" stop-color="#208D22"/>
</linearGradient>
<linearGradient id="paint5_linear_304_193" x1="613.74" y1="212.163" x2="626.507" y2="249.422" gradientUnits="userSpaceOnUse">
<stop stop-color="#B7F329"/>
<stop offset="0.970519" stop-color="#208D22"/>
</linearGradient>
</defs>
</svg>
