<svg width="436" height="227" viewBox="0 0 436 227" fill="none" xmlns="http://www.w3.org/2000/svg">
<path d="M165.58 93L145.875 23.1818H159.477L172.057 74.4886H172.705L186.136 23.1818H198.511L211.977 74.5227H212.591L225.17 23.1818H238.773L219.068 93H206.591L192.614 44.0114H192.068L178.057 93H165.58ZM318.435 93V40.6364H330.401V49.3636H330.946C331.901 46.3409 333.537 44.0114 335.855 42.375C338.196 40.7159 340.866 39.8864 343.866 39.8864C344.548 39.8864 345.31 39.9205 346.151 39.9886C347.014 40.0341 347.73 40.1136 348.298 40.2273V51.5795C347.776 51.3977 346.946 51.2386 345.81 51.1023C344.696 50.9432 343.616 50.8636 342.571 50.8636C340.321 50.8636 338.298 51.3523 336.503 52.3295C334.73 53.2841 333.332 54.6136 332.31 56.3182C331.287 58.0227 330.776 59.9886 330.776 62.2159V93H318.435ZM368.838 23.1818V93H356.497V23.1818H368.838ZM400.96 93.9205C396.847 93.9205 393.165 92.8636 389.915 90.75C386.665 88.6364 384.097 85.5682 382.21 81.5455C380.324 77.5227 379.381 72.6364 379.381 66.8864C379.381 61.0682 380.335 56.1591 382.244 52.1591C384.176 48.1364 386.778 45.1023 390.051 43.0568C393.324 40.9886 396.972 39.9545 400.994 39.9545C404.063 39.9545 406.585 40.4773 408.562 41.5227C410.54 42.5455 412.108 43.7841 413.267 45.2386C414.426 46.6705 415.324 48.0227 415.96 49.2955H416.472V23.1818H428.847V93H416.71V84.75H415.96C415.324 86.0227 414.403 87.375 413.199 88.8068C411.994 90.2159 410.403 91.4205 408.426 92.4205C406.449 93.4205 403.96 93.9205 400.96 93.9205ZM404.403 83.7955C407.017 83.7955 409.244 83.0909 411.085 81.6818C412.926 80.25 414.324 78.2614 415.278 75.7159C416.233 73.1705 416.71 70.2045 416.71 66.8182C416.71 63.4318 416.233 60.4886 415.278 57.9886C414.347 55.4886 412.96 53.5455 411.119 52.1591C409.301 50.7727 407.063 50.0795 404.403 50.0795C401.653 50.0795 399.358 50.7955 397.517 52.2273C395.676 53.6591 394.29 55.6364 393.358 58.1591C392.426 60.6818 391.96 63.5682 391.96 66.8182C391.96 70.0909 392.426 73.0114 393.358 75.5795C394.313 78.125 395.71 80.1364 397.551 81.6136C399.415 83.0682 401.699 83.7955 404.403 83.7955Z" fill="#AEED28"/>
<path d="M6.88636 204V134.182H33.0682C38.4318 134.182 42.9318 135.182 46.5682 137.182C50.2273 139.182 52.9886 141.932 54.8523 145.432C56.7386 148.909 57.6818 152.864 57.6818 157.295C57.6818 161.773 56.7386 165.75 54.8523 169.227C52.9659 172.705 50.1818 175.443 46.5 177.443C42.8182 179.42 38.2841 180.409 32.8977 180.409H15.5455V170.011H31.1932C34.3295 170.011 36.8977 169.466 38.8977 168.375C40.8977 167.284 42.375 165.784 43.3295 163.875C44.3068 161.966 44.7955 159.773 44.7955 157.295C44.7955 154.818 44.3068 152.636 43.3295 150.75C42.375 148.864 40.8864 147.398 38.8636 146.352C36.8636 145.284 34.2841 144.75 31.125 144.75H19.5341V204H6.88636ZM130.815 205.057C127.497 205.057 124.509 204.466 121.849 203.284C119.213 202.08 117.122 200.307 115.577 197.966C114.054 195.625 113.293 192.739 113.293 189.307C113.293 186.352 113.838 183.909 114.929 181.977C116.02 180.045 117.509 178.5 119.395 177.341C121.281 176.182 123.406 175.307 125.77 174.716C128.156 174.102 130.622 173.659 133.168 173.386C136.236 173.068 138.724 172.784 140.634 172.534C142.543 172.261 143.929 171.852 144.793 171.307C145.679 170.739 146.122 169.864 146.122 168.682V168.477C146.122 165.909 145.361 163.92 143.838 162.511C142.315 161.102 140.122 160.398 137.259 160.398C134.236 160.398 131.838 161.057 130.065 162.375C128.315 163.693 127.134 165.25 126.52 167.045L114.997 165.409C115.906 162.227 117.406 159.568 119.497 157.432C121.588 155.273 124.145 153.659 127.168 152.591C130.19 151.5 133.531 150.955 137.19 150.955C139.713 150.955 142.224 151.25 144.724 151.841C147.224 152.432 149.509 153.409 151.577 154.773C153.645 156.114 155.304 157.943 156.554 160.261C157.827 162.58 158.463 165.477 158.463 168.955V204H146.599V196.807H146.19C145.44 198.261 144.384 199.625 143.02 200.898C141.679 202.148 139.986 203.159 137.94 203.932C135.918 204.682 133.543 205.057 130.815 205.057ZM134.02 195.989C136.497 195.989 138.645 195.5 140.463 194.523C142.281 193.523 143.679 192.205 144.656 190.568C145.656 188.932 146.156 187.148 146.156 185.216V179.045C145.77 179.364 145.111 179.659 144.179 179.932C143.27 180.205 142.247 180.443 141.111 180.648C139.974 180.852 138.849 181.034 137.736 181.193C136.622 181.352 135.656 181.489 134.838 181.602C132.997 181.852 131.349 182.261 129.895 182.83C128.44 183.398 127.293 184.193 126.452 185.216C125.611 186.216 125.19 187.511 125.19 189.102C125.19 191.375 126.02 193.091 127.679 194.25C129.338 195.409 131.452 195.989 134.02 195.989ZM183.213 173.318V204H170.872V151.636H182.668V160.534H183.281C184.486 157.602 186.406 155.273 189.043 153.545C191.702 151.818 194.986 150.955 198.895 150.955C202.509 150.955 205.656 151.727 208.338 153.273C211.043 154.818 213.134 157.057 214.611 159.989C216.111 162.92 216.849 166.477 216.827 170.659V204H204.486V172.568C204.486 169.068 203.577 166.33 201.759 164.352C199.963 162.375 197.474 161.386 194.293 161.386C192.134 161.386 190.213 161.864 188.531 162.818C186.872 163.75 185.565 165.102 184.611 166.875C183.679 168.648 183.213 170.795 183.213 173.318ZM255.52 151.636V161.182H225.418V151.636H255.52ZM232.849 139.091H245.19V188.25C245.19 189.909 245.44 191.182 245.94 192.068C246.463 192.932 247.145 193.523 247.986 193.841C248.827 194.159 249.759 194.318 250.781 194.318C251.554 194.318 252.259 194.261 252.895 194.148C253.554 194.034 254.054 193.932 254.395 193.841L256.474 203.489C255.815 203.716 254.872 203.966 253.645 204.239C252.44 204.511 250.963 204.67 249.213 204.716C246.122 204.807 243.338 204.341 240.861 203.318C238.384 202.273 236.418 200.659 234.963 198.477C233.531 196.295 232.827 193.568 232.849 190.295V139.091ZM306.477 165.477L295.227 166.705C294.909 165.568 294.352 164.5 293.557 163.5C292.784 162.5 291.739 161.693 290.42 161.08C289.102 160.466 287.489 160.159 285.58 160.159C283.011 160.159 280.852 160.716 279.102 161.83C277.375 162.943 276.523 164.386 276.545 166.159C276.523 167.682 277.08 168.92 278.216 169.875C279.375 170.83 281.284 171.614 283.943 172.227L292.875 174.136C297.83 175.205 301.511 176.898 303.92 179.216C306.352 181.534 307.58 184.568 307.602 188.318C307.58 191.614 306.614 194.523 304.705 197.045C302.818 199.545 300.193 201.5 296.83 202.909C293.466 204.318 289.602 205.023 285.239 205.023C278.83 205.023 273.67 203.682 269.761 201C265.852 198.295 263.523 194.534 262.773 189.716L274.807 188.557C275.352 190.92 276.511 192.705 278.284 193.909C280.057 195.114 282.364 195.716 285.205 195.716C288.136 195.716 290.489 195.114 292.261 193.909C294.057 192.705 294.955 191.216 294.955 189.443C294.955 187.943 294.375 186.705 293.216 185.727C292.08 184.75 290.307 184 287.898 183.477L278.966 181.602C273.943 180.557 270.227 178.795 267.818 176.318C265.409 173.818 264.216 170.659 264.239 166.841C264.216 163.614 265.091 160.818 266.864 158.455C268.659 156.068 271.148 154.227 274.33 152.932C277.534 151.614 281.227 150.955 285.409 150.955C291.545 150.955 296.375 152.261 299.898 154.875C303.443 157.489 305.636 161.023 306.477 165.477Z" fill="#AEED28"/>
<path d="M103.925 201.891C103.925 201.891 93.0879 201.437 91.946 180.39C90.8042 159.344 102.099 155.777 102.099 155.777C102.099 155.777 105.699 153.792 107.268 153.711C108.837 153.629 114.155 154.124 114.155 154.124L108.307 153.007C108.307 153.007 116.536 149.899 119 149.654L110.107 151.517C110.107 151.517 109.979 146.629 112.108 145.011C112.108 145.011 110.292 144.879 109.325 148.399C109.051 149.414 108.541 150.352 107.837 151.137C107.132 151.922 106.252 152.532 105.267 152.92C101.965 154.195 97.4083 156.211 96.3693 157.935C96.3693 157.935 94.4457 159.925 94.7389 154.746C95.032 149.568 96.4105 145.134 96.9094 145.011C96.9094 145.011 100.834 140.873 106.347 140.623C106.347 140.623 103.133 139.338 97.7066 143.358C97.7066 143.358 97.2437 141.317 99.2907 138.924C101.338 136.531 104.511 131.47 107.978 130.929C107.978 130.929 103.133 130.643 99.2907 136.853C99.2907 136.853 97.8712 137.766 97.7477 135.445C97.5892 133.679 97.2672 131.932 96.7859 130.225C96.7859 130.225 95.6184 135.572 98.082 137.97C98.082 137.97 93.3605 144.062 93.5713 150.894C93.5713 150.894 92.1106 154.002 91.5654 150.359C91.5654 150.359 91.2517 145.338 90.6242 141.078C90.3703 139.362 90.4758 137.613 90.9342 135.939C91.3927 134.266 92.1941 132.705 93.2884 131.353C94.3171 130.067 95.0578 128.801 94.6566 128.153L89.1892 134.618C89.1892 134.618 84.5962 124.056 81.253 121.776C77.9099 119.495 77.4984 119 77.4984 119L82.8835 125.255L76.12 122.898L82.8835 126C82.8835 126 86.0158 128.551 87.8108 135.445C89.6058 142.338 89.7704 146.67 89.7704 146.67C89.7704 146.67 80.1266 139.093 78.2905 139.338L84.5293 144.022C86.227 145.295 87.6294 146.915 88.6419 148.772C89.6543 150.63 90.2531 152.681 90.3979 154.787C90.3979 154.787 78.3316 151.726 75.4102 151.144L69.8965 145.532L74.0729 150.833L65.4733 150.711L60.546 147.231C60.546 147.231 64.4292 150.461 64.0537 150.67C63.6782 150.879 58 151.124 58 151.124C58 151.124 72.4425 151.042 74.0318 152.078C75.6211 153.114 79.1751 153.486 79.1751 153.486L68.945 155.017L81.1399 154.144C81.1399 154.144 90.367 155.803 90.8659 158.66C90.8659 158.66 88.9886 163.527 87.7336 165.456C86.705 167.058 84.6065 172.247 84.1847 176.804C83.763 181.36 83.1869 188.36 84.7711 192.621C86.3552 196.881 86.9416 199.33 86.1495 200.616C85.3574 201.902 84.6065 203.555 87.1782 203.886C89.7498 204.218 101.122 203.718 101.122 203.718C101.122 203.718 104.594 204.427 103.925 201.891Z" fill="#AEED28"/>
<circle cx="270.422" cy="55.4215" r="28.8834" fill="#04112D" stroke="#04112D" stroke-width="6"/>
<path d="M278.339 75.9085C278.339 75.9085 272.832 75.6734 272.251 64.7786C271.671 53.8838 277.411 52.0376 277.411 52.0376C277.411 52.0376 279.241 51.0102 280.038 50.9679C280.835 50.9256 283.538 51.1818 283.538 51.1818L280.566 50.6034C280.566 50.6034 284.748 48.9949 286 48.8682L281.481 49.8322C281.481 49.8322 281.415 47.3019 282.497 46.4647C282.497 46.4647 281.575 46.396 281.083 48.2184C280.944 48.744 280.685 49.2293 280.327 49.6356C279.969 50.0419 279.522 50.358 279.021 50.5585C277.343 51.2188 275.027 52.2621 274.499 53.1548C274.499 53.1548 273.522 54.1848 273.671 51.5041C273.82 48.8233 274.52 46.5281 274.774 46.4647C274.774 46.4647 276.768 44.3227 279.57 44.1933C279.57 44.1933 277.936 43.5277 275.179 45.609C275.179 45.609 274.944 44.5525 275.984 43.3138C277.024 42.0751 278.637 39.455 280.399 39.1751C280.399 39.1751 277.936 39.0272 275.984 42.2415C275.984 42.2415 275.262 42.7142 275.2 41.5125C275.119 40.5986 274.955 39.6942 274.711 38.8106C274.711 38.8106 274.118 41.5785 275.37 42.8199C275.37 42.8199 272.97 45.9734 273.077 49.51C273.077 49.51 272.335 51.1184 272.058 49.2326C272.058 49.2326 271.898 46.6337 271.58 44.4284C271.45 43.5403 271.504 42.6349 271.737 41.7687C271.97 40.9025 272.377 40.0942 272.933 39.3943C273.456 38.7287 273.833 38.0737 273.629 37.7383L270.85 41.0846C270.85 41.0846 268.516 35.6174 266.817 34.4368C265.118 33.2562 264.909 33 264.909 33L267.646 36.2381L264.209 35.0179L267.646 36.6237C267.646 36.6237 269.238 37.9443 270.15 41.5125C271.062 45.0807 271.146 47.3231 271.146 47.3231C271.146 47.3231 266.245 43.4009 265.312 43.5277L268.482 45.9523C269.345 46.6115 270.058 47.4502 270.572 48.4116C271.087 49.373 271.391 50.4348 271.465 51.5252C271.465 51.5252 265.332 49.9405 263.848 49.6394L261.046 46.7341L263.168 49.4783L258.798 49.4149L256.294 47.6136C256.294 47.6136 258.267 49.2855 258.076 49.3938C257.886 49.5021 255 49.6288 255 49.6288C255 49.6288 262.34 49.5866 263.147 50.1227C263.955 50.6589 265.761 50.8517 265.761 50.8517L260.562 51.644L266.76 51.1924C266.76 51.1924 271.449 52.0508 271.702 53.5298C271.702 53.5298 270.748 56.0495 270.111 57.0479C269.588 57.8772 268.521 60.5633 268.307 62.9218C268.093 65.2804 267.8 68.9041 268.605 71.1095C269.41 73.3149 269.708 74.5826 269.305 75.2482C268.903 75.9138 268.521 76.7695 269.828 76.9412C271.135 77.1129 276.914 76.854 276.914 76.854C276.914 76.854 278.679 77.2212 278.339 75.9085Z" fill="#AEED28"/>
<path d="M298.95 28.9499C305.859 36.6278 309.435 46.7358 308.891 57.0503C308.347 67.3648 303.728 77.0409 296.05 83.9499C288.372 90.8589 278.264 94.4349 267.95 93.8912C257.635 93.3474 247.959 88.7286 241.05 81.0507L243.192 79.1235C249.59 86.2334 258.55 90.5105 268.102 91.014C277.653 91.5175 287.013 88.2061 294.123 81.8082C301.233 75.4103 305.51 66.4501 306.014 56.8987C306.517 47.3472 303.206 37.987 296.808 30.8771L298.95 28.9499Z" fill="#EE684A"/>
<rect x="297.531" y="27.3896" width="2.56779" height="9.41242" transform="rotate(47.7531 297.531 27.3896)" fill="#EE684A"/>
<rect x="246.791" y="73.6104" width="2.56779" height="9.41242" transform="rotate(47.7531 246.791 73.6104)" fill="#EE684A"/>
<rect x="270.208" y="92.8687" width="2.56779" height="6.41948" fill="#EE684A"/>
<rect x="258.224" y="99.2881" width="27.3898" height="3.42372" rx="1.71186" fill="#EE684A"/>
</svg>
