<svg width="300" height="300" viewBox="0 0 300 300" fill="none" xmlns="http://www.w3.org/2000/svg">
<path d="M227.24 64.5955C227.975 65.4039 230.643 64.5802 235.948 62.9002C239.981 61.623 240.602 61.1583 240.985 60.8251C242.334 59.6537 242.687 58.4219 244.023 52.98C246.421 43.2127 246.495 42.2428 247.726 40.1701C248.15 39.4564 249.221 37.7538 248.96 37.5429C248.691 37.326 247.532 39.0997 245.39 39.7698C243.303 40.4229 242.363 39.3767 240.581 39.6431C238.277 39.9876 236.907 42.1754 234.759 45.7167C232.856 48.8528 232.617 50.1144 229.949 56.3455C229.193 58.1106 228.585 59.4768 228.117 60.5566C222.88 65.4438 217.685 70.3955 212.538 75.3902C212.637 75.2384 212.73 75.0954 212.811 74.971C215.091 71.4711 215.401 69.5948 215.368 68.1888C215.315 65.911 214.226 64.1761 212.052 60.799C209.922 57.4898 207.903 55.3063 205.471 52.7006C202.283 49.2852 200.689 47.5773 200.054 47.6897C195.52 48.4919 194.308 79.3576 200.012 84.8776C199.212 85.4495 198.549 86.0486 198.069 86.6378C193.186 81.2171 184.82 75.161 175.553 74.4153C169.84 73.9556 166.687 75.748 165.706 76.3637C161.175 79.2092 158.48 84.9046 159.833 86.5117C161.095 88.0103 164.74 84.6035 171.882 84.7911C176.866 84.9221 180.76 86.7297 183.071 87.803C187.919 90.0543 189.693 92.2675 193.267 93.7838C191.592 95.1644 190.264 96.8874 189.43 98.4946C189.141 98.7921 188.854 99.0913 188.565 99.3893C184.877 97.3111 180.723 95.7867 176.369 95.4364C170.656 94.9766 167.503 96.769 166.522 97.3848C163.468 99.3026 161.255 102.512 160.547 104.894C160.084 104.987 159.655 105.093 159.263 105.208C157.878 102.08 153.758 98.781 149.927 97.1185C143.333 94.2567 134.767 95.0152 133.85 97.7367C133.821 97.8234 133.813 97.9089 133.8 97.9947C134.523 92.1636 135.505 86.3731 136.731 80.6249C136.773 80.7888 136.825 80.9549 136.895 81.1296C138.522 85.2173 142.921 89.1408 148.917 91.1763C153.624 92.7738 155.595 91.9458 156.095 91.7145C156.574 91.4935 158.64 90.6069 159.146 88.844C160.084 85.5756 154.337 75.9161 150.712 79.1561C139.064 89.5659 137.466 81.1367 136.931 79.7178C137.921 75.1733 139.061 70.6547 140.339 66.162C140.361 66.1895 140.38 66.2165 140.403 66.2442C142.948 69.3297 147.846 71.5035 153.601 71.5995C158.118 71.6749 159.593 70.4108 159.962 70.0715C160.315 69.7474 161.857 68.4062 161.805 66.7398C161.709 63.6505 156.212 61.1344 151.813 60.6981C147.76 60.2961 143.396 61.5367 141.231 63.1077C142.237 59.7433 143.32 56.3934 144.475 53.0581C147.433 54.266 151.623 54.1036 155.739 52.264C159.134 50.7471 159.794 49.2905 159.951 48.9089C160.101 48.5445 160.783 47.0074 160.164 45.7829C159.016 43.5127 154.04 43.5511 150.608 44.7576C149.195 45.2546 147.851 46.0191 146.7 46.8834C148.747 41.4166 150.978 35.9888 153.378 30.6011L150.973 30C147.907 36.8826 145.235 43.8549 142.938 50.9043C142.653 48.8369 141.937 46.6344 140.995 44.845C138.224 39.5835 132.305 35.6362 130.304 36.9169C129.904 37.1731 129.735 37.5903 129.583 38.087C128.356 42.0841 129.28 47.608 132.511 52.6831C135.047 56.6664 137 57.2256 137.509 57.3521C137.938 57.4589 139.597 57.9167 140.96 57.327C140.043 60.4676 139.195 63.6217 138.422 66.79C137.492 64.4812 135.659 62.0213 133.721 60.3202C129.251 56.3977 122.312 54.8281 120.901 56.7398C120.619 57.1222 120.611 57.5721 120.646 58.0905C120.931 62.2619 123.77 67.0898 128.603 70.6737C132.396 73.4865 134.42 73.3102 134.94 73.2464C135.247 73.2088 136.172 73.1167 137.065 72.7133C136.236 76.5628 135.512 80.431 134.886 84.3155C133.635 79.97 129.383 74.5488 125.37 76.2735C118.249 79.334 109.879 74.6329 108.957 76.6886C108.718 77.2236 108.916 77.7751 109.145 78.3735C110.99 83.1894 116.085 87.8556 123.082 90.3335C128.572 92.2784 130.895 91.3384 131.486 91.0749C131.877 90.9003 133.168 90.361 134.13 89.3602C133.439 94.3516 132.909 99.3684 132.535 104.407C131.051 101.166 126.869 97.7518 122.954 95.9914C116.087 92.9035 107.106 93.5799 106.108 96.4175C105.909 96.9851 106.066 97.5326 106.301 98.1469C108.195 103.09 113.424 107.879 120.605 110.423C126.241 112.419 128.625 111.454 129.231 111.184C129.674 110.986 131.238 110.333 132.235 109.093C132.107 111.422 132.008 113.755 131.946 116.093C131.928 116.759 131.918 117.425 131.905 118.09C131.824 118.221 131.754 118.355 131.707 118.495C131.514 119.066 131.645 119.615 131.871 120.216C131.866 120.639 131.863 121.061 131.861 121.484C130.604 120.346 129.105 118.634 127.303 116.194C125.676 113.993 124.131 115.608 123.139 117.482C121.584 117.136 120.1 117.35 118.933 118.44C111.108 125.748 102.331 121.871 102.207 124.05C102.171 124.679 102.508 125.179 102.933 125.721C106.349 130.084 113.057 133.268 121.025 133.603C127.279 133.867 129.368 132.167 129.891 131.71C130.075 131.55 130.487 131.203 130.933 130.716C131.291 131.002 131.64 131.261 131.989 131.498C132.127 135.681 132.373 139.86 132.738 144.031C132.441 144.057 132.157 144.106 131.946 144.128C128.917 144.436 127.896 140.35 123.32 138.857C121.8 138.362 118.872 137.821 117.33 138.857C117.107 139.007 116.349 139.568 115.173 140.055C114.478 140.343 113.946 140.477 113.735 140.534C111.858 141.048 110.119 142.456 108.943 143.409C106.733 145.199 105.628 146.095 105.109 147.721C104.946 148.233 104.487 149.673 105.109 151.075C105.403 151.737 106.086 152.723 108.703 153.71C110.259 154.297 114.796 156.008 120.205 154.189C121.436 153.775 120.496 153.923 125.237 151.554C128.966 149.69 131.148 148.799 131.467 147.002C131.579 146.371 131.466 145.601 131.946 145.325C132.213 145.173 132.536 145.247 132.858 145.363C133.171 148.716 133.563 152.064 134.038 155.405H129.771C124.104 155.405 119.02 158.558 116.504 163.634L100.541 195.831C99.5328 197.863 99 200.137 99 202.405V285.196C99 293.359 105.643 300 113.807 300H151.068C159.233 300 165.875 293.359 165.875 285.196V208.962C165.875 207.103 165.531 205.284 164.852 203.553L149.638 164.8C147.793 160.1 143.796 156.776 139.019 155.746C140.551 153.93 142.086 152.116 143.633 150.307C145.58 151.246 147.723 152.017 150.026 152.559C156.119 153.991 158.49 152.714 159.09 152.363C159.662 152.028 162.145 150.666 162.566 148.395C162.611 148.151 162.628 147.905 162.625 147.657C168.867 152.73 172.123 155.23 174.502 154.397C176.547 153.68 177.715 151.331 178.383 149.223C179.081 149.32 179.822 149.419 180.611 149.525C189.16 150.666 193.468 151.195 195.116 149.171C197.396 146.369 195.232 140.967 194.635 139.478C193.338 136.242 191.343 134.273 190.104 133.075C188.495 131.52 183.909 127.087 176.688 126.495C175.119 126.367 173.709 126.465 172.272 126.766C171.772 126.308 171.243 125.86 170.662 125.434C169.553 124.622 168.459 124.021 167.281 123.551C169.088 121.571 170.9 119.598 172.721 117.633C173.009 117.764 173.282 117.891 173.534 118.008C179.498 120.777 180.809 123.489 186.545 124.917C189.147 125.565 192.093 126.298 192.822 125.195C194.118 123.237 188.618 115.178 180.12 109.726C180.693 109.119 181.267 108.515 181.841 107.91C182.619 108.235 183.303 108.553 183.887 108.824C189.851 111.594 191.162 114.305 196.898 115.733C199.5 116.381 202.446 117.114 203.175 116.012C204.331 114.264 200.077 107.658 193.111 102.382C195.024 101.774 197.562 101.101 200.848 101.187C205.832 101.318 209.725 103.126 212.036 104.199C218.001 106.968 219.311 109.68 225.047 111.108C227.649 111.756 230.595 112.489 231.324 111.387C233.251 108.475 220.168 92.0705 204.518 90.8113C203.304 90.7136 202.212 90.7218 201.225 90.7948C201.088 90.5688 200.94 90.3369 200.784 90.1009C206.079 90.2711 216.42 88.7576 225.221 94.9356C227.759 96.7169 232.69 100.907 240.941 104.35C243.578 105.451 244.904 105.992 245.269 105.54C246.576 103.922 235.706 90.611 220.412 84.0534C214.349 81.4535 210.602 81.2075 207.937 81.6013C208.348 81.1332 208.748 80.6501 209.134 80.1649C215.089 74.3256 221.119 68.5474 227.204 62.8469C226.909 63.7575 226.919 64.2421 227.24 64.5955ZM150.818 137.272C144.091 135.095 135.946 136.265 133.822 138.742C133.523 136.546 133.263 134.348 133.048 132.145C136.113 133.856 139.31 134.314 145.376 135.124C147.959 135.469 150.149 135.756 152.002 135.936C152.251 136.61 152.516 137.217 152.824 137.797C152.86 137.864 152.898 137.928 152.934 137.995L152.88 138.056C152.19 137.757 151.498 137.492 150.818 137.272ZM132.946 107.779C133.138 107.142 133.142 106.465 132.996 105.766C133.205 103.236 133.466 100.713 133.776 98.1972C133.768 98.5822 133.89 98.9676 134.056 99.3852C135.926 104.081 140.979 108.587 147.866 110.925C149.151 111.361 150.253 111.636 151.202 111.804C150.785 112.532 150.465 113.241 150.252 113.897C147.905 112.011 144.882 110.64 141.453 112.095C140.52 112.49 139.966 113.939 139.485 115.671C136.317 115.725 133.669 116.386 132.408 117.504C132.415 117.038 132.413 116.573 132.425 116.106C132.496 113.444 132.628 110.79 132.813 108.145C132.863 108.027 132.908 107.905 132.946 107.779ZM132.417 121.471C132.554 121.75 132.703 122.028 132.859 122.306C132.718 122.202 132.574 122.09 132.425 121.97C132.421 121.803 132.42 121.637 132.417 121.471ZM137.826 155.542C137.458 155.493 137.085 155.458 136.71 155.437C135.842 151.133 135.042 146.831 134.371 142.522C136.134 145.318 139.011 147.879 142.675 149.82C141.049 151.723 139.436 153.631 137.826 155.542ZM166.216 123.17C163.922 122.433 161.23 122.081 157.505 121.648C156.561 120.336 155.588 119.37 154.869 118.675C154.479 118.298 153.881 117.551 153.106 116.677C155.114 116.033 158.111 114.885 162.346 114.996C166.194 115.097 169.388 116.197 171.71 117.188C169.871 119.174 168.041 121.169 166.216 123.17ZM179.216 109.162C176.962 107.8 174.518 106.634 171.944 105.815C172.194 105.813 172.439 105.805 172.698 105.812C175.89 105.896 178.631 106.668 180.798 107.493C180.271 108.049 179.743 108.605 179.216 109.162Z" fill="#2A1D54"/>
</svg>
