<svg width="71" height="63" viewBox="0 0 71 63" fill="none" xmlns="http://www.w3.org/2000/svg">
<path d="M26.2053 56.9623C26.2053 56.3281 26.7195 55.814 27.3537 55.814H43.4304C44.0646 55.814 44.5787 56.3281 44.5787 56.9623V56.9623C44.5787 57.5965 44.0646 58.1106 43.4304 58.1106H27.3537C26.7195 58.1106 26.2053 57.5965 26.2053 56.9623V56.9623Z" fill="#EE684A"/>
<path d="M55.7756 26.3878C55.7756 38.2 46.2 47.7756 34.3878 47.7756C22.5756 47.7756 13 38.2 13 26.3878C13 14.5756 22.5756 5 34.3878 5C46.2 5 55.7756 14.5756 55.7756 26.3878Z" fill="#04112D"/>
<path fill-rule="evenodd" clip-rule="evenodd" d="M34.3878 43.7507C43.9771 43.7507 51.7507 35.9771 51.7507 26.3878C51.7507 16.7985 43.9771 9.02488 34.3878 9.02488C24.7985 9.02488 17.0249 16.7985 17.0249 26.3878C17.0249 35.9771 24.7985 43.7507 34.3878 43.7507ZM34.3878 47.7756C46.2 47.7756 55.7756 38.2 55.7756 26.3878C55.7756 14.5756 46.2 5 34.3878 5C22.5756 5 13 14.5756 13 26.3878C13 38.2 22.5756 47.7756 34.3878 47.7756Z" fill="#04112D"/>
<path d="M53.5243 8.63021C58.159 13.7807 60.5578 20.5612 60.1931 27.4803C59.8283 34.3994 56.7299 40.8903 51.5795 45.5249C46.4291 50.1595 39.6485 52.5584 32.7294 52.1936C25.8103 51.8289 19.3195 48.7305 14.6848 43.5801L16.1215 42.2873C20.4133 47.0567 26.4239 49.9259 32.8311 50.2636C39.2383 50.6014 45.5173 48.38 50.2867 44.0882C55.0561 39.7965 57.9253 33.7858 58.263 27.3786C58.6008 20.9714 56.3794 14.6924 52.0877 9.923L53.5243 8.63021Z" fill="#EE684A"/>
<path d="M52.5732 7.58398L53.7313 8.85907L49.0574 13.1041L47.8993 11.829L52.5732 7.58398Z" fill="#EE684A"/>
<path d="M18.5354 38.5889L19.6935 39.864L15.0195 44.109L13.8615 42.8339L18.5354 38.5889Z" fill="#EE684A"/>
<path d="M34.2449 51.5078H35.9674V55.8141H34.2449V51.5078Z" fill="#EE684A"/>
<path d="M39.3889 40.4916C39.3889 40.4916 35.6945 40.3339 35.3053 33.0255C34.916 25.7171 38.7665 24.4787 38.7665 24.4787C38.7665 24.4787 39.9938 23.7894 40.5286 23.7611C41.0634 23.7328 42.8764 23.9046 42.8764 23.9046L40.8828 23.5166C40.8828 23.5166 43.6882 22.4376 44.5281 22.3526L41.4965 22.9993C41.4965 22.9993 41.4527 21.3019 42.1786 20.7403C42.1786 20.7403 41.5596 20.6942 41.23 21.9167C41.1365 22.2693 40.9627 22.5948 40.7225 22.8674C40.4823 23.1399 40.1823 23.3519 39.8466 23.4865C38.7209 23.9294 37.1674 24.6292 36.8132 25.2281C36.8132 25.2281 36.1574 25.9191 36.2574 24.1208C36.3573 22.3225 36.8272 20.7828 36.9973 20.7403C36.9973 20.7403 38.3351 19.3034 40.2148 19.2166C40.2148 19.2166 39.1189 18.7701 37.2691 20.1663C37.2691 20.1663 37.1113 19.4576 37.8091 18.6266C38.507 17.7957 39.5888 16.0381 40.7706 15.8503C40.7706 15.8503 39.1189 15.7511 37.8091 17.9073C37.8091 17.9073 37.3252 18.2244 37.2831 17.4183C37.229 16.8053 37.1193 16.1985 36.9552 15.6058C36.9552 15.6058 36.5572 17.4626 37.3971 18.2953C37.3971 18.2953 35.7875 20.4108 35.8593 22.7831C35.8593 22.7831 35.3614 23.8621 35.1755 22.5971C35.1755 22.5971 35.0686 20.8537 34.8547 19.3743C34.7681 18.7786 34.8041 18.1712 34.9603 17.5901C35.1166 17.0091 35.3898 16.4669 35.7629 15.9974C36.1136 15.5509 36.3661 15.1115 36.2293 14.8865L34.3655 17.1313C34.3655 17.1313 32.7997 13.4638 31.66 12.6718C30.5203 11.8799 30.38 11.708 30.38 11.708L32.2158 13.8802L29.9101 13.0616L32.2158 14.1388C32.2158 14.1388 33.2836 15.0247 33.8956 17.4183C34.5075 19.8119 34.5636 21.3161 34.5636 21.3161C34.5636 21.3161 31.276 18.6851 30.65 18.7701L32.7769 20.3966C33.3556 20.8388 33.8337 21.4014 34.1789 22.0463C34.524 22.6912 34.7281 23.4035 34.7775 24.1349C34.7775 24.1349 30.6641 23.0719 29.6681 22.8699L27.7885 20.921L29.2122 22.7618L26.2806 22.7193L24.6008 21.511C24.6008 21.511 25.9246 22.6325 25.7966 22.7052C25.6687 22.7778 23.7329 22.8628 23.7329 22.8628C23.7329 22.8628 28.6564 22.8345 29.1982 23.1941C29.74 23.5538 30.9516 23.6831 30.9516 23.6831L27.4641 24.2147L31.6214 23.9117C31.6214 23.9117 34.767 24.4875 34.9371 25.4797C34.9371 25.4797 34.2971 27.1699 33.8692 27.8396C33.5186 28.396 32.8032 30.1978 32.6594 31.78C32.5156 33.3621 32.3193 35.7929 32.8593 37.2723C33.3993 38.7517 33.5992 39.6022 33.3292 40.0486C33.0592 40.4951 32.8032 41.0692 33.6799 41.1843C34.5566 41.2995 38.4333 41.1258 38.4333 41.1258C38.4333 41.1258 39.6169 41.3721 39.3889 40.4916Z" fill="#AEED28"/>
</svg>
