<svg width="58" height="61" viewBox="0 0 58 61" fill="none" xmlns="http://www.w3.org/2000/svg">
<path d="M54.8865 61H3.1135C2.28804 60.9986 1.49665 60.5218 0.912961 59.6742C0.329271 58.8265 0.000941771 57.6772 0 56.4785V11.5215C0.000941771 10.3228 0.329271 9.17349 0.912961 8.32583C1.49665 7.47818 2.28804 7.00137 3.1135 7H54.8865C55.712 7.00137 56.5033 7.47818 57.087 8.32583C57.6707 9.17349 57.9991 10.3228 58 11.5215V56.4785C57.9991 57.6772 57.6707 58.8265 57.087 59.6742C56.5033 60.5218 55.712 60.9986 54.8865 61ZM3.1135 7.77512C2.42954 7.77626 1.77383 8.17134 1.2902 8.87368C0.806575 9.57602 0.534528 10.5283 0.533742 11.5215V56.4785C0.534528 57.4717 0.806575 58.424 1.2902 59.1263C1.77383 59.8287 2.42954 60.2237 3.1135 60.2249H54.8865C55.5705 60.2237 56.2262 59.8287 56.7098 59.1263C57.1934 58.424 57.4655 57.4717 57.4663 56.4785V11.5215C57.4655 10.5283 57.1934 9.57602 56.7098 8.87368C56.2262 8.17134 55.5705 7.77626 54.8865 7.77512H3.1135Z" fill="#2A1D54"/>
<path d="M14.5 17C13.8078 17 13.1311 16.8241 12.5555 16.4944C11.9799 16.1648 11.5313 15.6962 11.2664 15.148C11.0015 14.5999 10.9322 13.9967 11.0673 13.4147C11.2023 12.8328 11.5356 12.2982 12.0251 11.8787C12.5146 11.4591 13.1383 11.1734 13.8172 11.0576C14.4961 10.9419 15.1999 11.0013 15.8394 11.2284C16.4789 11.4554 17.0256 11.8399 17.4101 12.3333C17.7947 12.8266 18 13.4067 18 14C17.999 14.7954 17.6299 15.5579 16.9737 16.1203C16.3176 16.6827 15.4279 16.9991 14.5 17ZM14.5 11.72C13.9739 11.72 13.4596 11.8537 13.0222 12.1042C12.5847 12.3548 12.2438 12.7109 12.0425 13.1275C11.8412 13.5441 11.7885 14.0025 11.8911 14.4448C11.9937 14.8871 12.2471 15.2933 12.6191 15.6122C12.9911 15.9311 13.4651 16.1482 13.9811 16.2362C14.497 16.3242 15.0319 16.279 15.5179 16.1064C16.004 15.9339 16.4194 15.6416 16.7117 15.2667C17.004 14.8918 17.16 14.4509 17.16 14C17.1592 13.3955 16.8787 12.816 16.38 12.3886C15.8813 11.9611 15.2052 11.7207 14.5 11.72Z" fill="#2A1D54"/>
<path d="M40.5 17C39.8078 17 39.1311 16.8241 38.5555 16.4944C37.9799 16.1648 37.5313 15.6962 37.2664 15.148C37.0015 14.5999 36.9322 13.9967 37.0673 13.4147C37.2023 12.8328 37.5356 12.2982 38.0251 11.8787C38.5146 11.4591 39.1382 11.1734 39.8172 11.0576C40.4961 10.9419 41.1998 11.0013 41.8394 11.2284C42.4789 11.4554 43.0256 11.8399 43.4101 12.3333C43.7947 12.8266 44 13.4067 44 14C43.999 14.7954 43.6299 15.5579 42.9737 16.1203C42.3176 16.6827 41.4279 16.9991 40.5 17ZM40.5 11.72C39.9739 11.72 39.4596 11.8537 39.0222 12.1042C38.5848 12.3548 38.2438 12.7109 38.0425 13.1275C37.8412 13.5441 37.7885 14.0025 37.8911 14.4448C37.9938 14.8871 38.2471 15.2933 38.6191 15.6122C38.9911 15.9311 39.4651 16.1482 39.9811 16.2362C40.497 16.3242 41.0319 16.279 41.5179 16.1064C42.004 15.9339 42.4194 15.6416 42.7117 15.2667C43.004 14.8918 43.16 14.4509 43.16 14C43.1592 13.3955 42.8787 12.816 42.38 12.3886C41.8813 11.9611 41.2052 11.7207 40.5 11.72Z" fill="#2A1D54"/>
<path d="M22.7254 37H8.27465C7.67159 36.9993 7.09345 36.7615 6.66702 36.3387C6.2406 35.916 6.00072 35.3428 6 34.7449V26.2551C6.00072 25.6572 6.2406 25.084 6.66702 24.6613C7.09345 24.2385 7.67159 24.0007 8.27465 24H22.7254C23.3284 24.0007 23.9066 24.2385 24.333 24.6613C24.7594 25.084 24.9993 25.6572 25 26.2551V34.7449C24.9993 35.3428 24.7594 35.916 24.333 36.3387C23.9066 36.7615 23.3284 36.9993 22.7254 37Z" fill="#2A1D54"/>
<path d="M49.7254 37H35.2746C34.6716 36.9993 34.0934 36.7615 33.667 36.3387C33.2406 35.916 33.0007 35.3428 33 34.7449V26.2551C33.0007 25.6572 33.2406 25.084 33.667 24.6613C34.0934 24.2385 34.6716 24.0007 35.2746 24H49.7254C50.3284 24.0007 50.9066 24.2385 51.333 24.6613C51.7594 25.084 51.9993 25.6572 52 26.2551V34.7449C51.9993 35.3428 51.7594 35.916 51.333 36.3387C50.9066 36.7615 50.3284 36.9993 49.7254 37Z" fill="#2A1D54"/>
<path d="M22.7254 54H8.27465C7.67159 53.9993 7.09345 53.7615 6.66702 53.3387C6.2406 52.916 6.00072 52.3428 6 51.7449V43.2551C6.00072 42.6572 6.2406 42.084 6.66702 41.6613C7.09345 41.2385 7.67159 41.0007 8.27465 41H22.7254C23.3284 41.0007 23.9066 41.2385 24.333 41.6613C24.7594 42.084 24.9993 42.6572 25 43.2551V51.7449C24.9993 52.3428 24.7594 52.916 24.333 53.3387C23.9066 53.7615 23.3284 53.9993 22.7254 54Z" fill="#2A1D54"/>
<path d="M49.7254 54H35.2746C34.6716 53.9993 34.0934 53.7615 33.667 53.3387C33.2406 52.916 33.0007 52.3428 33 51.7449V43.2551C33.0007 42.6572 33.2406 42.084 33.667 41.6613C34.0934 41.2385 34.6716 41.0007 35.2746 41H49.7254C50.3284 41.0007 50.9066 41.2385 51.333 41.6613C51.7594 42.084 51.9993 42.6572 52 43.2551V51.7449C51.9993 52.3428 51.7594 52.916 51.333 53.3387C50.9066 53.7615 50.3284 53.9993 49.7254 54Z" fill="#2A1D54"/>
<path d="M15 15C14.7349 14.9997 14.4807 14.9026 14.2932 14.7299C14.1058 14.5572 14.0003 14.3231 14 14.0789V0.921053C14 0.676774 14.1054 0.442498 14.2929 0.269767C14.4804 0.0970365 14.7348 0 15 0C15.2652 0 15.5196 0.0970365 15.7071 0.269767C15.8946 0.442498 16 0.676774 16 0.921053V14.0789C15.9997 14.3231 15.8942 14.5572 15.7068 14.7299C15.5193 14.9026 15.2651 14.9997 15 15Z" fill="#2A1D54"/>
<path d="M41 15C40.7349 14.9997 40.4807 14.9026 40.2932 14.7299C40.1058 14.5572 40.0003 14.3231 40 14.0789V0.921053C40 0.676774 40.1054 0.442498 40.2929 0.269767C40.4804 0.0970365 40.7348 0 41 0C41.2652 0 41.5196 0.0970365 41.7071 0.269767C41.8946 0.442498 42 0.676774 42 0.921053V14.0789C41.9997 14.3231 41.8942 14.5572 41.7068 14.7299C41.5193 14.9026 41.2651 14.9997 41 15Z" fill="#2A1D54"/>
<path d="M14.871 34C14.4819 34.0006 14.1031 33.8762 13.7917 33.6455L13.7724 33.6312L9.70739 30.5583C9.32716 30.2703 9.0783 29.8447 9.01556 29.3754C8.95282 28.906 9.08134 28.4312 9.37284 28.0555C9.66434 27.6797 10.0949 27.4338 10.5699 27.3718C11.0449 27.3098 11.5254 27.4368 11.9056 27.7249L14.5386 29.7201L20.7605 21.6987C20.9048 21.5128 21.0847 21.3567 21.29 21.2394C21.4954 21.1222 21.722 21.0461 21.9571 21.0154C22.1922 20.9847 22.4311 21.0001 22.6602 21.0606C22.8893 21.1212 23.104 21.2257 23.2922 21.3683L23.2927 21.3687L23.2541 21.4217L23.2938 21.3687C23.6735 21.657 23.9218 22.0824 23.9845 22.5516C24.0471 23.0207 23.9188 23.4952 23.6278 23.871L16.3094 33.3017C16.1401 33.519 15.9224 33.6948 15.6732 33.8156C15.4241 33.9363 15.1501 33.9987 14.8726 33.9979L14.871 34Z" fill="#2F2165"/>
<path d="M42.871 50C42.4818 50.0006 42.1031 49.8762 41.7917 49.6455L41.7724 49.6312L37.7074 46.5583C37.3272 46.2703 37.0783 45.8447 37.0156 45.3754C36.9528 44.906 37.0813 44.4312 37.3728 44.0555C37.6643 43.6797 38.0949 43.4338 38.5699 43.3718C39.0449 43.3098 39.5254 43.4368 39.9056 43.7249L42.5386 45.7201L48.7605 37.6987C48.9048 37.5128 49.0847 37.3567 49.29 37.2394C49.4953 37.1222 49.722 37.0461 49.9571 37.0154C50.1922 36.9847 50.4311 37.0001 50.6602 37.0606C50.8892 37.1212 51.104 37.2257 51.2922 37.3683L51.2541 37.4217L51.2938 37.3687C51.6734 37.657 51.9218 38.0824 51.9845 38.5516C52.0471 39.0207 51.9188 39.4952 51.6278 39.871L44.3094 49.3017C44.1401 49.519 43.9224 49.6948 43.6732 49.8156C43.4241 49.9363 43.1501 49.9987 42.8726 49.9979L42.871 50Z" fill="#2F2163"/>
</svg>
