<svg width="83" height="71" viewBox="0 0 83 71" fill="none" xmlns="http://www.w3.org/2000/svg">
<path d="M36 50C33.0333 50 30.1332 49.1203 27.6665 47.472C25.1997 45.8238 23.2771 43.4812 22.1418 40.7403C21.0065 37.9994 20.7095 34.9834 21.2882 32.0737C21.867 29.1639 23.2956 26.4912 25.3934 24.3934C27.4912 22.2956 30.1639 20.867 33.0736 20.2882C35.9834 19.7095 38.9993 20.0065 41.7402 21.1418C44.4811 22.2771 46.8238 24.1997 48.472 26.6664C50.1203 29.1332 51 32.0333 51 35C50.9955 38.9768 49.4136 42.7895 46.6016 45.6016C43.7895 48.4136 39.9769 49.9955 36 50ZM36 22.5C33.5277 22.5 31.111 23.2331 29.0554 24.6066C26.9998 25.9802 25.3976 27.9324 24.4515 30.2165C23.5054 32.5005 23.2579 35.0139 23.7402 37.4386C24.2225 39.8634 25.413 42.0907 27.1612 43.8388C28.9093 45.587 31.1366 46.7775 33.5614 47.2598C35.9861 47.7421 38.4995 47.4946 40.7836 46.5485C43.0676 45.6024 45.0199 44.0002 46.3934 41.9446C47.7669 39.889 48.5 37.4723 48.5 35C48.4963 31.6859 47.1781 28.5087 44.8347 26.1653C42.4913 23.8219 39.3141 22.5037 36 22.5Z" fill="#FEC054"/>
<path d="M35.5 17C35.1022 17 34.7207 16.8673 34.4393 16.6312C34.158 16.395 34 16.0747 34 15.7407V1.25926C34 0.92528 34.158 0.604983 34.4393 0.368826C34.7207 0.132669 35.1022 0 35.5 0C35.8978 0 36.2793 0.132669 36.5607 0.368826C36.842 0.604983 37 0.92528 37 1.25926V15.7408C37 16.0747 36.8419 16.395 36.5606 16.6312C36.2793 16.8673 35.8978 17 35.5 17Z" fill="#FEC054"/>
<path d="M15.7407 36H1.25925C0.925274 36 0.604983 35.8946 0.368826 35.7071C0.132669 35.5196 0 35.2652 0 35C0 34.7348 0.132669 34.4804 0.368826 34.2929C0.604983 34.1054 0.925274 34 1.25925 34H15.7407C16.0747 34 16.395 34.1054 16.6312 34.2929C16.8673 34.4804 17 34.7348 17 35C17 35.2652 16.8673 35.5196 16.6312 35.7071C16.395 35.8946 16.0747 36 15.7407 36Z" fill="#FEC054"/>
<path d="M68.7407 36H54.2593C53.9253 36 53.605 35.8946 53.3688 35.7071C53.1327 35.5196 53 35.2652 53 35C53 34.7348 53.1327 34.4804 53.3688 34.2929C53.605 34.1054 53.9253 34 54.2593 34H68.7407C69.0747 34 69.395 34.1054 69.6312 34.2929C69.8673 34.4804 70 34.7348 70 35C70 35.2652 69.8673 35.5196 69.6312 35.7071C69.395 35.8946 69.0747 36 68.7407 36Z" fill="#FEC054"/>
<path d="M53.3202 23C53.0574 23 52.8006 22.9199 52.5826 22.7699C52.3646 22.6199 52.1954 22.4068 52.0967 22.158C51.998 21.9092 51.9742 21.6359 52.0284 21.3732C52.0826 21.1105 52.2123 20.8703 52.401 20.6834L58.7589 14.3822C58.8833 14.2586 59.0303 14.1612 59.1916 14.0956C59.3528 14.03 59.5252 13.9976 59.6987 14.0001C59.8723 14.0027 60.0436 14.0402 60.203 14.1104C60.3623 14.1807 60.5065 14.2823 60.6274 14.4096C60.7482 14.5369 60.8433 14.6872 60.9072 14.852C60.9711 15.0169 61.0026 15.193 60.9998 15.3703C60.997 15.5475 60.9601 15.7225 60.891 15.8852C60.822 16.0478 60.7222 16.195 60.5974 16.3182L54.2395 22.6194C53.9934 22.8639 53.6635 23.0005 53.3202 23Z" fill="#FEC054"/>
<path d="M16.8265 23C16.5213 23.0005 16.2281 22.8639 16.0094 22.6194L10.3578 16.3182C10.2469 16.195 10.1583 16.0478 10.0969 15.8852C10.0355 15.7225 10.0026 15.5475 10.0002 15.3703C9.99768 15.193 10.0256 15.0169 10.0824 14.852C10.1392 14.6872 10.2238 14.5369 10.3312 14.4096C10.4386 14.2823 10.5668 14.1807 10.7085 14.1104C10.8501 14.0402 11.0024 14.0027 11.1567 14.0001C11.311 13.9976 11.4641 14.03 11.6075 14.0956C11.7508 14.1612 11.8815 14.2586 11.9921 14.3822L17.6436 20.6834C17.8112 20.8703 17.9266 21.1105 17.9748 21.3732C18.023 21.6359 18.0018 21.9092 17.914 22.158C17.8263 22.4068 17.6759 22.6199 17.4821 22.7699C17.2884 22.9199 17.0601 23 16.8265 23Z" fill="#FEC054"/>
<path d="M11.3204 57C11.0609 56.9999 10.8072 56.9249 10.5909 56.7845C10.3746 56.644 10.2054 56.4443 10.1043 56.2102C10.0032 55.9761 9.9748 55.7181 10.0226 55.4683C10.0703 55.2185 10.1922 54.988 10.3729 54.8056L16.7325 48.3916C16.9766 48.1458 17.3104 48.005 17.6604 48.0001C18.0105 47.9952 18.3482 48.1267 18.5994 48.3655C18.8505 48.6044 18.9946 48.9311 18.9998 49.274C19.0051 49.6168 18.8712 49.9477 18.6275 50.1938L12.2679 56.6078C12.1449 56.732 11.9976 56.8308 11.8348 56.8981C11.6721 56.9655 11.4971 57.0001 11.3204 57Z" fill="#FEC054"/>
<path d="M60.7206 58C60.55 58.0003 60.381 57.9669 60.2237 57.9018C60.0664 57.8367 59.9241 57.7411 59.8052 57.6209L52.3649 50.1344C52.2473 50.0165 52.1546 49.8769 52.092 49.7236C52.0294 49.5704 51.9981 49.4066 52.0001 49.2415C52.002 49.0764 52.0371 48.9133 52.1033 48.7616C52.1695 48.6098 52.2654 48.4723 52.3858 48.357C52.5061 48.2417 52.6484 48.1509 52.8045 48.0896C52.9607 48.0284 53.1275 47.998 53.2957 48.0001C53.4638 48.0023 53.6298 48.0369 53.7843 48.1021C53.9387 48.1673 54.0785 48.2618 54.1958 48.3801L61.6361 55.8666C61.8119 56.0434 61.9307 56.2673 61.9776 56.5101C62.0245 56.753 61.9974 57.004 61.8996 57.2317C61.8019 57.4595 61.6379 57.6539 61.4282 57.7906C61.2185 57.9272 60.9723 58.0001 60.7206 58Z" fill="#FEC054"/>
<path d="M35.5 70C35.1022 70 34.7207 69.8673 34.4393 69.6312C34.158 69.395 34 69.0747 34 68.7407V54.2593C34 54.0939 34.0388 53.9301 34.1142 53.7774C34.1896 53.6246 34.3001 53.4858 34.4393 53.3688C34.5786 53.2519 34.744 53.1591 34.926 53.0959C35.108 53.0326 35.303 53 35.5 53C35.697 53 35.892 53.0326 36.074 53.0959C36.256 53.1591 36.4214 53.2519 36.5607 53.3688C36.6999 53.4858 36.8104 53.6246 36.8858 53.7774C36.9612 53.9301 37 54.0939 37 54.2593V68.7407C37 69.0747 36.842 69.395 36.5607 69.6312C36.2793 69.8673 35.8978 70 35.5 70Z" fill="#FEC054"/>
<path d="M56.2202 70.2439C66.8132 69.8039 76.4642 65.5289 80.8292 58.9059C81.0339 58.5959 81.2262 58.2816 81.4062 57.9629C83.0002 55.1409 83.4982 51.8969 81.7552 49.1159C80.0122 46.3349 75.6552 44.2229 71.2872 44.6619C66.9192 45.1009 63.5012 48.5879 65.3112 51.3479C65.7112 45.7699 66.0462 39.9089 61.5491 35.0539C59.0738 32.5167 55.8446 30.8477 52.3431 30.2959C43.2811 28.7019 37.2651 33.8259 36.0601 38.9959C35.1711 42.8149 36.3991 46.6959 37.6221 50.4749C33.8531 46.0179 24.8901 44.0349 18.0221 46.1399C11.1541 48.2449 7.34809 54.1399 9.69409 59.0399C12.4571 64.8039 21.6681 67.7829 30.2241 69.3579C37.2912 70.6589 47.8842 70.5899 56.2202 70.2439Z" fill="#3F3D56"/>
</svg>
