<svg width="77" height="64" viewBox="0 0 77 64" fill="none" xmlns="http://www.w3.org/2000/svg">
<path d="M17.2248 63.7023C10.3737 63.4213 4.13194 60.691 1.30823 56.4611C1.17627 56.2631 1.05186 56.0624 0.935038 55.8589C-0.0958834 54.0566 -0.417965 51.9848 0.709322 50.2086C1.83661 48.4325 4.65451 47.0837 7.47952 47.364C10.3045 47.6444 12.5145 49.8714 11.3445 51.6341C11.0858 48.0717 10.8691 44.3285 13.7776 41.2277C15.3786 39.6072 17.4674 38.5413 19.7322 38.189C25.5931 37.171 29.4839 40.4435 30.2632 43.7454C30.8382 46.1844 30.044 48.6631 29.253 51.0766C31.6906 48.2301 37.4875 46.9636 41.9294 48.308C46.3712 49.6524 48.8321 53.4173 47.3155 56.5467C45.5286 60.228 39.5713 62.1306 34.0377 63.1365C29.4671 63.9673 22.6154 63.9233 17.2248 63.7023Z" fill="#28287A"/>
<path d="M52.7264 36.8017C50.5583 36.8017 48.4389 36.1588 46.6361 34.9543C44.8334 33.7497 43.4283 32.0376 42.5986 30.0345C41.7689 28.0315 41.5518 25.8273 41.9748 23.7008C42.3978 21.5744 43.4418 19.6211 44.9749 18.088C46.508 16.5549 48.4613 15.5108 50.5878 15.0878C52.7143 14.6649 54.9184 14.8819 56.9215 15.7117C58.9246 16.5414 60.6367 17.9464 61.8412 19.7491C63.0458 21.5519 63.6887 23.6713 63.6887 25.8395C63.6854 28.7458 62.5293 31.5322 60.4742 33.5873C58.4191 35.6424 55.6328 36.7984 52.7264 36.8017ZM52.7264 16.7042C50.9197 16.7042 49.1534 17.24 47.6512 18.2438C46.1489 19.2476 44.978 20.6743 44.2866 22.3436C43.5952 24.0128 43.4143 25.8496 43.7667 27.6217C44.1192 29.3937 44.9893 31.0215 46.2668 32.299C47.5444 33.5766 49.1722 34.4467 50.9442 34.7992C52.7163 35.1516 54.5531 34.9707 56.2223 34.2793C57.8916 33.5879 59.3183 32.417 60.3221 30.9147C61.3259 29.4124 61.8616 27.6462 61.8616 25.8395C61.8589 23.4175 60.8956 21.0955 59.183 19.3829C57.4704 17.6703 55.1484 16.707 52.7264 16.7042Z" fill="#28287A"/>
<path d="M51.9434 12.5283C51.7358 12.5283 51.5366 12.4305 51.3897 12.2565C51.2429 12.0824 51.1604 11.8464 51.1604 11.6003V0.92802C51.1604 0.681893 51.2429 0.445847 51.3897 0.271809C51.5366 0.0977714 51.7358 0 51.9434 0C52.1511 0 52.3502 0.0977714 52.4971 0.271809C52.6439 0.445847 52.7264 0.681893 52.7264 0.92802V11.6003C52.7264 11.8464 52.6439 12.0825 52.4971 12.2565C52.3502 12.4305 52.1511 12.5283 51.9434 12.5283Z" fill="#28287A"/>
<path d="M38.4872 25.8395H27.815C27.5689 25.8395 27.3328 25.757 27.1588 25.6101C26.9847 25.4633 26.887 25.2641 26.887 25.0565C26.887 24.8488 26.9847 24.6496 27.1588 24.5028C27.3328 24.3559 27.5689 24.2734 27.815 24.2734H38.4872C38.7334 24.2734 38.9694 24.3559 39.1435 24.5028C39.3175 24.6496 39.4153 24.8488 39.4153 25.0565C39.4153 25.2641 39.3175 25.4633 39.1435 25.6101C38.9694 25.757 38.7334 25.8395 38.4872 25.8395Z" fill="#28287A"/>
<path d="M76.072 25.8395H65.3997C65.1536 25.8395 64.9175 25.757 64.7435 25.6101C64.5695 25.4633 64.4717 25.2641 64.4717 25.0565C64.4717 24.8488 64.5695 24.6496 64.7435 24.5028C64.9175 24.3559 65.1536 24.2734 65.3997 24.2734H76.072C76.3181 24.2734 76.5541 24.3559 76.7282 24.5028C76.9022 24.6496 77 24.8488 77 25.0565C77 25.2641 76.9022 25.4633 76.7282 25.6101C76.5541 25.757 76.3181 25.8395 76.072 25.8395Z" fill="#28287A"/>
<path d="M65.3906 16.4433C65.2077 16.4434 65.0289 16.3876 64.8772 16.2832C64.7255 16.1788 64.6077 16.0305 64.539 15.8573C64.4703 15.6841 64.4537 15.4939 64.4914 15.3111C64.5292 15.1283 64.6195 14.9611 64.7508 14.831L69.176 10.4452C69.2626 10.3592 69.3649 10.2914 69.4771 10.2457C69.5894 10.2001 69.7093 10.1775 69.8301 10.1793C69.9509 10.1811 70.0702 10.2071 70.1811 10.256C70.292 10.305 70.3924 10.3757 70.4765 10.4643C70.5606 10.5529 70.6268 10.6575 70.6713 10.7722C70.7157 10.887 70.7377 11.0095 70.7357 11.1329C70.7338 11.2563 70.708 11.3781 70.66 11.4913C70.6119 11.6045 70.5425 11.7069 70.4556 11.7927L66.0304 16.1784C65.8591 16.3486 65.6295 16.4437 65.3906 16.4433Z" fill="#28287A"/>
<path d="M38.6109 16.4433C38.4019 16.4437 38.201 16.3486 38.0511 16.1784L34.179 11.7927C34.103 11.7069 34.0423 11.6045 34.0002 11.4913C33.9582 11.3781 33.9356 11.2563 33.9339 11.1329C33.9322 11.0095 33.9514 10.887 33.9903 10.7722C34.0292 10.6575 34.0872 10.5529 34.1608 10.4643C34.2344 10.3757 34.3222 10.305 34.4192 10.256C34.5163 10.2071 34.6206 10.1811 34.7263 10.1793C34.832 10.1775 34.937 10.2001 35.0352 10.2457C35.1334 10.2914 35.2229 10.3592 35.2987 10.4452L39.1708 14.831C39.2856 14.9611 39.3647 15.1283 39.3977 15.3111C39.4307 15.4939 39.4162 15.6841 39.3561 15.8573C39.2959 16.0305 39.1929 16.1788 39.0602 16.2832C38.9274 16.3876 38.771 16.4434 38.6109 16.4433Z" fill="#28287A"/>
<path d="M35.6361 40.7168C35.4554 40.7167 35.2788 40.6646 35.1283 40.5668C34.9778 40.469 34.86 40.33 34.7896 40.1671C34.7193 40.0042 34.6995 39.8246 34.7327 39.6507C34.766 39.4768 34.8508 39.3164 34.9766 39.1894L39.403 34.7252C39.5729 34.5541 39.8052 34.4561 40.0488 34.4527C40.2925 34.4493 40.5275 34.5408 40.7023 34.7071C40.8771 34.8733 40.9774 35.1007 40.9811 35.3393C40.9848 35.578 40.8916 35.8082 40.722 35.9796L36.2956 40.4438C36.2099 40.5303 36.1074 40.599 35.9941 40.6459C35.8808 40.6928 35.7591 40.7169 35.6361 40.7168Z" fill="#28287A"/>
<path d="M70.6173 41.4998C70.497 41.5 70.3779 41.4765 70.2671 41.4306C70.1562 41.3847 70.0559 41.3174 69.9721 41.2327L64.7288 35.9568C64.646 35.8737 64.5806 35.7753 64.5365 35.6673C64.4924 35.5593 64.4704 35.4439 64.4717 35.3275C64.4731 35.2112 64.4978 35.0963 64.5445 34.9893C64.5911 34.8824 64.6587 34.7855 64.7435 34.7043C64.8283 34.623 64.9286 34.559 65.0387 34.5158C65.1487 34.4726 65.2663 34.4512 65.3848 34.4527C65.5032 34.4542 65.6202 34.4787 65.7291 34.5246C65.8379 34.5706 65.9365 34.6371 66.0191 34.7205L71.2624 39.9964C71.3863 40.121 71.47 40.2787 71.5031 40.4499C71.5361 40.621 71.517 40.7979 71.4481 40.9584C71.3793 41.1189 71.2637 41.2559 71.1159 41.3522C70.9681 41.4485 70.7946 41.4999 70.6173 41.4998Z" fill="#28287A"/>
<path d="M51.9434 50.8965C51.7358 50.8965 51.5366 50.7987 51.3897 50.6246C51.2429 50.4506 51.1604 50.2146 51.1604 49.9684V39.2962C51.1604 39.1743 51.1807 39.0536 51.22 38.941C51.2594 38.8284 51.317 38.7261 51.3897 38.64C51.4625 38.5538 51.5488 38.4854 51.6438 38.4388C51.7388 38.3922 51.8406 38.3682 51.9434 38.3682C52.0462 38.3682 52.1481 38.3922 52.2431 38.4388C52.3381 38.4854 52.4244 38.5538 52.4971 38.64C52.5698 38.7261 52.6275 38.8284 52.6668 38.941C52.7062 39.0536 52.7264 39.1743 52.7264 39.2962V49.9684C52.7264 50.2146 52.6439 50.4506 52.4971 50.6246C52.3502 50.7987 52.1511 50.8965 51.9434 50.8965Z" fill="#28287A"/>
</svg>
