<svg width="77" height="139" viewBox="0 0 77 139" fill="none" xmlns="http://www.w3.org/2000/svg">
<path d="M65.8299 17.8103C66.2072 18.2265 67.5766 17.8024 70.2999 16.9375C72.37 16.28 72.6889 16.0408 72.8858 15.8692C73.578 15.2662 73.7595 14.632 74.4452 11.8305C75.6759 6.80211 75.7139 6.30277 76.3459 5.23574C76.5635 4.86829 77.1133 3.9918 76.9792 3.88318C76.8415 3.77155 76.2465 4.68464 75.147 5.02963C74.0754 5.36586 73.593 4.82725 72.6782 4.96442C71.4956 5.14174 70.7924 6.26809 69.6894 8.09118C68.7127 9.70568 68.5898 10.3552 67.2204 13.563C66.8325 14.4718 66.5201 15.1751 66.2802 15.731C63.5916 18.247 60.9251 20.7962 58.2827 23.3675C58.3337 23.2894 58.3816 23.2158 58.4232 23.1517C59.5936 21.3499 59.7526 20.384 59.7357 19.6602C59.7082 18.4875 59.1496 17.5944 58.0336 15.8558C56.9399 14.1522 55.9037 13.028 54.6552 11.6866C53.0187 9.92829 52.2004 9.04906 51.8745 9.10691C49.547 9.5199 48.9246 25.41 51.8531 28.2518C51.4421 28.5462 51.1016 28.8546 50.8555 29.158C48.3487 26.3673 44.0544 23.2495 39.2972 22.8657C36.3645 22.629 34.7459 23.5518 34.2425 23.8687C31.9163 25.3336 30.5332 28.2657 31.2279 29.0931C31.8756 29.8646 33.7464 28.1107 37.413 28.2073C39.9714 28.2747 41.9699 29.2053 43.1564 29.7578C45.6452 30.9168 46.5556 32.0562 48.3906 32.8369C47.5304 33.5476 46.8488 34.4346 46.4208 35.262C46.2726 35.4152 46.1249 35.5692 45.9768 35.7226C44.0833 34.6528 41.9511 33.868 39.7162 33.6876C36.7834 33.4509 35.1647 34.3737 34.6614 34.6907C33.0936 35.678 31.9575 37.33 31.5939 38.5567C31.3562 38.6046 31.1363 38.6592 30.935 38.7182C30.2243 37.1078 28.1092 35.4095 26.1427 34.5536C22.7575 33.0803 18.3602 33.4708 17.8896 34.8719C17.8746 34.9165 17.8709 34.9605 17.8642 35.0047C18.2353 32.0027 18.7392 29.0217 19.3687 26.0624C19.39 26.1468 19.4168 26.2323 19.4525 26.3223C20.2882 28.4267 22.5463 30.4466 25.6243 31.4944C28.0401 32.3169 29.052 31.8906 29.309 31.7715C29.5545 31.6577 30.6151 31.2013 30.8749 30.2938C31.3567 28.6111 28.4064 23.6383 26.5454 25.3063C20.5663 30.6654 19.7458 26.3259 19.4711 25.5955C19.9795 23.2559 20.5646 20.9297 21.2209 18.6167C21.2322 18.6309 21.242 18.6448 21.2537 18.659C22.5601 20.2475 25.074 21.3666 28.0283 21.4161C30.347 21.4548 31.1046 20.8041 31.2941 20.6294C31.475 20.4625 32.2664 19.7721 32.2398 18.9142C32.1905 17.3238 29.3686 16.0284 27.1108 15.8039C25.0303 15.5969 22.7899 16.2356 21.6785 17.0444C22.1952 15.3123 22.7511 13.5877 23.344 11.8707C24.8624 12.4925 27.0133 12.4089 29.1262 11.4618C30.8688 10.6809 31.2076 9.93103 31.2881 9.7346C31.3651 9.54696 31.7153 8.75567 31.3975 8.12528C30.8081 6.95653 28.2538 6.9763 26.4922 7.59745C25.7666 7.8533 25.077 8.24687 24.486 8.69183C25.5367 5.87745 26.682 3.08313 27.9138 0.309431L26.6793 0C25.1058 3.54325 23.7339 7.13268 22.5549 10.7619C22.4083 9.6975 22.0409 8.56361 21.5572 7.6424C20.1348 4.93373 17.0968 2.90158 16.0694 3.56091C15.8638 3.69279 15.7773 3.90759 15.6991 4.16331C15.0693 6.22107 15.5436 9.06485 17.2023 11.6776C18.504 13.7283 19.5066 14.0162 19.7678 14.0813C19.9883 14.1363 20.8396 14.3719 21.5394 14.0683C21.0688 15.6852 20.6336 17.309 20.2369 18.94C19.7594 17.7514 18.8185 16.485 17.8234 15.6093C15.5288 13.5899 11.9667 12.7819 11.2425 13.7661C11.0976 13.9629 11.0935 14.1945 11.1117 14.4614C11.2577 16.6089 12.7152 19.0944 15.1961 20.9394C17.1434 22.3875 18.1824 22.2967 18.4494 22.2639C18.6067 22.2445 19.0818 22.1971 19.5399 21.9894C19.1147 23.9712 18.743 25.9626 18.4217 27.9624C17.7792 25.7253 15.5965 22.9344 13.5366 23.8223C9.88119 25.3979 5.58433 22.9777 5.11138 24.036C4.98835 24.3114 5.09021 24.5953 5.20798 24.9034C6.15499 27.3827 8.77053 29.7849 12.3619 31.0606C15.1805 32.0618 16.373 31.5779 16.676 31.4423C16.8769 31.3524 17.5397 31.0747 18.0335 30.5595C17.6785 33.1291 17.4064 35.7119 17.2148 38.3058C16.4527 36.6374 14.3061 34.8796 12.2965 33.9733C8.77135 32.3836 4.16083 32.7319 3.64878 34.1927C3.54639 34.4849 3.62716 34.7668 3.74794 35.083C4.72004 37.6278 7.40452 40.0934 11.0907 41.4028C13.9838 42.4304 15.2077 41.9337 15.5188 41.7945C15.7461 41.6928 16.5487 41.3566 17.0605 40.7181C16.995 41.9173 16.9444 43.1185 16.9123 44.3219C16.9032 44.6647 16.8979 45.0075 16.8912 45.3502C16.8497 45.4176 16.8135 45.4864 16.7894 45.5584C16.6906 45.8525 16.7578 46.1354 16.8738 46.4444C16.8712 46.6621 16.8698 46.8797 16.8684 47.0974C16.2235 46.5112 15.4541 45.6299 14.5287 44.3739C13.6937 43.2407 12.9008 44.0722 12.3915 45.0371C11.593 44.8587 10.8313 44.9691 10.2323 45.5302C6.21542 49.2925 1.71007 47.2964 1.64633 48.4182C1.62795 48.7419 1.80086 48.9993 2.01884 49.2785C3.77273 51.5249 7.21585 53.1638 11.3063 53.3365C14.5167 53.4721 15.589 52.5973 15.8575 52.3621C15.9518 52.2794 16.1632 52.1009 16.3922 51.85C16.5761 51.9973 16.755 52.1308 16.9345 52.2526C17.0051 54.4063 17.1314 56.5575 17.3187 58.7047C17.1665 58.7184 17.0208 58.7435 16.9123 58.7546C15.3573 58.9135 14.8333 56.8099 12.4842 56.0414C11.7041 55.7861 10.2012 55.5076 9.40915 56.0414C9.29508 56.1182 8.90592 56.4073 8.3021 56.658C7.94519 56.8062 7.67252 56.875 7.5641 56.9047C6.60028 57.169 5.70759 57.8943 5.10407 58.3846C3.96953 59.3064 3.40233 59.7672 3.13598 60.6045C3.0522 60.868 2.81644 61.6092 3.13598 62.3311C3.28697 62.6722 3.6374 63.1796 4.98104 63.6877C5.77962 63.9897 8.10884 64.8706 10.8852 63.9344C11.5174 63.7212 11.0348 63.7976 13.4682 62.5778C15.3827 61.6181 16.5025 61.1594 16.6663 60.2346C16.724 59.9094 16.6659 59.5129 16.9123 59.3712C17.0493 59.2925 17.2149 59.3308 17.3802 59.3905C17.5413 61.1167 17.7425 62.8402 17.9863 64.5602H15.7956C12.8866 64.5602 10.277 66.1835 8.98526 68.7968L0.790824 85.3723C0.273503 86.4185 0 87.5888 0 88.7567V131.379C0 135.581 3.40986 139 7.60117 139H26.7282C30.9195 139 34.3293 135.581 34.3293 131.379V92.1321C34.3293 91.1754 34.1525 90.2386 33.8038 89.3478L25.9941 69.3971C25.0469 66.9775 22.9954 65.2659 20.5431 64.736C21.3297 63.801 22.1175 62.8669 22.9115 61.9356C23.9112 62.4193 25.0109 62.8163 26.1933 63.095C29.3213 63.8323 30.5382 63.1749 30.8461 62.9944C31.1401 62.8219 32.4145 62.1207 32.6305 60.9514C32.6536 60.8261 32.6626 60.6993 32.6609 60.5716C35.865 63.1832 37.5364 64.4704 38.7576 64.0412C39.8075 63.6722 40.4069 62.463 40.7501 61.3778C41.1085 61.4277 41.4886 61.4788 41.8937 61.5331C46.2821 62.1206 48.4934 62.3931 49.3393 61.3509C50.5101 59.9086 49.3989 57.1275 49.0926 56.361C48.4269 54.695 47.4029 53.6814 46.7668 53.0647C45.9407 52.2639 43.5864 49.9816 39.88 49.6772C39.0742 49.611 38.3504 49.6618 37.613 49.8165C37.3561 49.5808 37.0849 49.3499 36.7863 49.1307C36.2174 48.7128 35.6555 48.4032 35.0508 48.1614C35.9784 47.1424 36.9087 46.1265 37.8432 45.1149C37.9912 45.1823 38.1317 45.2475 38.2607 45.3076C41.3225 46.7334 41.9951 48.1296 44.9396 48.8646C46.2754 49.198 47.7878 49.5756 48.1621 49.008C48.8272 47.9997 46.004 43.851 41.6414 41.044C41.9355 40.7317 42.2304 40.4205 42.5253 40.109C42.9242 40.2767 43.2757 40.4403 43.5752 40.5798C46.6369 42.0055 47.3096 43.4017 50.2541 44.1367C51.5898 44.4701 53.1021 44.8477 53.4766 44.2801C54.07 43.3804 51.8864 39.9797 48.3102 37.2631C49.2925 36.9504 50.5951 36.6037 52.2819 36.6482C54.8403 36.7156 56.8387 37.6462 58.0252 38.1987C61.0869 39.6245 61.7596 41.0207 64.704 41.7557C66.0398 42.0891 67.5522 42.4666 67.9265 41.899C68.9153 40.4 62.1995 31.9548 54.1661 31.3066C53.5425 31.2562 52.982 31.2605 52.4753 31.298C52.4053 31.1817 52.3292 31.0623 52.2492 30.9409C54.9672 31.0284 60.2755 30.2493 64.7937 33.4298C66.0965 34.3469 68.6273 36.5042 72.8629 38.2766C74.2166 38.8431 74.8973 39.1216 75.0848 38.889C75.7559 38.0563 70.1757 31.2034 62.3249 27.8275C59.2123 26.489 57.2891 26.3624 55.9212 26.5651C56.132 26.3241 56.3375 26.0754 56.5352 25.8256C59.5922 22.8195 62.6878 19.8448 65.8111 16.9101C65.6599 17.3788 65.665 17.6283 65.8299 17.8103ZM26.5997 55.2253C23.1468 54.1045 18.9658 54.7066 17.8755 55.9818C17.7218 54.8516 17.5882 53.7198 17.4782 52.5858C19.0512 53.4667 20.6926 53.7026 23.8063 54.1194C25.1324 54.297 26.2566 54.4448 27.2076 54.5372C27.3353 54.8843 27.4715 55.1966 27.6296 55.4955C27.6479 55.5302 27.6675 55.5632 27.6862 55.5974L27.6587 55.6289C27.3041 55.4748 26.9488 55.3386 26.5997 55.2253ZM17.4259 40.0417C17.5243 39.7141 17.5264 39.3652 17.4512 39.0056C17.5586 37.7027 17.6928 36.4039 17.8514 35.1089C17.8474 35.3071 17.9101 35.5055 17.9955 35.7205C18.9554 38.1377 21.5491 40.4578 25.0846 41.6615C25.7441 41.886 26.3098 42.0276 26.7972 42.114C26.5827 42.4886 26.4185 42.8537 26.3096 43.1913C25.1043 42.2205 23.5528 41.5145 21.7924 42.2635C21.3134 42.4673 21.029 43.2129 20.7821 44.1046C19.1558 44.1327 17.7969 44.4729 17.1497 45.0485C17.1531 44.8084 17.1519 44.5689 17.1583 44.3284C17.1948 42.958 17.2622 41.592 17.3571 40.2302C17.383 40.1692 17.4064 40.1066 17.4259 40.0417ZM17.1542 47.0905C17.2243 47.2344 17.3011 47.3776 17.3808 47.5203C17.3085 47.4669 17.2344 47.4095 17.1584 47.3473C17.1564 47.2618 17.1558 47.1761 17.1542 47.0905ZM19.9309 64.6307C19.7415 64.6057 19.5505 64.5877 19.3576 64.5768C18.9124 62.3609 18.5013 60.1465 18.1573 57.9279C19.0621 59.3676 20.5388 60.6857 22.4197 61.6852C21.5851 62.6646 20.7573 63.6472 19.9309 64.6307ZM34.5042 47.9652C33.3267 47.586 31.945 47.4045 30.0326 47.1819C29.548 46.5065 29.0485 46.009 28.6792 45.6511C28.4792 45.4572 28.1721 45.0725 27.7743 44.6226C28.8051 44.2909 30.3435 43.6998 32.5174 43.7571C34.4931 43.8092 36.1327 44.3756 37.3244 44.8856C36.3805 45.9081 35.4412 46.9351 34.5042 47.9652ZM41.1776 40.7538C40.0205 40.0528 38.7657 39.4525 37.4446 39.0307C37.573 39.0295 37.6987 39.0257 37.8318 39.0292C39.4701 39.0724 40.8771 39.4696 41.9898 39.8947C41.7191 40.181 41.4479 40.4668 41.1776 40.7538Z" fill="#2A1D54"/>
</svg>
