<svg width="94" height="118" viewBox="0 0 94 118" fill="none" xmlns="http://www.w3.org/2000/svg">
<path d="M29.5701 30.7659L29.147 31.0808L93.577 117.654L94.0001 117.339L29.5701 30.7659Z" fill="#57B894"/>
<path d="M57.7705 69.1975C57.695 69.138 50.2136 63.1249 49.5875 52.7636L50.1142 52.7317C50.7263 62.8599 58.0234 68.7251 58.0971 68.7833L57.7705 69.1975Z" fill="#57B894"/>
<path d="M49.9864 53.0954C49.9864 53.0954 41.8942 44.6335 52.7808 32.9972C55.0488 30.573 57.2795 28.4326 59.3899 26.5629C61.8811 24.3559 65.5571 27.3007 63.9678 30.2249C61.6662 34.4598 59.8929 38.9948 59.9938 42.8014C60.2722 53.2998 49.9864 53.0954 49.9864 53.0954Z" fill="#57B894"/>
<path d="M77.9268 95.9731L77.4282 96.1453C77.3975 96.0568 74.2504 87.2323 64.8961 83.3263L65.0993 82.8393C74.6781 86.8392 77.8954 95.8822 77.9268 95.9731Z" fill="#57B894"/>
<path d="M65.2818 83.3249C65.2818 83.3249 59.953 72.8996 45.3831 79.3523C42.3477 80.6966 39.5925 82.099 37.1327 83.4769C34.229 85.1034 35.8006 89.5436 39.0849 89.0047C43.8412 88.2242 48.7072 88.0415 52.2687 89.3891C62.0912 93.1056 65.2818 83.3249 65.2818 83.3249Z" fill="#57B894"/>
<path d="M33.5366 19.6367C35.896 19.0146 38.1025 17.9306 38.0293 16.8583C37.9424 15.5844 34.6667 14.7309 31.8408 14.601C33.9723 12.9334 35.9307 10.6282 35.3318 9.58568C34.7812 8.62721 32.2197 8.99849 29.8564 9.84265C31.255 7.84316 32.2382 5.59007 31.4894 4.81902C30.5566 3.85854 27.246 5.51635 24.9867 7.34883C25.4265 4.49401 25.2042 0.890457 23.9238 0.564429C22.8526 0.291683 21.3344 2.38789 20.2935 4.67136C19.8335 2.27504 18.9021 0 17.8273 0C16.2962 0 15.0549 4.61648 15.0549 7.62411C15.0549 7.79412 15.0594 7.95416 15.0672 8.10707C14.9135 7.9289 14.7374 7.74278 14.5365 7.5477C12.3789 5.45232 8.20243 3.12654 7.13569 4.22494C6.38687 4.99601 7.37012 7.24909 8.76868 9.24858C6.4054 8.40442 3.84391 8.03315 3.29329 8.99161C2.55344 10.2795 5.71594 13.4944 8.28655 15.0535C8.13202 15.0349 7.96966 15.0192 7.79689 15.0074C4.79624 14.8027 0.106007 15.7268 0.00177056 17.2544C-0.071403 18.3267 2.13496 19.4107 4.49439 20.0328C2.14535 20.9158 -0.0493151 22.2878 0.149884 23.3751C0.391641 24.6947 4.0792 25.1566 6.97862 24.8862C4.81254 26.9645 2.46379 30.6874 3.44399 31.7785C4.16229 32.5781 6.47709 31.7505 8.56715 30.4913C7.56406 32.7916 7.01924 35.3219 7.93802 35.9365C9.15222 36.7487 12.4822 33.9219 14.2379 31.4895C14.059 34.4652 14.7711 38.5533 16.1838 38.7147C17.2517 38.8366 18.4351 36.6819 19.1641 34.3533C19.9392 36.7401 21.2097 38.995 22.3049 38.8456C23.7291 38.6512 24.3499 34.4608 24.0843 31.4829C25.8953 33.8152 28.9432 36.3096 30.093 35.5404C31.0118 34.9258 30.4669 32.3956 29.4639 30.0953C31.5539 31.3545 33.8687 32.182 34.587 31.3825C35.5672 30.2914 33.2185 26.5684 31.0524 24.4902C33.9518 24.7605 37.6394 24.2986 37.8811 22.979C38.0803 21.8918 35.8857 20.5198 33.5366 19.6367ZM20.8324 28.054C20.2259 28.1368 19.6713 28.2549 19.2496 28.5567C18.8015 28.112 18.1472 27.9765 17.4196 27.8934C16.6049 27.8004 15.8646 27.7914 15.3 28.2616C15.0935 27.6874 14.5855 27.2795 13.9938 26.8836C13.485 26.5433 12.9916 26.2639 12.4758 26.2101C12.4355 25.5801 12.0356 25.0446 11.5463 24.4999C11.2342 24.1525 10.9221 23.8419 10.5756 23.6342C11.0755 23.0257 11.0178 22.2565 10.8632 21.4124C10.7529 20.8103 10.6095 20.2617 10.2888 19.8541C10.7127 19.3863 10.8182 18.7264 10.8681 17.9958C10.9225 17.198 10.8999 16.4747 10.4394 15.9362C11.6294 16.0875 12.2037 15.3462 12.7374 14.4171C13.0423 13.8863 13.2875 13.375 13.3061 12.8568C13.9319 12.7737 14.4389 12.3383 14.9491 11.8129C15.3849 11.3642 15.7556 10.9198 15.8949 10.4084C16.3942 10.828 17.0756 10.8916 17.8274 10.8916C18.5597 10.8916 19.2252 10.8312 19.7208 10.4402C20.1055 10.7878 20.6431 10.9682 21.2363 11.1192C21.8025 11.2634 22.337 11.3599 22.823 11.2628C23.0004 11.6681 23.3158 12.0361 23.6761 12.407C24.1862 12.9323 24.6932 13.3677 25.319 13.4508C25.3377 13.9691 25.5828 14.4804 25.8877 15.0111C26.2466 15.6359 26.6236 16.1761 27.1937 16.4171C27.1272 16.78 27.1343 17.1795 27.1629 17.5997C27.2128 18.3303 27.3183 18.9902 27.7422 19.458C27.4215 19.8656 27.2782 20.4142 27.1679 21.0163C27.0132 21.8604 26.9556 22.6296 27.4554 23.2382C27.109 23.4459 26.7968 23.7565 26.4847 24.1038C25.9954 24.6486 25.5955 25.184 25.5552 25.814C25.0394 25.8679 24.546 26.1472 24.0372 26.4876C23.3424 26.9524 22.7635 27.4342 22.6523 28.1823C22.1309 27.9293 21.5067 27.962 20.8324 28.054Z" fill="#FF7F35"/>
<path d="M24.605 27.3947C29.0126 24.2628 30.0466 18.1508 26.9147 13.7433C23.7828 9.33577 17.6708 8.30169 13.2633 11.4336C8.85573 14.5656 7.82165 20.6775 10.9536 25.085C14.0855 29.4926 20.1975 30.5267 24.605 27.3947Z" fill="#FEBD41"/>
</svg>
