<svg width="75" height="146" viewBox="0 0 75 146" fill="none" xmlns="http://www.w3.org/2000/svg">
<path d="M70.0429 144.89C70.0897 145.258 70.1007 145.63 70.0759 146H50.4842C50.306 145.641 50.1517 145.27 50.0223 144.89C47.6269 137.998 51.5664 126.527 46.5712 109.519C42.8627 96.8981 35.9406 87.0262 32.7138 82.4273C28.7479 76.7711 24.2542 71.551 19.0478 63.2121C17.9194 61.4082 16.758 59.4523 15.557 57.318C15.1545 56.6044 10.5156 48.3249 10.9379 48.0672C11.1359 47.9483 12.3632 49.62 12.7789 50.1817C16.4479 55.1507 18.5793 57.3246 21.6345 60.8994C23.4887 63.0667 25.6795 65.7428 28.7545 69.8726C36.6401 80.4516 40.5795 85.7377 41.952 89.6958C43.5973 94.4576 45.582 99.0949 47.8909 103.572C49.7518 107.193 50.6822 109.003 51.1903 108.858C52.6288 108.442 50.6888 93.4489 44.5915 78.4627C43.5489 75.9121 42.7703 74.28 41.2922 71.1942C38.8902 66.1591 25.5146 38.1755 15.6824 21.4249C14.4485 19.3171 13.2673 17.3942 12.1785 15.7093C11.9673 15.3921 11.7628 15.0815 11.5648 14.7842C10.4977 13.1173 9.29479 11.5415 7.96848 10.0729C7.43398 9.51785 6.07462 7.94523 3.34935 4.78675C2.26714 3.53127 1.47528 2.5996 0.940787 1.91899C0.861622 1.8199 0.789027 1.72076 0.729661 1.63487C0.0829601 0.789098 -0.101783 0.379381 0.0499772 0.161356C0.267744 -0.149226 1.10576 0.0291972 2.023 0.352966C2.12199 0.385998 2.22757 0.42564 2.32655 0.465284C3.32297 0.835316 4.33256 1.3177 4.6691 1.4829C7.75731 2.96963 10.7729 5.63252 13.5642 8.79763C14.6002 9.96717 15.5966 11.2028 16.5601 12.4715C19.451 16.3635 22.0746 20.4476 24.4126 24.6958C26.9201 29.2154 28.4246 32.5391 28.4246 32.5391C35.4259 48.021 43.1926 65.7296 43.6017 65.5777C44.0505 65.4125 35.4391 43.3692 32.9316 31.396C32.0935 27.3851 31.9418 24.5041 33.0437 23.9491C33.0838 23.9275 33.1257 23.9098 33.1691 23.8962C33.303 23.8523 33.4446 23.8365 33.5848 23.85C34.2853 23.777 34.9928 23.8104 35.6832 23.9491C37.0228 24.2398 38.5471 27.9732 40.0318 33.2131C43.8921 46.7192 47.561 70.203 47.561 70.203C51.2299 93.6934 56.7993 112.704 58.119 112.492C58.8515 112.373 57.8023 106.473 58.7789 96.6339C59.4651 89.7354 60.2438 89.9469 62.7381 77.4715C66.6974 57.6814 68.677 47.7699 68.677 47.7368C68.6259 47.0276 68.6435 46.315 68.7298 45.6091C68.8618 44.6642 69.1983 43.6731 69.9967 43.1114C71.2109 42.2525 73.1641 42.6225 73.956 43.1114C74.5895 43.5079 74.9128 44.2348 74.9854 45.2788C75.4209 51.8468 65.9979 70.8902 62.7381 96.6339C61.1148 109.459 60.224 116.457 62.7381 125.708C65.2258 134.879 69.5612 140.72 70.0429 144.89Z" fill="#302061"/>
</svg>
