<svg width="28" height="37" viewBox="0 0 28 37" fill="none" xmlns="http://www.w3.org/2000/svg">
<rect y="2.53857" width="28" height="34.4615" rx="5" fill="url(#paint0_linear_29_65)"/>
<path d="M25.39 25.5127H2.61302C2.45852 25.5129 2.3055 25.4852 2.16271 25.4311C2.01992 25.3771 1.89016 25.2978 1.78085 25.1978C1.67154 25.0977 1.58482 24.979 1.52565 24.8482C1.46649 24.7175 1.43604 24.5773 1.43604 24.4358C1.43604 24.2943 1.46649 24.1541 1.52565 24.0234C1.58482 23.8927 1.67154 23.7739 1.78085 23.6739C1.89016 23.5738 2.01992 23.4945 2.16271 23.4405C2.3055 23.3865 2.45852 23.3587 2.61302 23.3589H25.39C25.7016 23.3592 26.0002 23.4728 26.2204 23.6748C26.4406 23.8767 26.5642 24.1504 26.5642 24.4358C26.5642 24.7212 26.4406 24.9949 26.2204 25.1969C26.0002 25.3988 25.7016 25.5124 25.39 25.5127Z" fill="#EE6A47"/>
<path d="M25.39 20.4873H2.61302C2.45852 20.4875 2.3055 20.4598 2.16271 20.4057C2.01992 20.3517 1.89016 20.2724 1.78085 20.1724C1.67154 20.0724 1.58482 19.9536 1.52565 19.8228C1.46649 19.6921 1.43604 19.552 1.43604 19.4104C1.43604 19.2689 1.46649 19.1287 1.52565 18.998C1.58482 18.8673 1.67154 18.7485 1.78085 18.6485C1.89016 18.5485 2.01992 18.4692 2.16271 18.4151C2.3055 18.3611 2.45852 18.3333 2.61302 18.3335H25.39C25.7016 18.3338 26.0002 18.4474 26.2204 18.6494C26.4406 18.8513 26.5642 19.125 26.5642 19.4104C26.5642 19.6958 26.4406 19.9695 26.2204 20.1715C26.0002 20.3734 25.7016 20.487 25.39 20.4873Z" fill="#EE6A47"/>
<path d="M19.6446 16.1795H9.07343C8.91906 16.1797 8.76618 16.1612 8.62351 16.1251C8.48084 16.0891 8.35119 16.0362 8.24198 15.9696C8.13276 15.9029 8.04612 15.8237 7.987 15.7365C7.92789 15.6494 7.89746 15.556 7.89746 15.4616C7.89746 15.3672 7.92789 15.2738 7.987 15.1867C8.04612 15.0995 8.13276 15.0203 8.24198 14.9536C8.35119 14.887 8.48084 14.8341 8.62351 14.7981C8.76618 14.762 8.91906 14.7435 9.07343 14.7437H19.6446C19.7989 14.7435 19.9518 14.762 20.0945 14.7981C20.2372 14.8341 20.3668 14.887 20.476 14.9536C20.5852 15.0203 20.6719 15.0995 20.731 15.1867C20.7901 15.2738 20.8205 15.3672 20.8205 15.4616C20.8205 15.556 20.7901 15.6494 20.731 15.7365C20.6719 15.8237 20.5852 15.9029 20.476 15.9696C20.3668 16.0362 20.2372 16.0891 20.0945 16.1251C19.9518 16.1612 19.7989 16.1797 19.6446 16.1795Z" fill="#EE6A47"/>
<path d="M20.1837 4.69246H8.53405C7.98455 4.69188 7.45773 4.48672 7.06917 4.12199C6.68061 3.75727 6.46204 3.26276 6.46143 2.74696V2.33027C6.46204 1.81447 6.68061 1.31996 7.06917 0.955231C7.45773 0.590504 7.98455 0.385346 8.53405 0.384766H20.1837C20.7332 0.385346 21.26 0.590504 21.6486 0.955231C22.0371 1.31996 22.2557 1.81447 22.2563 2.33027V2.74696C22.2557 3.26276 22.0371 3.75727 21.6486 4.12199C21.26 4.48672 20.7332 4.69188 20.1837 4.69246Z" fill="#014BE8"/>
<defs>
<linearGradient id="paint0_linear_29_65" x1="28" y1="2.53857" x2="-4.9478e-08" y2="37.0001" gradientUnits="userSpaceOnUse">
<stop stop-color="#FFC643"/>
<stop offset="1" stop-color="#FF7834"/>
</linearGradient>
</defs>
</svg>
