<svg width="62" height="60" viewBox="0 0 62 60" fill="none" xmlns="http://www.w3.org/2000/svg">
<path d="M30.1412 1.43947C30.5291 0.789261 31.4709 0.789261 31.8588 1.43947L56.9445 43.4877C57.3422 44.1542 56.8619 45 56.0857 45H5.91425C5.13807 45 4.6578 44.1542 5.05547 43.4877L30.1412 1.43947Z" fill="#F99B41"/>
<path d="M30.1411 4.39039C30.529 3.74019 31.4708 3.74019 31.8587 4.3904L54.3038 42.0124C54.7014 42.6789 54.2211 43.5247 53.445 43.5247H8.55481C7.77863 43.5247 7.29836 42.6789 7.69603 42.0124L30.1411 4.39039Z" fill="#FF7733"/>
<ellipse cx="31.5081" cy="38.3608" rx="2.03279" ry="1.96721" fill="#FFC643"/>
<path d="M32.1831 33.0186C31.8906 33.9357 30.598 33.9494 30.2848 33.0388L25.795 19.9866C25.5731 19.3417 26.0474 18.6693 26.7292 18.662L35.4118 18.5698C36.0936 18.5626 36.5831 19.2248 36.3759 19.8743L32.1831 33.0186Z" fill="#FFC643"/>
</svg>
